G04 #@! TF.GenerationSoftware,KiCad,Pcbnew,5.0.2-bee76a0~70~ubuntu16.04.1*
G04 #@! TF.CreationDate,2019-07-30T15:31:50+02:00*
G04 #@! TF.ProjectId,hw-USB-RF,68772d55-5342-42d5-9246-2e6b69636164,rev?*
G04 #@! TF.SameCoordinates,Original*
G04 #@! TF.FileFunction,Copper,L1,Top*
G04 #@! TF.FilePolarity,Positive*
%FSLAX46Y46*%
G04 Gerber Fmt 4.6, Leading zero omitted, Abs format (unit mm)*
G04 Created by KiCad (PCBNEW 5.0.2-bee76a0~70~ubuntu16.04.1) date Tue 30 Jul 2019 03:31:50 PM CEST*
%MOMM*%
%LPD*%
G01*
G04 APERTURE LIST*
G04 #@! TA.AperFunction,SMDPad,CuDef*
%ADD10R,1.500000X0.600000*%
G04 #@! TD*
G04 #@! TA.AperFunction,Conductor*
%ADD11C,0.100000*%
G04 #@! TD*
G04 #@! TA.AperFunction,SMDPad,CuDef*
%ADD12C,0.975000*%
G04 #@! TD*
G04 #@! TA.AperFunction,ComponentPad*
%ADD13R,1.700000X1.700000*%
G04 #@! TD*
G04 #@! TA.AperFunction,ComponentPad*
%ADD14O,1.700000X1.700000*%
G04 #@! TD*
G04 #@! TA.AperFunction,SMDPad,CuDef*
%ADD15R,2.000000X4.500000*%
G04 #@! TD*
G04 #@! TA.AperFunction,SMDPad,CuDef*
%ADD16R,1.060000X0.650000*%
G04 #@! TD*
G04 #@! TA.AperFunction,ComponentPad*
%ADD17C,1.524000*%
G04 #@! TD*
G04 #@! TA.AperFunction,SMDPad,CuDef*
%ADD18R,1.897380X1.897380*%
G04 #@! TD*
G04 #@! TA.AperFunction,SMDPad,CuDef*
%ADD19R,2.000000X0.398780*%
G04 #@! TD*
G04 #@! TA.AperFunction,ComponentPad*
%ADD20C,0.797560*%
G04 #@! TD*
G04 #@! TA.AperFunction,ViaPad*
%ADD21C,0.800000*%
G04 #@! TD*
G04 #@! TA.AperFunction,Conductor*
%ADD22C,0.250000*%
G04 #@! TD*
G04 APERTURE END LIST*
D10*
G04 #@! TO.P,U3,1*
G04 #@! TO.N,/LED*
X127795000Y-85725000D03*
G04 #@! TO.P,U3,2*
G04 #@! TO.N,Net-(U3-Pad2)*
X127795000Y-84455000D03*
G04 #@! TO.P,U3,3*
G04 #@! TO.N,Net-(U3-Pad3)*
X127795000Y-83185000D03*
G04 #@! TO.P,U3,4*
G04 #@! TO.N,/RF_SDA*
X127795000Y-81915000D03*
G04 #@! TO.P,U3,5*
G04 #@! TO.N,/RF_SCL*
X127795000Y-80645000D03*
G04 #@! TO.P,U3,6*
G04 #@! TO.N,Net-(C5-Pad1)*
X127795000Y-79375000D03*
G04 #@! TO.P,U3,7*
G04 #@! TO.N,/SWCLK*
X127795000Y-78105000D03*
G04 #@! TO.P,U3,8*
G04 #@! TO.N,/SWDIO*
X122395000Y-78105000D03*
G04 #@! TO.P,U3,9*
G04 #@! TO.N,/USB_DM*
X122395000Y-79375000D03*
G04 #@! TO.P,U3,10*
G04 #@! TO.N,/USB_DP*
X122395000Y-80645000D03*
G04 #@! TO.P,U3,11*
G04 #@! TO.N,GND*
X122395000Y-81915000D03*
G04 #@! TO.P,U3,12*
G04 #@! TO.N,+3V3*
X122395000Y-83185000D03*
G04 #@! TO.P,U3,13*
G04 #@! TO.N,/RF_DATA*
X122395000Y-84455000D03*
G04 #@! TO.P,U3,14*
G04 #@! TO.N,/RF_CSB*
X122395000Y-85725000D03*
G04 #@! TD*
D11*
G04 #@! TO.N,Net-(AE1-Pad1)*
G04 #@! TO.C,C1*
G36*
X156142642Y-81301174D02*
X156166303Y-81304684D01*
X156189507Y-81310496D01*
X156212029Y-81318554D01*
X156233653Y-81328782D01*
X156254170Y-81341079D01*
X156273383Y-81355329D01*
X156291107Y-81371393D01*
X156307171Y-81389117D01*
X156321421Y-81408330D01*
X156333718Y-81428847D01*
X156343946Y-81450471D01*
X156352004Y-81472993D01*
X156357816Y-81496197D01*
X156361326Y-81519858D01*
X156362500Y-81543750D01*
X156362500Y-82456250D01*
X156361326Y-82480142D01*
X156357816Y-82503803D01*
X156352004Y-82527007D01*
X156343946Y-82549529D01*
X156333718Y-82571153D01*
X156321421Y-82591670D01*
X156307171Y-82610883D01*
X156291107Y-82628607D01*
X156273383Y-82644671D01*
X156254170Y-82658921D01*
X156233653Y-82671218D01*
X156212029Y-82681446D01*
X156189507Y-82689504D01*
X156166303Y-82695316D01*
X156142642Y-82698826D01*
X156118750Y-82700000D01*
X155631250Y-82700000D01*
X155607358Y-82698826D01*
X155583697Y-82695316D01*
X155560493Y-82689504D01*
X155537971Y-82681446D01*
X155516347Y-82671218D01*
X155495830Y-82658921D01*
X155476617Y-82644671D01*
X155458893Y-82628607D01*
X155442829Y-82610883D01*
X155428579Y-82591670D01*
X155416282Y-82571153D01*
X155406054Y-82549529D01*
X155397996Y-82527007D01*
X155392184Y-82503803D01*
X155388674Y-82480142D01*
X155387500Y-82456250D01*
X155387500Y-81543750D01*
X155388674Y-81519858D01*
X155392184Y-81496197D01*
X155397996Y-81472993D01*
X155406054Y-81450471D01*
X155416282Y-81428847D01*
X155428579Y-81408330D01*
X155442829Y-81389117D01*
X155458893Y-81371393D01*
X155476617Y-81355329D01*
X155495830Y-81341079D01*
X155516347Y-81328782D01*
X155537971Y-81318554D01*
X155560493Y-81310496D01*
X155583697Y-81304684D01*
X155607358Y-81301174D01*
X155631250Y-81300000D01*
X156118750Y-81300000D01*
X156142642Y-81301174D01*
X156142642Y-81301174D01*
G37*
D12*
G04 #@! TD*
G04 #@! TO.P,C1,2*
G04 #@! TO.N,Net-(AE1-Pad1)*
X155875000Y-82000000D03*
D11*
G04 #@! TO.N,Net-(C1-Pad1)*
G04 #@! TO.C,C1*
G36*
X154267642Y-81301174D02*
X154291303Y-81304684D01*
X154314507Y-81310496D01*
X154337029Y-81318554D01*
X154358653Y-81328782D01*
X154379170Y-81341079D01*
X154398383Y-81355329D01*
X154416107Y-81371393D01*
X154432171Y-81389117D01*
X154446421Y-81408330D01*
X154458718Y-81428847D01*
X154468946Y-81450471D01*
X154477004Y-81472993D01*
X154482816Y-81496197D01*
X154486326Y-81519858D01*
X154487500Y-81543750D01*
X154487500Y-82456250D01*
X154486326Y-82480142D01*
X154482816Y-82503803D01*
X154477004Y-82527007D01*
X154468946Y-82549529D01*
X154458718Y-82571153D01*
X154446421Y-82591670D01*
X154432171Y-82610883D01*
X154416107Y-82628607D01*
X154398383Y-82644671D01*
X154379170Y-82658921D01*
X154358653Y-82671218D01*
X154337029Y-82681446D01*
X154314507Y-82689504D01*
X154291303Y-82695316D01*
X154267642Y-82698826D01*
X154243750Y-82700000D01*
X153756250Y-82700000D01*
X153732358Y-82698826D01*
X153708697Y-82695316D01*
X153685493Y-82689504D01*
X153662971Y-82681446D01*
X153641347Y-82671218D01*
X153620830Y-82658921D01*
X153601617Y-82644671D01*
X153583893Y-82628607D01*
X153567829Y-82610883D01*
X153553579Y-82591670D01*
X153541282Y-82571153D01*
X153531054Y-82549529D01*
X153522996Y-82527007D01*
X153517184Y-82503803D01*
X153513674Y-82480142D01*
X153512500Y-82456250D01*
X153512500Y-81543750D01*
X153513674Y-81519858D01*
X153517184Y-81496197D01*
X153522996Y-81472993D01*
X153531054Y-81450471D01*
X153541282Y-81428847D01*
X153553579Y-81408330D01*
X153567829Y-81389117D01*
X153583893Y-81371393D01*
X153601617Y-81355329D01*
X153620830Y-81341079D01*
X153641347Y-81328782D01*
X153662971Y-81318554D01*
X153685493Y-81310496D01*
X153708697Y-81304684D01*
X153732358Y-81301174D01*
X153756250Y-81300000D01*
X154243750Y-81300000D01*
X154267642Y-81301174D01*
X154267642Y-81301174D01*
G37*
D12*
G04 #@! TD*
G04 #@! TO.P,C1,1*
G04 #@! TO.N,Net-(C1-Pad1)*
X154000000Y-82000000D03*
D11*
G04 #@! TO.N,Net-(C2-Pad1)*
G04 #@! TO.C,C2*
G36*
X139480142Y-86451174D02*
X139503803Y-86454684D01*
X139527007Y-86460496D01*
X139549529Y-86468554D01*
X139571153Y-86478782D01*
X139591670Y-86491079D01*
X139610883Y-86505329D01*
X139628607Y-86521393D01*
X139644671Y-86539117D01*
X139658921Y-86558330D01*
X139671218Y-86578847D01*
X139681446Y-86600471D01*
X139689504Y-86622993D01*
X139695316Y-86646197D01*
X139698826Y-86669858D01*
X139700000Y-86693750D01*
X139700000Y-87181250D01*
X139698826Y-87205142D01*
X139695316Y-87228803D01*
X139689504Y-87252007D01*
X139681446Y-87274529D01*
X139671218Y-87296153D01*
X139658921Y-87316670D01*
X139644671Y-87335883D01*
X139628607Y-87353607D01*
X139610883Y-87369671D01*
X139591670Y-87383921D01*
X139571153Y-87396218D01*
X139549529Y-87406446D01*
X139527007Y-87414504D01*
X139503803Y-87420316D01*
X139480142Y-87423826D01*
X139456250Y-87425000D01*
X138543750Y-87425000D01*
X138519858Y-87423826D01*
X138496197Y-87420316D01*
X138472993Y-87414504D01*
X138450471Y-87406446D01*
X138428847Y-87396218D01*
X138408330Y-87383921D01*
X138389117Y-87369671D01*
X138371393Y-87353607D01*
X138355329Y-87335883D01*
X138341079Y-87316670D01*
X138328782Y-87296153D01*
X138318554Y-87274529D01*
X138310496Y-87252007D01*
X138304684Y-87228803D01*
X138301174Y-87205142D01*
X138300000Y-87181250D01*
X138300000Y-86693750D01*
X138301174Y-86669858D01*
X138304684Y-86646197D01*
X138310496Y-86622993D01*
X138318554Y-86600471D01*
X138328782Y-86578847D01*
X138341079Y-86558330D01*
X138355329Y-86539117D01*
X138371393Y-86521393D01*
X138389117Y-86505329D01*
X138408330Y-86491079D01*
X138428847Y-86478782D01*
X138450471Y-86468554D01*
X138472993Y-86460496D01*
X138496197Y-86454684D01*
X138519858Y-86451174D01*
X138543750Y-86450000D01*
X139456250Y-86450000D01*
X139480142Y-86451174D01*
X139480142Y-86451174D01*
G37*
D12*
G04 #@! TD*
G04 #@! TO.P,C2,1*
G04 #@! TO.N,Net-(C2-Pad1)*
X139000000Y-86937500D03*
D11*
G04 #@! TO.N,GND*
G04 #@! TO.C,C2*
G36*
X139480142Y-84576174D02*
X139503803Y-84579684D01*
X139527007Y-84585496D01*
X139549529Y-84593554D01*
X139571153Y-84603782D01*
X139591670Y-84616079D01*
X139610883Y-84630329D01*
X139628607Y-84646393D01*
X139644671Y-84664117D01*
X139658921Y-84683330D01*
X139671218Y-84703847D01*
X139681446Y-84725471D01*
X139689504Y-84747993D01*
X139695316Y-84771197D01*
X139698826Y-84794858D01*
X139700000Y-84818750D01*
X139700000Y-85306250D01*
X139698826Y-85330142D01*
X139695316Y-85353803D01*
X139689504Y-85377007D01*
X139681446Y-85399529D01*
X139671218Y-85421153D01*
X139658921Y-85441670D01*
X139644671Y-85460883D01*
X139628607Y-85478607D01*
X139610883Y-85494671D01*
X139591670Y-85508921D01*
X139571153Y-85521218D01*
X139549529Y-85531446D01*
X139527007Y-85539504D01*
X139503803Y-85545316D01*
X139480142Y-85548826D01*
X139456250Y-85550000D01*
X138543750Y-85550000D01*
X138519858Y-85548826D01*
X138496197Y-85545316D01*
X138472993Y-85539504D01*
X138450471Y-85531446D01*
X138428847Y-85521218D01*
X138408330Y-85508921D01*
X138389117Y-85494671D01*
X138371393Y-85478607D01*
X138355329Y-85460883D01*
X138341079Y-85441670D01*
X138328782Y-85421153D01*
X138318554Y-85399529D01*
X138310496Y-85377007D01*
X138304684Y-85353803D01*
X138301174Y-85330142D01*
X138300000Y-85306250D01*
X138300000Y-84818750D01*
X138301174Y-84794858D01*
X138304684Y-84771197D01*
X138310496Y-84747993D01*
X138318554Y-84725471D01*
X138328782Y-84703847D01*
X138341079Y-84683330D01*
X138355329Y-84664117D01*
X138371393Y-84646393D01*
X138389117Y-84630329D01*
X138408330Y-84616079D01*
X138428847Y-84603782D01*
X138450471Y-84593554D01*
X138472993Y-84585496D01*
X138496197Y-84579684D01*
X138519858Y-84576174D01*
X138543750Y-84575000D01*
X139456250Y-84575000D01*
X139480142Y-84576174D01*
X139480142Y-84576174D01*
G37*
D12*
G04 #@! TD*
G04 #@! TO.P,C2,2*
G04 #@! TO.N,GND*
X139000000Y-85062500D03*
D11*
G04 #@! TO.N,GND*
G04 #@! TO.C,C3*
G36*
X139480142Y-82451174D02*
X139503803Y-82454684D01*
X139527007Y-82460496D01*
X139549529Y-82468554D01*
X139571153Y-82478782D01*
X139591670Y-82491079D01*
X139610883Y-82505329D01*
X139628607Y-82521393D01*
X139644671Y-82539117D01*
X139658921Y-82558330D01*
X139671218Y-82578847D01*
X139681446Y-82600471D01*
X139689504Y-82622993D01*
X139695316Y-82646197D01*
X139698826Y-82669858D01*
X139700000Y-82693750D01*
X139700000Y-83181250D01*
X139698826Y-83205142D01*
X139695316Y-83228803D01*
X139689504Y-83252007D01*
X139681446Y-83274529D01*
X139671218Y-83296153D01*
X139658921Y-83316670D01*
X139644671Y-83335883D01*
X139628607Y-83353607D01*
X139610883Y-83369671D01*
X139591670Y-83383921D01*
X139571153Y-83396218D01*
X139549529Y-83406446D01*
X139527007Y-83414504D01*
X139503803Y-83420316D01*
X139480142Y-83423826D01*
X139456250Y-83425000D01*
X138543750Y-83425000D01*
X138519858Y-83423826D01*
X138496197Y-83420316D01*
X138472993Y-83414504D01*
X138450471Y-83406446D01*
X138428847Y-83396218D01*
X138408330Y-83383921D01*
X138389117Y-83369671D01*
X138371393Y-83353607D01*
X138355329Y-83335883D01*
X138341079Y-83316670D01*
X138328782Y-83296153D01*
X138318554Y-83274529D01*
X138310496Y-83252007D01*
X138304684Y-83228803D01*
X138301174Y-83205142D01*
X138300000Y-83181250D01*
X138300000Y-82693750D01*
X138301174Y-82669858D01*
X138304684Y-82646197D01*
X138310496Y-82622993D01*
X138318554Y-82600471D01*
X138328782Y-82578847D01*
X138341079Y-82558330D01*
X138355329Y-82539117D01*
X138371393Y-82521393D01*
X138389117Y-82505329D01*
X138408330Y-82491079D01*
X138428847Y-82478782D01*
X138450471Y-82468554D01*
X138472993Y-82460496D01*
X138496197Y-82454684D01*
X138519858Y-82451174D01*
X138543750Y-82450000D01*
X139456250Y-82450000D01*
X139480142Y-82451174D01*
X139480142Y-82451174D01*
G37*
D12*
G04 #@! TD*
G04 #@! TO.P,C3,2*
G04 #@! TO.N,GND*
X139000000Y-82937500D03*
D11*
G04 #@! TO.N,Net-(C3-Pad1)*
G04 #@! TO.C,C3*
G36*
X139480142Y-80576174D02*
X139503803Y-80579684D01*
X139527007Y-80585496D01*
X139549529Y-80593554D01*
X139571153Y-80603782D01*
X139591670Y-80616079D01*
X139610883Y-80630329D01*
X139628607Y-80646393D01*
X139644671Y-80664117D01*
X139658921Y-80683330D01*
X139671218Y-80703847D01*
X139681446Y-80725471D01*
X139689504Y-80747993D01*
X139695316Y-80771197D01*
X139698826Y-80794858D01*
X139700000Y-80818750D01*
X139700000Y-81306250D01*
X139698826Y-81330142D01*
X139695316Y-81353803D01*
X139689504Y-81377007D01*
X139681446Y-81399529D01*
X139671218Y-81421153D01*
X139658921Y-81441670D01*
X139644671Y-81460883D01*
X139628607Y-81478607D01*
X139610883Y-81494671D01*
X139591670Y-81508921D01*
X139571153Y-81521218D01*
X139549529Y-81531446D01*
X139527007Y-81539504D01*
X139503803Y-81545316D01*
X139480142Y-81548826D01*
X139456250Y-81550000D01*
X138543750Y-81550000D01*
X138519858Y-81548826D01*
X138496197Y-81545316D01*
X138472993Y-81539504D01*
X138450471Y-81531446D01*
X138428847Y-81521218D01*
X138408330Y-81508921D01*
X138389117Y-81494671D01*
X138371393Y-81478607D01*
X138355329Y-81460883D01*
X138341079Y-81441670D01*
X138328782Y-81421153D01*
X138318554Y-81399529D01*
X138310496Y-81377007D01*
X138304684Y-81353803D01*
X138301174Y-81330142D01*
X138300000Y-81306250D01*
X138300000Y-80818750D01*
X138301174Y-80794858D01*
X138304684Y-80771197D01*
X138310496Y-80747993D01*
X138318554Y-80725471D01*
X138328782Y-80703847D01*
X138341079Y-80683330D01*
X138355329Y-80664117D01*
X138371393Y-80646393D01*
X138389117Y-80630329D01*
X138408330Y-80616079D01*
X138428847Y-80603782D01*
X138450471Y-80593554D01*
X138472993Y-80585496D01*
X138496197Y-80579684D01*
X138519858Y-80576174D01*
X138543750Y-80575000D01*
X139456250Y-80575000D01*
X139480142Y-80576174D01*
X139480142Y-80576174D01*
G37*
D12*
G04 #@! TD*
G04 #@! TO.P,C3,1*
G04 #@! TO.N,Net-(C3-Pad1)*
X139000000Y-81062500D03*
D11*
G04 #@! TO.N,GND*
G04 #@! TO.C,C4*
G36*
X151480142Y-75576174D02*
X151503803Y-75579684D01*
X151527007Y-75585496D01*
X151549529Y-75593554D01*
X151571153Y-75603782D01*
X151591670Y-75616079D01*
X151610883Y-75630329D01*
X151628607Y-75646393D01*
X151644671Y-75664117D01*
X151658921Y-75683330D01*
X151671218Y-75703847D01*
X151681446Y-75725471D01*
X151689504Y-75747993D01*
X151695316Y-75771197D01*
X151698826Y-75794858D01*
X151700000Y-75818750D01*
X151700000Y-76306250D01*
X151698826Y-76330142D01*
X151695316Y-76353803D01*
X151689504Y-76377007D01*
X151681446Y-76399529D01*
X151671218Y-76421153D01*
X151658921Y-76441670D01*
X151644671Y-76460883D01*
X151628607Y-76478607D01*
X151610883Y-76494671D01*
X151591670Y-76508921D01*
X151571153Y-76521218D01*
X151549529Y-76531446D01*
X151527007Y-76539504D01*
X151503803Y-76545316D01*
X151480142Y-76548826D01*
X151456250Y-76550000D01*
X150543750Y-76550000D01*
X150519858Y-76548826D01*
X150496197Y-76545316D01*
X150472993Y-76539504D01*
X150450471Y-76531446D01*
X150428847Y-76521218D01*
X150408330Y-76508921D01*
X150389117Y-76494671D01*
X150371393Y-76478607D01*
X150355329Y-76460883D01*
X150341079Y-76441670D01*
X150328782Y-76421153D01*
X150318554Y-76399529D01*
X150310496Y-76377007D01*
X150304684Y-76353803D01*
X150301174Y-76330142D01*
X150300000Y-76306250D01*
X150300000Y-75818750D01*
X150301174Y-75794858D01*
X150304684Y-75771197D01*
X150310496Y-75747993D01*
X150318554Y-75725471D01*
X150328782Y-75703847D01*
X150341079Y-75683330D01*
X150355329Y-75664117D01*
X150371393Y-75646393D01*
X150389117Y-75630329D01*
X150408330Y-75616079D01*
X150428847Y-75603782D01*
X150450471Y-75593554D01*
X150472993Y-75585496D01*
X150496197Y-75579684D01*
X150519858Y-75576174D01*
X150543750Y-75575000D01*
X151456250Y-75575000D01*
X151480142Y-75576174D01*
X151480142Y-75576174D01*
G37*
D12*
G04 #@! TD*
G04 #@! TO.P,C4,1*
G04 #@! TO.N,GND*
X151000000Y-76062500D03*
D11*
G04 #@! TO.N,+3V3*
G04 #@! TO.C,C4*
G36*
X151480142Y-77451174D02*
X151503803Y-77454684D01*
X151527007Y-77460496D01*
X151549529Y-77468554D01*
X151571153Y-77478782D01*
X151591670Y-77491079D01*
X151610883Y-77505329D01*
X151628607Y-77521393D01*
X151644671Y-77539117D01*
X151658921Y-77558330D01*
X151671218Y-77578847D01*
X151681446Y-77600471D01*
X151689504Y-77622993D01*
X151695316Y-77646197D01*
X151698826Y-77669858D01*
X151700000Y-77693750D01*
X151700000Y-78181250D01*
X151698826Y-78205142D01*
X151695316Y-78228803D01*
X151689504Y-78252007D01*
X151681446Y-78274529D01*
X151671218Y-78296153D01*
X151658921Y-78316670D01*
X151644671Y-78335883D01*
X151628607Y-78353607D01*
X151610883Y-78369671D01*
X151591670Y-78383921D01*
X151571153Y-78396218D01*
X151549529Y-78406446D01*
X151527007Y-78414504D01*
X151503803Y-78420316D01*
X151480142Y-78423826D01*
X151456250Y-78425000D01*
X150543750Y-78425000D01*
X150519858Y-78423826D01*
X150496197Y-78420316D01*
X150472993Y-78414504D01*
X150450471Y-78406446D01*
X150428847Y-78396218D01*
X150408330Y-78383921D01*
X150389117Y-78369671D01*
X150371393Y-78353607D01*
X150355329Y-78335883D01*
X150341079Y-78316670D01*
X150328782Y-78296153D01*
X150318554Y-78274529D01*
X150310496Y-78252007D01*
X150304684Y-78228803D01*
X150301174Y-78205142D01*
X150300000Y-78181250D01*
X150300000Y-77693750D01*
X150301174Y-77669858D01*
X150304684Y-77646197D01*
X150310496Y-77622993D01*
X150318554Y-77600471D01*
X150328782Y-77578847D01*
X150341079Y-77558330D01*
X150355329Y-77539117D01*
X150371393Y-77521393D01*
X150389117Y-77505329D01*
X150408330Y-77491079D01*
X150428847Y-77478782D01*
X150450471Y-77468554D01*
X150472993Y-77460496D01*
X150496197Y-77454684D01*
X150519858Y-77451174D01*
X150543750Y-77450000D01*
X151456250Y-77450000D01*
X151480142Y-77451174D01*
X151480142Y-77451174D01*
G37*
D12*
G04 #@! TD*
G04 #@! TO.P,C4,2*
G04 #@! TO.N,+3V3*
X151000000Y-77937500D03*
D11*
G04 #@! TO.N,GND*
G04 #@! TO.C,C5*
G36*
X131290142Y-76681174D02*
X131313803Y-76684684D01*
X131337007Y-76690496D01*
X131359529Y-76698554D01*
X131381153Y-76708782D01*
X131401670Y-76721079D01*
X131420883Y-76735329D01*
X131438607Y-76751393D01*
X131454671Y-76769117D01*
X131468921Y-76788330D01*
X131481218Y-76808847D01*
X131491446Y-76830471D01*
X131499504Y-76852993D01*
X131505316Y-76876197D01*
X131508826Y-76899858D01*
X131510000Y-76923750D01*
X131510000Y-77411250D01*
X131508826Y-77435142D01*
X131505316Y-77458803D01*
X131499504Y-77482007D01*
X131491446Y-77504529D01*
X131481218Y-77526153D01*
X131468921Y-77546670D01*
X131454671Y-77565883D01*
X131438607Y-77583607D01*
X131420883Y-77599671D01*
X131401670Y-77613921D01*
X131381153Y-77626218D01*
X131359529Y-77636446D01*
X131337007Y-77644504D01*
X131313803Y-77650316D01*
X131290142Y-77653826D01*
X131266250Y-77655000D01*
X130353750Y-77655000D01*
X130329858Y-77653826D01*
X130306197Y-77650316D01*
X130282993Y-77644504D01*
X130260471Y-77636446D01*
X130238847Y-77626218D01*
X130218330Y-77613921D01*
X130199117Y-77599671D01*
X130181393Y-77583607D01*
X130165329Y-77565883D01*
X130151079Y-77546670D01*
X130138782Y-77526153D01*
X130128554Y-77504529D01*
X130120496Y-77482007D01*
X130114684Y-77458803D01*
X130111174Y-77435142D01*
X130110000Y-77411250D01*
X130110000Y-76923750D01*
X130111174Y-76899858D01*
X130114684Y-76876197D01*
X130120496Y-76852993D01*
X130128554Y-76830471D01*
X130138782Y-76808847D01*
X130151079Y-76788330D01*
X130165329Y-76769117D01*
X130181393Y-76751393D01*
X130199117Y-76735329D01*
X130218330Y-76721079D01*
X130238847Y-76708782D01*
X130260471Y-76698554D01*
X130282993Y-76690496D01*
X130306197Y-76684684D01*
X130329858Y-76681174D01*
X130353750Y-76680000D01*
X131266250Y-76680000D01*
X131290142Y-76681174D01*
X131290142Y-76681174D01*
G37*
D12*
G04 #@! TD*
G04 #@! TO.P,C5,2*
G04 #@! TO.N,GND*
X130810000Y-77167500D03*
D11*
G04 #@! TO.N,Net-(C5-Pad1)*
G04 #@! TO.C,C5*
G36*
X131290142Y-78556174D02*
X131313803Y-78559684D01*
X131337007Y-78565496D01*
X131359529Y-78573554D01*
X131381153Y-78583782D01*
X131401670Y-78596079D01*
X131420883Y-78610329D01*
X131438607Y-78626393D01*
X131454671Y-78644117D01*
X131468921Y-78663330D01*
X131481218Y-78683847D01*
X131491446Y-78705471D01*
X131499504Y-78727993D01*
X131505316Y-78751197D01*
X131508826Y-78774858D01*
X131510000Y-78798750D01*
X131510000Y-79286250D01*
X131508826Y-79310142D01*
X131505316Y-79333803D01*
X131499504Y-79357007D01*
X131491446Y-79379529D01*
X131481218Y-79401153D01*
X131468921Y-79421670D01*
X131454671Y-79440883D01*
X131438607Y-79458607D01*
X131420883Y-79474671D01*
X131401670Y-79488921D01*
X131381153Y-79501218D01*
X131359529Y-79511446D01*
X131337007Y-79519504D01*
X131313803Y-79525316D01*
X131290142Y-79528826D01*
X131266250Y-79530000D01*
X130353750Y-79530000D01*
X130329858Y-79528826D01*
X130306197Y-79525316D01*
X130282993Y-79519504D01*
X130260471Y-79511446D01*
X130238847Y-79501218D01*
X130218330Y-79488921D01*
X130199117Y-79474671D01*
X130181393Y-79458607D01*
X130165329Y-79440883D01*
X130151079Y-79421670D01*
X130138782Y-79401153D01*
X130128554Y-79379529D01*
X130120496Y-79357007D01*
X130114684Y-79333803D01*
X130111174Y-79310142D01*
X130110000Y-79286250D01*
X130110000Y-78798750D01*
X130111174Y-78774858D01*
X130114684Y-78751197D01*
X130120496Y-78727993D01*
X130128554Y-78705471D01*
X130138782Y-78683847D01*
X130151079Y-78663330D01*
X130165329Y-78644117D01*
X130181393Y-78626393D01*
X130199117Y-78610329D01*
X130218330Y-78596079D01*
X130238847Y-78583782D01*
X130260471Y-78573554D01*
X130282993Y-78565496D01*
X130306197Y-78559684D01*
X130329858Y-78556174D01*
X130353750Y-78555000D01*
X131266250Y-78555000D01*
X131290142Y-78556174D01*
X131290142Y-78556174D01*
G37*
D12*
G04 #@! TD*
G04 #@! TO.P,C5,1*
G04 #@! TO.N,Net-(C5-Pad1)*
X130810000Y-79042500D03*
D11*
G04 #@! TO.N,Net-(C6-Pad1)*
G04 #@! TO.C,C6*
G36*
X124267642Y-74301174D02*
X124291303Y-74304684D01*
X124314507Y-74310496D01*
X124337029Y-74318554D01*
X124358653Y-74328782D01*
X124379170Y-74341079D01*
X124398383Y-74355329D01*
X124416107Y-74371393D01*
X124432171Y-74389117D01*
X124446421Y-74408330D01*
X124458718Y-74428847D01*
X124468946Y-74450471D01*
X124477004Y-74472993D01*
X124482816Y-74496197D01*
X124486326Y-74519858D01*
X124487500Y-74543750D01*
X124487500Y-75456250D01*
X124486326Y-75480142D01*
X124482816Y-75503803D01*
X124477004Y-75527007D01*
X124468946Y-75549529D01*
X124458718Y-75571153D01*
X124446421Y-75591670D01*
X124432171Y-75610883D01*
X124416107Y-75628607D01*
X124398383Y-75644671D01*
X124379170Y-75658921D01*
X124358653Y-75671218D01*
X124337029Y-75681446D01*
X124314507Y-75689504D01*
X124291303Y-75695316D01*
X124267642Y-75698826D01*
X124243750Y-75700000D01*
X123756250Y-75700000D01*
X123732358Y-75698826D01*
X123708697Y-75695316D01*
X123685493Y-75689504D01*
X123662971Y-75681446D01*
X123641347Y-75671218D01*
X123620830Y-75658921D01*
X123601617Y-75644671D01*
X123583893Y-75628607D01*
X123567829Y-75610883D01*
X123553579Y-75591670D01*
X123541282Y-75571153D01*
X123531054Y-75549529D01*
X123522996Y-75527007D01*
X123517184Y-75503803D01*
X123513674Y-75480142D01*
X123512500Y-75456250D01*
X123512500Y-74543750D01*
X123513674Y-74519858D01*
X123517184Y-74496197D01*
X123522996Y-74472993D01*
X123531054Y-74450471D01*
X123541282Y-74428847D01*
X123553579Y-74408330D01*
X123567829Y-74389117D01*
X123583893Y-74371393D01*
X123601617Y-74355329D01*
X123620830Y-74341079D01*
X123641347Y-74328782D01*
X123662971Y-74318554D01*
X123685493Y-74310496D01*
X123708697Y-74304684D01*
X123732358Y-74301174D01*
X123756250Y-74300000D01*
X124243750Y-74300000D01*
X124267642Y-74301174D01*
X124267642Y-74301174D01*
G37*
D12*
G04 #@! TD*
G04 #@! TO.P,C6,1*
G04 #@! TO.N,Net-(C6-Pad1)*
X124000000Y-75000000D03*
D11*
G04 #@! TO.N,GND*
G04 #@! TO.C,C6*
G36*
X126142642Y-74301174D02*
X126166303Y-74304684D01*
X126189507Y-74310496D01*
X126212029Y-74318554D01*
X126233653Y-74328782D01*
X126254170Y-74341079D01*
X126273383Y-74355329D01*
X126291107Y-74371393D01*
X126307171Y-74389117D01*
X126321421Y-74408330D01*
X126333718Y-74428847D01*
X126343946Y-74450471D01*
X126352004Y-74472993D01*
X126357816Y-74496197D01*
X126361326Y-74519858D01*
X126362500Y-74543750D01*
X126362500Y-75456250D01*
X126361326Y-75480142D01*
X126357816Y-75503803D01*
X126352004Y-75527007D01*
X126343946Y-75549529D01*
X126333718Y-75571153D01*
X126321421Y-75591670D01*
X126307171Y-75610883D01*
X126291107Y-75628607D01*
X126273383Y-75644671D01*
X126254170Y-75658921D01*
X126233653Y-75671218D01*
X126212029Y-75681446D01*
X126189507Y-75689504D01*
X126166303Y-75695316D01*
X126142642Y-75698826D01*
X126118750Y-75700000D01*
X125631250Y-75700000D01*
X125607358Y-75698826D01*
X125583697Y-75695316D01*
X125560493Y-75689504D01*
X125537971Y-75681446D01*
X125516347Y-75671218D01*
X125495830Y-75658921D01*
X125476617Y-75644671D01*
X125458893Y-75628607D01*
X125442829Y-75610883D01*
X125428579Y-75591670D01*
X125416282Y-75571153D01*
X125406054Y-75549529D01*
X125397996Y-75527007D01*
X125392184Y-75503803D01*
X125388674Y-75480142D01*
X125387500Y-75456250D01*
X125387500Y-74543750D01*
X125388674Y-74519858D01*
X125392184Y-74496197D01*
X125397996Y-74472993D01*
X125406054Y-74450471D01*
X125416282Y-74428847D01*
X125428579Y-74408330D01*
X125442829Y-74389117D01*
X125458893Y-74371393D01*
X125476617Y-74355329D01*
X125495830Y-74341079D01*
X125516347Y-74328782D01*
X125537971Y-74318554D01*
X125560493Y-74310496D01*
X125583697Y-74304684D01*
X125607358Y-74301174D01*
X125631250Y-74300000D01*
X126118750Y-74300000D01*
X126142642Y-74301174D01*
X126142642Y-74301174D01*
G37*
D12*
G04 #@! TD*
G04 #@! TO.P,C6,2*
G04 #@! TO.N,GND*
X125875000Y-75000000D03*
D11*
G04 #@! TO.N,GND*
G04 #@! TO.C,C7*
G36*
X126142642Y-72301174D02*
X126166303Y-72304684D01*
X126189507Y-72310496D01*
X126212029Y-72318554D01*
X126233653Y-72328782D01*
X126254170Y-72341079D01*
X126273383Y-72355329D01*
X126291107Y-72371393D01*
X126307171Y-72389117D01*
X126321421Y-72408330D01*
X126333718Y-72428847D01*
X126343946Y-72450471D01*
X126352004Y-72472993D01*
X126357816Y-72496197D01*
X126361326Y-72519858D01*
X126362500Y-72543750D01*
X126362500Y-73456250D01*
X126361326Y-73480142D01*
X126357816Y-73503803D01*
X126352004Y-73527007D01*
X126343946Y-73549529D01*
X126333718Y-73571153D01*
X126321421Y-73591670D01*
X126307171Y-73610883D01*
X126291107Y-73628607D01*
X126273383Y-73644671D01*
X126254170Y-73658921D01*
X126233653Y-73671218D01*
X126212029Y-73681446D01*
X126189507Y-73689504D01*
X126166303Y-73695316D01*
X126142642Y-73698826D01*
X126118750Y-73700000D01*
X125631250Y-73700000D01*
X125607358Y-73698826D01*
X125583697Y-73695316D01*
X125560493Y-73689504D01*
X125537971Y-73681446D01*
X125516347Y-73671218D01*
X125495830Y-73658921D01*
X125476617Y-73644671D01*
X125458893Y-73628607D01*
X125442829Y-73610883D01*
X125428579Y-73591670D01*
X125416282Y-73571153D01*
X125406054Y-73549529D01*
X125397996Y-73527007D01*
X125392184Y-73503803D01*
X125388674Y-73480142D01*
X125387500Y-73456250D01*
X125387500Y-72543750D01*
X125388674Y-72519858D01*
X125392184Y-72496197D01*
X125397996Y-72472993D01*
X125406054Y-72450471D01*
X125416282Y-72428847D01*
X125428579Y-72408330D01*
X125442829Y-72389117D01*
X125458893Y-72371393D01*
X125476617Y-72355329D01*
X125495830Y-72341079D01*
X125516347Y-72328782D01*
X125537971Y-72318554D01*
X125560493Y-72310496D01*
X125583697Y-72304684D01*
X125607358Y-72301174D01*
X125631250Y-72300000D01*
X126118750Y-72300000D01*
X126142642Y-72301174D01*
X126142642Y-72301174D01*
G37*
D12*
G04 #@! TD*
G04 #@! TO.P,C7,2*
G04 #@! TO.N,GND*
X125875000Y-73000000D03*
D11*
G04 #@! TO.N,+3V3*
G04 #@! TO.C,C7*
G36*
X124267642Y-72301174D02*
X124291303Y-72304684D01*
X124314507Y-72310496D01*
X124337029Y-72318554D01*
X124358653Y-72328782D01*
X124379170Y-72341079D01*
X124398383Y-72355329D01*
X124416107Y-72371393D01*
X124432171Y-72389117D01*
X124446421Y-72408330D01*
X124458718Y-72428847D01*
X124468946Y-72450471D01*
X124477004Y-72472993D01*
X124482816Y-72496197D01*
X124486326Y-72519858D01*
X124487500Y-72543750D01*
X124487500Y-73456250D01*
X124486326Y-73480142D01*
X124482816Y-73503803D01*
X124477004Y-73527007D01*
X124468946Y-73549529D01*
X124458718Y-73571153D01*
X124446421Y-73591670D01*
X124432171Y-73610883D01*
X124416107Y-73628607D01*
X124398383Y-73644671D01*
X124379170Y-73658921D01*
X124358653Y-73671218D01*
X124337029Y-73681446D01*
X124314507Y-73689504D01*
X124291303Y-73695316D01*
X124267642Y-73698826D01*
X124243750Y-73700000D01*
X123756250Y-73700000D01*
X123732358Y-73698826D01*
X123708697Y-73695316D01*
X123685493Y-73689504D01*
X123662971Y-73681446D01*
X123641347Y-73671218D01*
X123620830Y-73658921D01*
X123601617Y-73644671D01*
X123583893Y-73628607D01*
X123567829Y-73610883D01*
X123553579Y-73591670D01*
X123541282Y-73571153D01*
X123531054Y-73549529D01*
X123522996Y-73527007D01*
X123517184Y-73503803D01*
X123513674Y-73480142D01*
X123512500Y-73456250D01*
X123512500Y-72543750D01*
X123513674Y-72519858D01*
X123517184Y-72496197D01*
X123522996Y-72472993D01*
X123531054Y-72450471D01*
X123541282Y-72428847D01*
X123553579Y-72408330D01*
X123567829Y-72389117D01*
X123583893Y-72371393D01*
X123601617Y-72355329D01*
X123620830Y-72341079D01*
X123641347Y-72328782D01*
X123662971Y-72318554D01*
X123685493Y-72310496D01*
X123708697Y-72304684D01*
X123732358Y-72301174D01*
X123756250Y-72300000D01*
X124243750Y-72300000D01*
X124267642Y-72301174D01*
X124267642Y-72301174D01*
G37*
D12*
G04 #@! TD*
G04 #@! TO.P,C7,1*
G04 #@! TO.N,+3V3*
X124000000Y-73000000D03*
D11*
G04 #@! TO.N,+3V3*
G04 #@! TO.C,C8*
G36*
X115392642Y-76301174D02*
X115416303Y-76304684D01*
X115439507Y-76310496D01*
X115462029Y-76318554D01*
X115483653Y-76328782D01*
X115504170Y-76341079D01*
X115523383Y-76355329D01*
X115541107Y-76371393D01*
X115557171Y-76389117D01*
X115571421Y-76408330D01*
X115583718Y-76428847D01*
X115593946Y-76450471D01*
X115602004Y-76472993D01*
X115607816Y-76496197D01*
X115611326Y-76519858D01*
X115612500Y-76543750D01*
X115612500Y-77456250D01*
X115611326Y-77480142D01*
X115607816Y-77503803D01*
X115602004Y-77527007D01*
X115593946Y-77549529D01*
X115583718Y-77571153D01*
X115571421Y-77591670D01*
X115557171Y-77610883D01*
X115541107Y-77628607D01*
X115523383Y-77644671D01*
X115504170Y-77658921D01*
X115483653Y-77671218D01*
X115462029Y-77681446D01*
X115439507Y-77689504D01*
X115416303Y-77695316D01*
X115392642Y-77698826D01*
X115368750Y-77700000D01*
X114881250Y-77700000D01*
X114857358Y-77698826D01*
X114833697Y-77695316D01*
X114810493Y-77689504D01*
X114787971Y-77681446D01*
X114766347Y-77671218D01*
X114745830Y-77658921D01*
X114726617Y-77644671D01*
X114708893Y-77628607D01*
X114692829Y-77610883D01*
X114678579Y-77591670D01*
X114666282Y-77571153D01*
X114656054Y-77549529D01*
X114647996Y-77527007D01*
X114642184Y-77503803D01*
X114638674Y-77480142D01*
X114637500Y-77456250D01*
X114637500Y-76543750D01*
X114638674Y-76519858D01*
X114642184Y-76496197D01*
X114647996Y-76472993D01*
X114656054Y-76450471D01*
X114666282Y-76428847D01*
X114678579Y-76408330D01*
X114692829Y-76389117D01*
X114708893Y-76371393D01*
X114726617Y-76355329D01*
X114745830Y-76341079D01*
X114766347Y-76328782D01*
X114787971Y-76318554D01*
X114810493Y-76310496D01*
X114833697Y-76304684D01*
X114857358Y-76301174D01*
X114881250Y-76300000D01*
X115368750Y-76300000D01*
X115392642Y-76301174D01*
X115392642Y-76301174D01*
G37*
D12*
G04 #@! TD*
G04 #@! TO.P,C8,1*
G04 #@! TO.N,+3V3*
X115125000Y-77000000D03*
D11*
G04 #@! TO.N,GND*
G04 #@! TO.C,C8*
G36*
X117267642Y-76301174D02*
X117291303Y-76304684D01*
X117314507Y-76310496D01*
X117337029Y-76318554D01*
X117358653Y-76328782D01*
X117379170Y-76341079D01*
X117398383Y-76355329D01*
X117416107Y-76371393D01*
X117432171Y-76389117D01*
X117446421Y-76408330D01*
X117458718Y-76428847D01*
X117468946Y-76450471D01*
X117477004Y-76472993D01*
X117482816Y-76496197D01*
X117486326Y-76519858D01*
X117487500Y-76543750D01*
X117487500Y-77456250D01*
X117486326Y-77480142D01*
X117482816Y-77503803D01*
X117477004Y-77527007D01*
X117468946Y-77549529D01*
X117458718Y-77571153D01*
X117446421Y-77591670D01*
X117432171Y-77610883D01*
X117416107Y-77628607D01*
X117398383Y-77644671D01*
X117379170Y-77658921D01*
X117358653Y-77671218D01*
X117337029Y-77681446D01*
X117314507Y-77689504D01*
X117291303Y-77695316D01*
X117267642Y-77698826D01*
X117243750Y-77700000D01*
X116756250Y-77700000D01*
X116732358Y-77698826D01*
X116708697Y-77695316D01*
X116685493Y-77689504D01*
X116662971Y-77681446D01*
X116641347Y-77671218D01*
X116620830Y-77658921D01*
X116601617Y-77644671D01*
X116583893Y-77628607D01*
X116567829Y-77610883D01*
X116553579Y-77591670D01*
X116541282Y-77571153D01*
X116531054Y-77549529D01*
X116522996Y-77527007D01*
X116517184Y-77503803D01*
X116513674Y-77480142D01*
X116512500Y-77456250D01*
X116512500Y-76543750D01*
X116513674Y-76519858D01*
X116517184Y-76496197D01*
X116522996Y-76472993D01*
X116531054Y-76450471D01*
X116541282Y-76428847D01*
X116553579Y-76408330D01*
X116567829Y-76389117D01*
X116583893Y-76371393D01*
X116601617Y-76355329D01*
X116620830Y-76341079D01*
X116641347Y-76328782D01*
X116662971Y-76318554D01*
X116685493Y-76310496D01*
X116708697Y-76304684D01*
X116732358Y-76301174D01*
X116756250Y-76300000D01*
X117243750Y-76300000D01*
X117267642Y-76301174D01*
X117267642Y-76301174D01*
G37*
D12*
G04 #@! TD*
G04 #@! TO.P,C8,2*
G04 #@! TO.N,GND*
X117000000Y-77000000D03*
D13*
G04 #@! TO.P,AE1,1*
G04 #@! TO.N,Net-(AE1-Pad1)*
X159000000Y-82000000D03*
G04 #@! TD*
G04 #@! TO.P,TP1,1*
G04 #@! TO.N,GND*
X141460000Y-74000000D03*
D14*
G04 #@! TO.P,TP1,2*
G04 #@! TO.N,/RF_DATA*
X144000000Y-74000000D03*
G04 #@! TD*
D15*
G04 #@! TO.P,Y1,1*
G04 #@! TO.N,Net-(C2-Pad1)*
X135000000Y-85250000D03*
G04 #@! TO.P,Y1,2*
G04 #@! TO.N,Net-(C3-Pad1)*
X135000000Y-76750000D03*
G04 #@! TD*
D11*
G04 #@! TO.N,Net-(C1-Pad1)*
G04 #@! TO.C,L1*
G36*
X151480142Y-81513674D02*
X151503803Y-81517184D01*
X151527007Y-81522996D01*
X151549529Y-81531054D01*
X151571153Y-81541282D01*
X151591670Y-81553579D01*
X151610883Y-81567829D01*
X151628607Y-81583893D01*
X151644671Y-81601617D01*
X151658921Y-81620830D01*
X151671218Y-81641347D01*
X151681446Y-81662971D01*
X151689504Y-81685493D01*
X151695316Y-81708697D01*
X151698826Y-81732358D01*
X151700000Y-81756250D01*
X151700000Y-82243750D01*
X151698826Y-82267642D01*
X151695316Y-82291303D01*
X151689504Y-82314507D01*
X151681446Y-82337029D01*
X151671218Y-82358653D01*
X151658921Y-82379170D01*
X151644671Y-82398383D01*
X151628607Y-82416107D01*
X151610883Y-82432171D01*
X151591670Y-82446421D01*
X151571153Y-82458718D01*
X151549529Y-82468946D01*
X151527007Y-82477004D01*
X151503803Y-82482816D01*
X151480142Y-82486326D01*
X151456250Y-82487500D01*
X150543750Y-82487500D01*
X150519858Y-82486326D01*
X150496197Y-82482816D01*
X150472993Y-82477004D01*
X150450471Y-82468946D01*
X150428847Y-82458718D01*
X150408330Y-82446421D01*
X150389117Y-82432171D01*
X150371393Y-82416107D01*
X150355329Y-82398383D01*
X150341079Y-82379170D01*
X150328782Y-82358653D01*
X150318554Y-82337029D01*
X150310496Y-82314507D01*
X150304684Y-82291303D01*
X150301174Y-82267642D01*
X150300000Y-82243750D01*
X150300000Y-81756250D01*
X150301174Y-81732358D01*
X150304684Y-81708697D01*
X150310496Y-81685493D01*
X150318554Y-81662971D01*
X150328782Y-81641347D01*
X150341079Y-81620830D01*
X150355329Y-81601617D01*
X150371393Y-81583893D01*
X150389117Y-81567829D01*
X150408330Y-81553579D01*
X150428847Y-81541282D01*
X150450471Y-81531054D01*
X150472993Y-81522996D01*
X150496197Y-81517184D01*
X150519858Y-81513674D01*
X150543750Y-81512500D01*
X151456250Y-81512500D01*
X151480142Y-81513674D01*
X151480142Y-81513674D01*
G37*
D12*
G04 #@! TD*
G04 #@! TO.P,L1,2*
G04 #@! TO.N,Net-(C1-Pad1)*
X151000000Y-82000000D03*
D11*
G04 #@! TO.N,GND*
G04 #@! TO.C,L1*
G36*
X151480142Y-79638674D02*
X151503803Y-79642184D01*
X151527007Y-79647996D01*
X151549529Y-79656054D01*
X151571153Y-79666282D01*
X151591670Y-79678579D01*
X151610883Y-79692829D01*
X151628607Y-79708893D01*
X151644671Y-79726617D01*
X151658921Y-79745830D01*
X151671218Y-79766347D01*
X151681446Y-79787971D01*
X151689504Y-79810493D01*
X151695316Y-79833697D01*
X151698826Y-79857358D01*
X151700000Y-79881250D01*
X151700000Y-80368750D01*
X151698826Y-80392642D01*
X151695316Y-80416303D01*
X151689504Y-80439507D01*
X151681446Y-80462029D01*
X151671218Y-80483653D01*
X151658921Y-80504170D01*
X151644671Y-80523383D01*
X151628607Y-80541107D01*
X151610883Y-80557171D01*
X151591670Y-80571421D01*
X151571153Y-80583718D01*
X151549529Y-80593946D01*
X151527007Y-80602004D01*
X151503803Y-80607816D01*
X151480142Y-80611326D01*
X151456250Y-80612500D01*
X150543750Y-80612500D01*
X150519858Y-80611326D01*
X150496197Y-80607816D01*
X150472993Y-80602004D01*
X150450471Y-80593946D01*
X150428847Y-80583718D01*
X150408330Y-80571421D01*
X150389117Y-80557171D01*
X150371393Y-80541107D01*
X150355329Y-80523383D01*
X150341079Y-80504170D01*
X150328782Y-80483653D01*
X150318554Y-80462029D01*
X150310496Y-80439507D01*
X150304684Y-80416303D01*
X150301174Y-80392642D01*
X150300000Y-80368750D01*
X150300000Y-79881250D01*
X150301174Y-79857358D01*
X150304684Y-79833697D01*
X150310496Y-79810493D01*
X150318554Y-79787971D01*
X150328782Y-79766347D01*
X150341079Y-79745830D01*
X150355329Y-79726617D01*
X150371393Y-79708893D01*
X150389117Y-79692829D01*
X150408330Y-79678579D01*
X150428847Y-79666282D01*
X150450471Y-79656054D01*
X150472993Y-79647996D01*
X150496197Y-79642184D01*
X150519858Y-79638674D01*
X150543750Y-79637500D01*
X151456250Y-79637500D01*
X151480142Y-79638674D01*
X151480142Y-79638674D01*
G37*
D12*
G04 #@! TD*
G04 #@! TO.P,L1,1*
G04 #@! TO.N,GND*
X151000000Y-80125000D03*
D11*
G04 #@! TO.N,Net-(L2-Pad1)*
G04 #@! TO.C,L2*
G36*
X151480142Y-86451174D02*
X151503803Y-86454684D01*
X151527007Y-86460496D01*
X151549529Y-86468554D01*
X151571153Y-86478782D01*
X151591670Y-86491079D01*
X151610883Y-86505329D01*
X151628607Y-86521393D01*
X151644671Y-86539117D01*
X151658921Y-86558330D01*
X151671218Y-86578847D01*
X151681446Y-86600471D01*
X151689504Y-86622993D01*
X151695316Y-86646197D01*
X151698826Y-86669858D01*
X151700000Y-86693750D01*
X151700000Y-87181250D01*
X151698826Y-87205142D01*
X151695316Y-87228803D01*
X151689504Y-87252007D01*
X151681446Y-87274529D01*
X151671218Y-87296153D01*
X151658921Y-87316670D01*
X151644671Y-87335883D01*
X151628607Y-87353607D01*
X151610883Y-87369671D01*
X151591670Y-87383921D01*
X151571153Y-87396218D01*
X151549529Y-87406446D01*
X151527007Y-87414504D01*
X151503803Y-87420316D01*
X151480142Y-87423826D01*
X151456250Y-87425000D01*
X150543750Y-87425000D01*
X150519858Y-87423826D01*
X150496197Y-87420316D01*
X150472993Y-87414504D01*
X150450471Y-87406446D01*
X150428847Y-87396218D01*
X150408330Y-87383921D01*
X150389117Y-87369671D01*
X150371393Y-87353607D01*
X150355329Y-87335883D01*
X150341079Y-87316670D01*
X150328782Y-87296153D01*
X150318554Y-87274529D01*
X150310496Y-87252007D01*
X150304684Y-87228803D01*
X150301174Y-87205142D01*
X150300000Y-87181250D01*
X150300000Y-86693750D01*
X150301174Y-86669858D01*
X150304684Y-86646197D01*
X150310496Y-86622993D01*
X150318554Y-86600471D01*
X150328782Y-86578847D01*
X150341079Y-86558330D01*
X150355329Y-86539117D01*
X150371393Y-86521393D01*
X150389117Y-86505329D01*
X150408330Y-86491079D01*
X150428847Y-86478782D01*
X150450471Y-86468554D01*
X150472993Y-86460496D01*
X150496197Y-86454684D01*
X150519858Y-86451174D01*
X150543750Y-86450000D01*
X151456250Y-86450000D01*
X151480142Y-86451174D01*
X151480142Y-86451174D01*
G37*
D12*
G04 #@! TD*
G04 #@! TO.P,L2,1*
G04 #@! TO.N,Net-(L2-Pad1)*
X151000000Y-86937500D03*
D11*
G04 #@! TO.N,Net-(L2-Pad2)*
G04 #@! TO.C,L2*
G36*
X151480142Y-84576174D02*
X151503803Y-84579684D01*
X151527007Y-84585496D01*
X151549529Y-84593554D01*
X151571153Y-84603782D01*
X151591670Y-84616079D01*
X151610883Y-84630329D01*
X151628607Y-84646393D01*
X151644671Y-84664117D01*
X151658921Y-84683330D01*
X151671218Y-84703847D01*
X151681446Y-84725471D01*
X151689504Y-84747993D01*
X151695316Y-84771197D01*
X151698826Y-84794858D01*
X151700000Y-84818750D01*
X151700000Y-85306250D01*
X151698826Y-85330142D01*
X151695316Y-85353803D01*
X151689504Y-85377007D01*
X151681446Y-85399529D01*
X151671218Y-85421153D01*
X151658921Y-85441670D01*
X151644671Y-85460883D01*
X151628607Y-85478607D01*
X151610883Y-85494671D01*
X151591670Y-85508921D01*
X151571153Y-85521218D01*
X151549529Y-85531446D01*
X151527007Y-85539504D01*
X151503803Y-85545316D01*
X151480142Y-85548826D01*
X151456250Y-85550000D01*
X150543750Y-85550000D01*
X150519858Y-85548826D01*
X150496197Y-85545316D01*
X150472993Y-85539504D01*
X150450471Y-85531446D01*
X150428847Y-85521218D01*
X150408330Y-85508921D01*
X150389117Y-85494671D01*
X150371393Y-85478607D01*
X150355329Y-85460883D01*
X150341079Y-85441670D01*
X150328782Y-85421153D01*
X150318554Y-85399529D01*
X150310496Y-85377007D01*
X150304684Y-85353803D01*
X150301174Y-85330142D01*
X150300000Y-85306250D01*
X150300000Y-84818750D01*
X150301174Y-84794858D01*
X150304684Y-84771197D01*
X150310496Y-84747993D01*
X150318554Y-84725471D01*
X150328782Y-84703847D01*
X150341079Y-84683330D01*
X150355329Y-84664117D01*
X150371393Y-84646393D01*
X150389117Y-84630329D01*
X150408330Y-84616079D01*
X150428847Y-84603782D01*
X150450471Y-84593554D01*
X150472993Y-84585496D01*
X150496197Y-84579684D01*
X150519858Y-84576174D01*
X150543750Y-84575000D01*
X151456250Y-84575000D01*
X151480142Y-84576174D01*
X151480142Y-84576174D01*
G37*
D12*
G04 #@! TD*
G04 #@! TO.P,L2,2*
G04 #@! TO.N,Net-(L2-Pad2)*
X151000000Y-85062500D03*
D11*
G04 #@! TO.N,GND*
G04 #@! TO.C,D1*
G36*
X160142642Y-75301174D02*
X160166303Y-75304684D01*
X160189507Y-75310496D01*
X160212029Y-75318554D01*
X160233653Y-75328782D01*
X160254170Y-75341079D01*
X160273383Y-75355329D01*
X160291107Y-75371393D01*
X160307171Y-75389117D01*
X160321421Y-75408330D01*
X160333718Y-75428847D01*
X160343946Y-75450471D01*
X160352004Y-75472993D01*
X160357816Y-75496197D01*
X160361326Y-75519858D01*
X160362500Y-75543750D01*
X160362500Y-76456250D01*
X160361326Y-76480142D01*
X160357816Y-76503803D01*
X160352004Y-76527007D01*
X160343946Y-76549529D01*
X160333718Y-76571153D01*
X160321421Y-76591670D01*
X160307171Y-76610883D01*
X160291107Y-76628607D01*
X160273383Y-76644671D01*
X160254170Y-76658921D01*
X160233653Y-76671218D01*
X160212029Y-76681446D01*
X160189507Y-76689504D01*
X160166303Y-76695316D01*
X160142642Y-76698826D01*
X160118750Y-76700000D01*
X159631250Y-76700000D01*
X159607358Y-76698826D01*
X159583697Y-76695316D01*
X159560493Y-76689504D01*
X159537971Y-76681446D01*
X159516347Y-76671218D01*
X159495830Y-76658921D01*
X159476617Y-76644671D01*
X159458893Y-76628607D01*
X159442829Y-76610883D01*
X159428579Y-76591670D01*
X159416282Y-76571153D01*
X159406054Y-76549529D01*
X159397996Y-76527007D01*
X159392184Y-76503803D01*
X159388674Y-76480142D01*
X159387500Y-76456250D01*
X159387500Y-75543750D01*
X159388674Y-75519858D01*
X159392184Y-75496197D01*
X159397996Y-75472993D01*
X159406054Y-75450471D01*
X159416282Y-75428847D01*
X159428579Y-75408330D01*
X159442829Y-75389117D01*
X159458893Y-75371393D01*
X159476617Y-75355329D01*
X159495830Y-75341079D01*
X159516347Y-75328782D01*
X159537971Y-75318554D01*
X159560493Y-75310496D01*
X159583697Y-75304684D01*
X159607358Y-75301174D01*
X159631250Y-75300000D01*
X160118750Y-75300000D01*
X160142642Y-75301174D01*
X160142642Y-75301174D01*
G37*
D12*
G04 #@! TD*
G04 #@! TO.P,D1,1*
G04 #@! TO.N,GND*
X159875000Y-76000000D03*
D11*
G04 #@! TO.N,Net-(D1-Pad2)*
G04 #@! TO.C,D1*
G36*
X158267642Y-75301174D02*
X158291303Y-75304684D01*
X158314507Y-75310496D01*
X158337029Y-75318554D01*
X158358653Y-75328782D01*
X158379170Y-75341079D01*
X158398383Y-75355329D01*
X158416107Y-75371393D01*
X158432171Y-75389117D01*
X158446421Y-75408330D01*
X158458718Y-75428847D01*
X158468946Y-75450471D01*
X158477004Y-75472993D01*
X158482816Y-75496197D01*
X158486326Y-75519858D01*
X158487500Y-75543750D01*
X158487500Y-76456250D01*
X158486326Y-76480142D01*
X158482816Y-76503803D01*
X158477004Y-76527007D01*
X158468946Y-76549529D01*
X158458718Y-76571153D01*
X158446421Y-76591670D01*
X158432171Y-76610883D01*
X158416107Y-76628607D01*
X158398383Y-76644671D01*
X158379170Y-76658921D01*
X158358653Y-76671218D01*
X158337029Y-76681446D01*
X158314507Y-76689504D01*
X158291303Y-76695316D01*
X158267642Y-76698826D01*
X158243750Y-76700000D01*
X157756250Y-76700000D01*
X157732358Y-76698826D01*
X157708697Y-76695316D01*
X157685493Y-76689504D01*
X157662971Y-76681446D01*
X157641347Y-76671218D01*
X157620830Y-76658921D01*
X157601617Y-76644671D01*
X157583893Y-76628607D01*
X157567829Y-76610883D01*
X157553579Y-76591670D01*
X157541282Y-76571153D01*
X157531054Y-76549529D01*
X157522996Y-76527007D01*
X157517184Y-76503803D01*
X157513674Y-76480142D01*
X157512500Y-76456250D01*
X157512500Y-75543750D01*
X157513674Y-75519858D01*
X157517184Y-75496197D01*
X157522996Y-75472993D01*
X157531054Y-75450471D01*
X157541282Y-75428847D01*
X157553579Y-75408330D01*
X157567829Y-75389117D01*
X157583893Y-75371393D01*
X157601617Y-75355329D01*
X157620830Y-75341079D01*
X157641347Y-75328782D01*
X157662971Y-75318554D01*
X157685493Y-75310496D01*
X157708697Y-75304684D01*
X157732358Y-75301174D01*
X157756250Y-75300000D01*
X158243750Y-75300000D01*
X158267642Y-75301174D01*
X158267642Y-75301174D01*
G37*
D12*
G04 #@! TD*
G04 #@! TO.P,D1,2*
G04 #@! TO.N,Net-(D1-Pad2)*
X158000000Y-76000000D03*
D10*
G04 #@! TO.P,U1,1*
G04 #@! TO.N,Net-(L2-Pad1)*
X147700000Y-86445000D03*
G04 #@! TO.P,U1,2*
G04 #@! TO.N,Net-(L2-Pad2)*
X147700000Y-85175000D03*
G04 #@! TO.P,U1,3*
G04 #@! TO.N,GND*
X147700000Y-83905000D03*
G04 #@! TO.P,U1,4*
G04 #@! TO.N,Net-(C1-Pad1)*
X147700000Y-82635000D03*
G04 #@! TO.P,U1,5*
G04 #@! TO.N,GND*
X147700000Y-81365000D03*
G04 #@! TO.P,U1,6*
G04 #@! TO.N,+3V3*
X147700000Y-80095000D03*
G04 #@! TO.P,U1,7*
G04 #@! TO.N,/RF_CSB*
X147700000Y-78825000D03*
G04 #@! TO.P,U1,8*
G04 #@! TO.N,/RF_SDA*
X147700000Y-77555000D03*
G04 #@! TO.P,U1,9*
G04 #@! TO.N,/RF_SCL*
X142300000Y-77555000D03*
G04 #@! TO.P,U1,10*
G04 #@! TO.N,N/C*
X142300000Y-78825000D03*
G04 #@! TO.P,U1,11*
G04 #@! TO.N,/RF_DATA*
X142300000Y-80095000D03*
G04 #@! TO.P,U1,12*
G04 #@! TO.N,Net-(U1-Pad12)*
X142300000Y-81365000D03*
G04 #@! TO.P,U1,13*
G04 #@! TO.N,Net-(C3-Pad1)*
X142300000Y-82635000D03*
G04 #@! TO.P,U1,14*
G04 #@! TO.N,Net-(C2-Pad1)*
X142300000Y-83905000D03*
G04 #@! TO.P,U1,15*
G04 #@! TO.N,N/C*
X142300000Y-85175000D03*
G04 #@! TO.P,U1,16*
G04 #@! TO.N,Net-(U1-Pad16)*
X142300000Y-86445000D03*
G04 #@! TD*
D16*
G04 #@! TO.P,U2,1*
G04 #@! TO.N,+5V*
X119000000Y-73000000D03*
G04 #@! TO.P,U2,2*
G04 #@! TO.N,GND*
X119000000Y-73950000D03*
G04 #@! TO.P,U2,3*
G04 #@! TO.N,+5V*
X119000000Y-74900000D03*
G04 #@! TO.P,U2,4*
G04 #@! TO.N,Net-(C6-Pad1)*
X121200000Y-74900000D03*
G04 #@! TO.P,U2,5*
G04 #@! TO.N,+3V3*
X121200000Y-73000000D03*
G04 #@! TD*
D11*
G04 #@! TO.N,/LED*
G04 #@! TO.C,R1*
G36*
X154392642Y-75301174D02*
X154416303Y-75304684D01*
X154439507Y-75310496D01*
X154462029Y-75318554D01*
X154483653Y-75328782D01*
X154504170Y-75341079D01*
X154523383Y-75355329D01*
X154541107Y-75371393D01*
X154557171Y-75389117D01*
X154571421Y-75408330D01*
X154583718Y-75428847D01*
X154593946Y-75450471D01*
X154602004Y-75472993D01*
X154607816Y-75496197D01*
X154611326Y-75519858D01*
X154612500Y-75543750D01*
X154612500Y-76456250D01*
X154611326Y-76480142D01*
X154607816Y-76503803D01*
X154602004Y-76527007D01*
X154593946Y-76549529D01*
X154583718Y-76571153D01*
X154571421Y-76591670D01*
X154557171Y-76610883D01*
X154541107Y-76628607D01*
X154523383Y-76644671D01*
X154504170Y-76658921D01*
X154483653Y-76671218D01*
X154462029Y-76681446D01*
X154439507Y-76689504D01*
X154416303Y-76695316D01*
X154392642Y-76698826D01*
X154368750Y-76700000D01*
X153881250Y-76700000D01*
X153857358Y-76698826D01*
X153833697Y-76695316D01*
X153810493Y-76689504D01*
X153787971Y-76681446D01*
X153766347Y-76671218D01*
X153745830Y-76658921D01*
X153726617Y-76644671D01*
X153708893Y-76628607D01*
X153692829Y-76610883D01*
X153678579Y-76591670D01*
X153666282Y-76571153D01*
X153656054Y-76549529D01*
X153647996Y-76527007D01*
X153642184Y-76503803D01*
X153638674Y-76480142D01*
X153637500Y-76456250D01*
X153637500Y-75543750D01*
X153638674Y-75519858D01*
X153642184Y-75496197D01*
X153647996Y-75472993D01*
X153656054Y-75450471D01*
X153666282Y-75428847D01*
X153678579Y-75408330D01*
X153692829Y-75389117D01*
X153708893Y-75371393D01*
X153726617Y-75355329D01*
X153745830Y-75341079D01*
X153766347Y-75328782D01*
X153787971Y-75318554D01*
X153810493Y-75310496D01*
X153833697Y-75304684D01*
X153857358Y-75301174D01*
X153881250Y-75300000D01*
X154368750Y-75300000D01*
X154392642Y-75301174D01*
X154392642Y-75301174D01*
G37*
D12*
G04 #@! TD*
G04 #@! TO.P,R1,1*
G04 #@! TO.N,/LED*
X154125000Y-76000000D03*
D11*
G04 #@! TO.N,Net-(D1-Pad2)*
G04 #@! TO.C,R1*
G36*
X156267642Y-75301174D02*
X156291303Y-75304684D01*
X156314507Y-75310496D01*
X156337029Y-75318554D01*
X156358653Y-75328782D01*
X156379170Y-75341079D01*
X156398383Y-75355329D01*
X156416107Y-75371393D01*
X156432171Y-75389117D01*
X156446421Y-75408330D01*
X156458718Y-75428847D01*
X156468946Y-75450471D01*
X156477004Y-75472993D01*
X156482816Y-75496197D01*
X156486326Y-75519858D01*
X156487500Y-75543750D01*
X156487500Y-76456250D01*
X156486326Y-76480142D01*
X156482816Y-76503803D01*
X156477004Y-76527007D01*
X156468946Y-76549529D01*
X156458718Y-76571153D01*
X156446421Y-76591670D01*
X156432171Y-76610883D01*
X156416107Y-76628607D01*
X156398383Y-76644671D01*
X156379170Y-76658921D01*
X156358653Y-76671218D01*
X156337029Y-76681446D01*
X156314507Y-76689504D01*
X156291303Y-76695316D01*
X156267642Y-76698826D01*
X156243750Y-76700000D01*
X155756250Y-76700000D01*
X155732358Y-76698826D01*
X155708697Y-76695316D01*
X155685493Y-76689504D01*
X155662971Y-76681446D01*
X155641347Y-76671218D01*
X155620830Y-76658921D01*
X155601617Y-76644671D01*
X155583893Y-76628607D01*
X155567829Y-76610883D01*
X155553579Y-76591670D01*
X155541282Y-76571153D01*
X155531054Y-76549529D01*
X155522996Y-76527007D01*
X155517184Y-76503803D01*
X155513674Y-76480142D01*
X155512500Y-76456250D01*
X155512500Y-75543750D01*
X155513674Y-75519858D01*
X155517184Y-75496197D01*
X155522996Y-75472993D01*
X155531054Y-75450471D01*
X155541282Y-75428847D01*
X155553579Y-75408330D01*
X155567829Y-75389117D01*
X155583893Y-75371393D01*
X155601617Y-75355329D01*
X155620830Y-75341079D01*
X155641347Y-75328782D01*
X155662971Y-75318554D01*
X155685493Y-75310496D01*
X155708697Y-75304684D01*
X155732358Y-75301174D01*
X155756250Y-75300000D01*
X156243750Y-75300000D01*
X156267642Y-75301174D01*
X156267642Y-75301174D01*
G37*
D12*
G04 #@! TD*
G04 #@! TO.P,R1,2*
G04 #@! TO.N,Net-(D1-Pad2)*
X156000000Y-76000000D03*
D17*
G04 #@! TO.P,X1,1*
G04 #@! TO.N,/SWDIO*
X114540000Y-87000000D03*
G04 #@! TO.P,X1,2*
G04 #@! TO.N,GND*
X112000000Y-87000000D03*
G04 #@! TO.P,X1,3*
G04 #@! TO.N,/SWCLK*
X109460000Y-87000000D03*
G04 #@! TD*
D18*
G04 #@! TO.P,J1,6*
G04 #@! TO.N,GND*
X110000000Y-77801120D03*
X110000000Y-80198880D03*
X110000000Y-82949700D03*
X110000000Y-75050300D03*
D19*
G04 #@! TO.P,J1,1*
G04 #@! TO.N,+5V*
X113000000Y-77699520D03*
G04 #@! TO.P,J1,2*
G04 #@! TO.N,/USB_DM*
X113000000Y-78352300D03*
G04 #@! TO.P,J1,3*
G04 #@! TO.N,/USB_DP*
X113000000Y-79000000D03*
G04 #@! TO.P,J1,4*
G04 #@! TO.N,Net-(J1-Pad4)*
X113000000Y-79647700D03*
G04 #@! TO.P,J1,5*
G04 #@! TO.N,GND*
X113000000Y-80300480D03*
D20*
X112146300Y-80897380D03*
G04 #@! TO.P,J1,1*
G04 #@! TO.N,+5V*
X112148840Y-77100080D03*
G04 #@! TD*
D21*
G04 #@! TO.N,GND*
X127000000Y-73000000D03*
X127000000Y-75000000D03*
X110000000Y-73500000D03*
X110000000Y-84500000D03*
X114000000Y-81500000D03*
X114000000Y-82500000D03*
X114000000Y-83500000D03*
X159500000Y-73500000D03*
X152000000Y-79500000D03*
X152000000Y-75500000D03*
X139000000Y-84000000D03*
X149750000Y-83500000D03*
X118500000Y-76750000D03*
X117300000Y-73950000D03*
X130810000Y-76200000D03*
X120015000Y-81915000D03*
G04 #@! TO.N,/SWDIO*
X117467859Y-80407461D03*
X119757666Y-78205009D03*
G04 #@! TO.N,/SWCLK*
X115570000Y-80010000D03*
X118745000Y-78105000D03*
G04 #@! TO.N,+3V3*
X124502183Y-78285011D03*
X124460000Y-76654988D03*
G04 #@! TO.N,/RF_CSB*
X144780000Y-86360000D03*
X130810000Y-86360000D03*
G04 #@! TO.N,/RF_SCL*
X144145000Y-79375000D03*
X126365000Y-80645000D03*
G04 #@! TO.N,/RF_DATA*
X140335000Y-79375000D03*
X126365000Y-79375000D03*
G04 #@! TD*
D22*
G04 #@! TO.N,GND*
X125875000Y-75000000D02*
X125875000Y-73000000D01*
X125875000Y-73000000D02*
X127000000Y-73000000D01*
X125875000Y-75000000D02*
X127000000Y-75000000D01*
X110000000Y-75050300D02*
X110000000Y-77801120D01*
X110000000Y-80198880D02*
X110000000Y-77801120D01*
X110000000Y-82949700D02*
X110000000Y-80198880D01*
X110000000Y-75050300D02*
X110000000Y-73500000D01*
X110000000Y-82949700D02*
X110000000Y-84500000D01*
X112743200Y-80300480D02*
X112146300Y-80897380D01*
X113000000Y-80300480D02*
X112743200Y-80300480D01*
X113000000Y-80300480D02*
X113800480Y-80300480D01*
X113800480Y-80300480D02*
X114000000Y-80500000D01*
X114000000Y-80500000D02*
X114000000Y-81500000D01*
X114000000Y-81500000D02*
X114000000Y-82500000D01*
X114000000Y-82500000D02*
X114000000Y-83500000D01*
X159875000Y-76000000D02*
X159875000Y-73875000D01*
X159875000Y-73875000D02*
X159500000Y-73500000D01*
X151000000Y-80125000D02*
X151625000Y-79500000D01*
X151625000Y-79500000D02*
X152000000Y-79500000D01*
X151556237Y-75506263D02*
X151993737Y-75506263D01*
X151000000Y-76062500D02*
X151556237Y-75506263D01*
X151993737Y-75506263D02*
X152000000Y-75500000D01*
X148635000Y-81365000D02*
X149875000Y-80125000D01*
X149875000Y-80125000D02*
X151000000Y-80125000D01*
X147700000Y-81365000D02*
X148635000Y-81365000D01*
X139000000Y-82937500D02*
X139000000Y-84000000D01*
X139000000Y-84000000D02*
X139000000Y-85062500D01*
X148700000Y-83905000D02*
X149105000Y-83500000D01*
X147700000Y-83905000D02*
X148700000Y-83905000D01*
X149105000Y-83500000D02*
X149750000Y-83500000D01*
X117587500Y-77000000D02*
X117837500Y-76750000D01*
X117000000Y-77000000D02*
X117587500Y-77000000D01*
X117837500Y-76750000D02*
X118500000Y-76750000D01*
X119000000Y-73950000D02*
X117300000Y-73950000D01*
X130810000Y-77167500D02*
X130810000Y-76200000D01*
X122395000Y-81915000D02*
X120015000Y-81915000D01*
G04 #@! TO.N,+5V*
X112748280Y-77699520D02*
X112148840Y-77100080D01*
X113000000Y-77699520D02*
X112748280Y-77699520D01*
X115000000Y-73000000D02*
X118220000Y-73000000D01*
X113000000Y-75000000D02*
X115000000Y-73000000D01*
X118220000Y-73000000D02*
X119000000Y-73000000D01*
X113000000Y-77699520D02*
X113000000Y-75000000D01*
X113100000Y-74900000D02*
X113000000Y-75000000D01*
X119000000Y-74900000D02*
X113100000Y-74900000D01*
G04 #@! TO.N,/USB_DM*
X121395000Y-79375000D02*
X122395000Y-79375000D01*
X117088710Y-78352300D02*
X118111410Y-79375000D01*
X113000000Y-78352300D02*
X117088710Y-78352300D01*
X118111410Y-79375000D02*
X121395000Y-79375000D01*
G04 #@! TO.N,/USB_DP*
X121395000Y-80645000D02*
X122395000Y-80645000D01*
X118745000Y-80645000D02*
X121395000Y-80645000D01*
X117100000Y-79000000D02*
X118745000Y-80645000D01*
X113000000Y-79000000D02*
X117100000Y-79000000D01*
G04 #@! TO.N,/SWDIO*
X117467859Y-80973146D02*
X117467859Y-80407461D01*
X117467859Y-84072141D02*
X117467859Y-80973146D01*
X114540000Y-87000000D02*
X117467859Y-84072141D01*
X119857675Y-78105000D02*
X119757666Y-78205009D01*
X122395000Y-78105000D02*
X119857675Y-78105000D01*
G04 #@! TO.N,/SWCLK*
X109460000Y-87000000D02*
X111370000Y-85090000D01*
X111370000Y-85090000D02*
X114935000Y-85090000D01*
X114935000Y-85090000D02*
X115570000Y-84455000D01*
X115570000Y-84455000D02*
X115570000Y-80010000D01*
X126795000Y-78105000D02*
X127795000Y-78105000D01*
X126069998Y-77379998D02*
X126795000Y-78105000D01*
X119470002Y-77379998D02*
X126069998Y-77379998D01*
X118745000Y-78105000D02*
X119470002Y-77379998D01*
G04 #@! TO.N,/LED*
X154109999Y-87825001D02*
X130895001Y-87825001D01*
X128795000Y-85725000D02*
X127795000Y-85725000D01*
X154125000Y-76000000D02*
X154125000Y-76800000D01*
X154925791Y-77600791D02*
X154925791Y-87009209D01*
X130895001Y-87825001D02*
X128795000Y-85725000D01*
X154125000Y-76800000D02*
X154925791Y-77600791D01*
X154925791Y-87009209D02*
X154109999Y-87825001D01*
G04 #@! TO.N,Net-(D1-Pad2)*
X158000000Y-76000000D02*
X156000000Y-76000000D01*
G04 #@! TO.N,Net-(C6-Pad1)*
X123900000Y-74900000D02*
X124000000Y-75000000D01*
X121200000Y-74900000D02*
X123900000Y-74900000D01*
G04 #@! TO.N,+3V3*
X115125000Y-77060000D02*
X115125000Y-77000000D01*
X121200000Y-73000000D02*
X124000000Y-73000000D01*
X150562500Y-77937500D02*
X151000000Y-77937500D01*
X148405000Y-80095000D02*
X150562500Y-77937500D01*
X147700000Y-80095000D02*
X148405000Y-80095000D01*
X151000000Y-77937500D02*
X149225000Y-76162500D01*
X149225000Y-76162500D02*
X149225000Y-72390000D01*
X149225000Y-72390000D02*
X148590000Y-71755000D01*
X125245000Y-71755000D02*
X148590000Y-71755000D01*
X124000000Y-73000000D02*
X125245000Y-71755000D01*
X124502183Y-78850696D02*
X124502183Y-78285011D01*
X122395000Y-83185000D02*
X122845000Y-83185000D01*
X124460000Y-78892879D02*
X124502183Y-78850696D01*
X122845000Y-83185000D02*
X124460000Y-81570000D01*
X124460000Y-81570000D02*
X124460000Y-78892879D01*
X124859999Y-73859999D02*
X124859999Y-76254989D01*
X124859999Y-76254989D02*
X124460000Y-76654988D01*
X124000000Y-73000000D02*
X124859999Y-73859999D01*
X115681237Y-76443763D02*
X115125000Y-77000000D01*
X116375000Y-75750000D02*
X115681237Y-76443763D01*
X119590002Y-75750000D02*
X116375000Y-75750000D01*
X121200000Y-73000000D02*
X120420000Y-73000000D01*
X120420000Y-73000000D02*
X119855001Y-73564999D01*
X119855001Y-75485001D02*
X119590002Y-75750000D01*
X119855001Y-73564999D02*
X119855001Y-75485001D01*
G04 #@! TO.N,Net-(L2-Pad1)*
X150507500Y-86445000D02*
X151000000Y-86937500D01*
X147700000Y-86445000D02*
X150507500Y-86445000D01*
G04 #@! TO.N,Net-(L2-Pad2)*
X150887500Y-85175000D02*
X151000000Y-85062500D01*
X147700000Y-85175000D02*
X150887500Y-85175000D01*
G04 #@! TO.N,Net-(C1-Pad1)*
X150365000Y-82635000D02*
X151000000Y-82000000D01*
X147700000Y-82635000D02*
X150365000Y-82635000D01*
X151000000Y-82000000D02*
X154000000Y-82000000D01*
G04 #@! TO.N,/RF_CSB*
X147250000Y-78825000D02*
X144780000Y-81295000D01*
X147700000Y-78825000D02*
X147250000Y-78825000D01*
X144780000Y-81295000D02*
X144780000Y-86360000D01*
X123395000Y-85725000D02*
X124030000Y-85090000D01*
X122395000Y-85725000D02*
X123395000Y-85725000D01*
X129540000Y-85090000D02*
X130810000Y-86360000D01*
X124030000Y-85090000D02*
X129540000Y-85090000D01*
G04 #@! TO.N,/RF_SDA*
X140826851Y-83260001D02*
X143310001Y-83260001D01*
X147250000Y-77555000D02*
X147700000Y-77555000D01*
X143310001Y-83260001D02*
X143694989Y-82875013D01*
X143694989Y-81110011D02*
X147250000Y-77555000D01*
X143694989Y-82875013D02*
X143694989Y-81110011D01*
X140826851Y-83260001D02*
X139481850Y-81915000D01*
X139481850Y-81915000D02*
X129540000Y-81915000D01*
X129540000Y-81915000D02*
X127795000Y-81915000D01*
G04 #@! TO.N,/RF_SCL*
X126365000Y-80645000D02*
X127795000Y-80645000D01*
X144145000Y-78105000D02*
X144145000Y-79375000D01*
X143595000Y-77555000D02*
X144145000Y-78105000D01*
X142300000Y-77555000D02*
X143595000Y-77555000D01*
G04 #@! TO.N,/RF_DATA*
X142300000Y-80095000D02*
X141055000Y-80095000D01*
X141055000Y-80095000D02*
X140335000Y-79375000D01*
X140335000Y-77665000D02*
X140335000Y-79375000D01*
X144000000Y-74000000D02*
X140335000Y-77665000D01*
X125095000Y-82205000D02*
X122845000Y-84455000D01*
X125095000Y-80645000D02*
X125095000Y-82205000D01*
X122845000Y-84455000D02*
X122395000Y-84455000D01*
X126365000Y-79375000D02*
X125095000Y-80645000D01*
G04 #@! TO.N,Net-(C3-Pad1)*
X138200000Y-81062500D02*
X139000000Y-81062500D01*
X138062500Y-81062500D02*
X138200000Y-81062500D01*
X135000000Y-78000000D02*
X138062500Y-81062500D01*
X135000000Y-76750000D02*
X135000000Y-78000000D01*
X139562500Y-81062500D02*
X139000000Y-81062500D01*
X141135000Y-82635000D02*
X139562500Y-81062500D01*
X142300000Y-82635000D02*
X141135000Y-82635000D01*
G04 #@! TO.N,Net-(C2-Pad1)*
X137937500Y-86937500D02*
X139000000Y-86937500D01*
X136250000Y-85250000D02*
X137937500Y-86937500D01*
X135000000Y-85250000D02*
X136250000Y-85250000D01*
X139562500Y-86937500D02*
X139000000Y-86937500D01*
X142300000Y-83905000D02*
X141095000Y-83905000D01*
X140500000Y-86000000D02*
X139562500Y-86937500D01*
X141095000Y-83905000D02*
X140500000Y-84500000D01*
X140500000Y-84500000D02*
X140500000Y-86000000D01*
G04 #@! TO.N,Net-(C5-Pad1)*
X130477500Y-79375000D02*
X130810000Y-79042500D01*
X127795000Y-79375000D02*
X130477500Y-79375000D01*
G04 #@! TO.N,Net-(AE1-Pad1)*
X155875000Y-82000000D02*
X159000000Y-82000000D01*
G04 #@! TD*
M02*
