G04 #@! TF.GenerationSoftware,KiCad,Pcbnew,5.0.2-bee76a0~70~ubuntu16.04.1*
G04 #@! TF.CreationDate,2019-07-30T15:31:50+02:00*
G04 #@! TF.ProjectId,hw-USB-RF,68772d55-5342-42d5-9246-2e6b69636164,rev?*
G04 #@! TF.SameCoordinates,Original*
G04 #@! TF.FileFunction,Soldermask,Top*
G04 #@! TF.FilePolarity,Negative*
%FSLAX46Y46*%
G04 Gerber Fmt 4.6, Leading zero omitted, Abs format (unit mm)*
G04 Created by KiCad (PCBNEW 5.0.2-bee76a0~70~ubuntu16.04.1) date Tue 30 Jul 2019 03:31:50 PM CEST*
%MOMM*%
%LPD*%
G01*
G04 APERTURE LIST*
%ADD10C,0.100000*%
G04 APERTURE END LIST*
D10*
G36*
X109697142Y-86218242D02*
X109845102Y-86279530D01*
X109978258Y-86368502D01*
X110091498Y-86481742D01*
X110180470Y-86614898D01*
X110241758Y-86762858D01*
X110273000Y-86919925D01*
X110273000Y-87080075D01*
X110241758Y-87237142D01*
X110180470Y-87385102D01*
X110091498Y-87518258D01*
X109978258Y-87631498D01*
X109845102Y-87720470D01*
X109697142Y-87781758D01*
X109540075Y-87813000D01*
X109379925Y-87813000D01*
X109222858Y-87781758D01*
X109074898Y-87720470D01*
X108941742Y-87631498D01*
X108828502Y-87518258D01*
X108739530Y-87385102D01*
X108678242Y-87237142D01*
X108647000Y-87080075D01*
X108647000Y-86919925D01*
X108678242Y-86762858D01*
X108739530Y-86614898D01*
X108828502Y-86481742D01*
X108941742Y-86368502D01*
X109074898Y-86279530D01*
X109222858Y-86218242D01*
X109379925Y-86187000D01*
X109540075Y-86187000D01*
X109697142Y-86218242D01*
X109697142Y-86218242D01*
G37*
G36*
X114777142Y-86218242D02*
X114925102Y-86279530D01*
X115058258Y-86368502D01*
X115171498Y-86481742D01*
X115260470Y-86614898D01*
X115321758Y-86762858D01*
X115353000Y-86919925D01*
X115353000Y-87080075D01*
X115321758Y-87237142D01*
X115260470Y-87385102D01*
X115171498Y-87518258D01*
X115058258Y-87631498D01*
X114925102Y-87720470D01*
X114777142Y-87781758D01*
X114620075Y-87813000D01*
X114459925Y-87813000D01*
X114302858Y-87781758D01*
X114154898Y-87720470D01*
X114021742Y-87631498D01*
X113908502Y-87518258D01*
X113819530Y-87385102D01*
X113758242Y-87237142D01*
X113727000Y-87080075D01*
X113727000Y-86919925D01*
X113758242Y-86762858D01*
X113819530Y-86614898D01*
X113908502Y-86481742D01*
X114021742Y-86368502D01*
X114154898Y-86279530D01*
X114302858Y-86218242D01*
X114459925Y-86187000D01*
X114620075Y-86187000D01*
X114777142Y-86218242D01*
X114777142Y-86218242D01*
G37*
G36*
X112237142Y-86218242D02*
X112385102Y-86279530D01*
X112518258Y-86368502D01*
X112631498Y-86481742D01*
X112720470Y-86614898D01*
X112781758Y-86762858D01*
X112813000Y-86919925D01*
X112813000Y-87080075D01*
X112781758Y-87237142D01*
X112720470Y-87385102D01*
X112631498Y-87518258D01*
X112518258Y-87631498D01*
X112385102Y-87720470D01*
X112237142Y-87781758D01*
X112080075Y-87813000D01*
X111919925Y-87813000D01*
X111762858Y-87781758D01*
X111614898Y-87720470D01*
X111481742Y-87631498D01*
X111368502Y-87518258D01*
X111279530Y-87385102D01*
X111218242Y-87237142D01*
X111187000Y-87080075D01*
X111187000Y-86919925D01*
X111218242Y-86762858D01*
X111279530Y-86614898D01*
X111368502Y-86481742D01*
X111481742Y-86368502D01*
X111614898Y-86279530D01*
X111762858Y-86218242D01*
X111919925Y-86187000D01*
X112080075Y-86187000D01*
X112237142Y-86218242D01*
X112237142Y-86218242D01*
G37*
G36*
X136051000Y-87551000D02*
X133949000Y-87551000D01*
X133949000Y-82949000D01*
X136051000Y-82949000D01*
X136051000Y-87551000D01*
X136051000Y-87551000D01*
G37*
G36*
X139584466Y-86403565D02*
X139623137Y-86415296D01*
X139658779Y-86434348D01*
X139690017Y-86459983D01*
X139715652Y-86491221D01*
X139734704Y-86526863D01*
X139746435Y-86565534D01*
X139751000Y-86611888D01*
X139751000Y-87263112D01*
X139746435Y-87309466D01*
X139734704Y-87348137D01*
X139715652Y-87383779D01*
X139690017Y-87415017D01*
X139658779Y-87440652D01*
X139623137Y-87459704D01*
X139584466Y-87471435D01*
X139538112Y-87476000D01*
X138461888Y-87476000D01*
X138415534Y-87471435D01*
X138376863Y-87459704D01*
X138341221Y-87440652D01*
X138309983Y-87415017D01*
X138284348Y-87383779D01*
X138265296Y-87348137D01*
X138253565Y-87309466D01*
X138249000Y-87263112D01*
X138249000Y-86611888D01*
X138253565Y-86565534D01*
X138265296Y-86526863D01*
X138284348Y-86491221D01*
X138309983Y-86459983D01*
X138341221Y-86434348D01*
X138376863Y-86415296D01*
X138415534Y-86403565D01*
X138461888Y-86399000D01*
X139538112Y-86399000D01*
X139584466Y-86403565D01*
X139584466Y-86403565D01*
G37*
G36*
X151584466Y-86403565D02*
X151623137Y-86415296D01*
X151658779Y-86434348D01*
X151690017Y-86459983D01*
X151715652Y-86491221D01*
X151734704Y-86526863D01*
X151746435Y-86565534D01*
X151751000Y-86611888D01*
X151751000Y-87263112D01*
X151746435Y-87309466D01*
X151734704Y-87348137D01*
X151715652Y-87383779D01*
X151690017Y-87415017D01*
X151658779Y-87440652D01*
X151623137Y-87459704D01*
X151584466Y-87471435D01*
X151538112Y-87476000D01*
X150461888Y-87476000D01*
X150415534Y-87471435D01*
X150376863Y-87459704D01*
X150341221Y-87440652D01*
X150309983Y-87415017D01*
X150284348Y-87383779D01*
X150265296Y-87348137D01*
X150253565Y-87309466D01*
X150249000Y-87263112D01*
X150249000Y-86611888D01*
X150253565Y-86565534D01*
X150265296Y-86526863D01*
X150284348Y-86491221D01*
X150309983Y-86459983D01*
X150341221Y-86434348D01*
X150376863Y-86415296D01*
X150415534Y-86403565D01*
X150461888Y-86399000D01*
X151538112Y-86399000D01*
X151584466Y-86403565D01*
X151584466Y-86403565D01*
G37*
G36*
X148501000Y-86796000D02*
X146899000Y-86796000D01*
X146899000Y-86094000D01*
X148501000Y-86094000D01*
X148501000Y-86796000D01*
X148501000Y-86796000D01*
G37*
G36*
X143101000Y-86796000D02*
X141499000Y-86796000D01*
X141499000Y-86094000D01*
X143101000Y-86094000D01*
X143101000Y-86796000D01*
X143101000Y-86796000D01*
G37*
G36*
X123196000Y-86076000D02*
X121594000Y-86076000D01*
X121594000Y-85374000D01*
X123196000Y-85374000D01*
X123196000Y-86076000D01*
X123196000Y-86076000D01*
G37*
G36*
X128596000Y-86076000D02*
X126994000Y-86076000D01*
X126994000Y-85374000D01*
X128596000Y-85374000D01*
X128596000Y-86076000D01*
X128596000Y-86076000D01*
G37*
G36*
X151584466Y-84528565D02*
X151623137Y-84540296D01*
X151658779Y-84559348D01*
X151690017Y-84584983D01*
X151715652Y-84616221D01*
X151734704Y-84651863D01*
X151746435Y-84690534D01*
X151751000Y-84736888D01*
X151751000Y-85388112D01*
X151746435Y-85434466D01*
X151734704Y-85473137D01*
X151715652Y-85508779D01*
X151690017Y-85540017D01*
X151658779Y-85565652D01*
X151623137Y-85584704D01*
X151584466Y-85596435D01*
X151538112Y-85601000D01*
X150461888Y-85601000D01*
X150415534Y-85596435D01*
X150376863Y-85584704D01*
X150341221Y-85565652D01*
X150309983Y-85540017D01*
X150284348Y-85508779D01*
X150265296Y-85473137D01*
X150253565Y-85434466D01*
X150249000Y-85388112D01*
X150249000Y-84736888D01*
X150253565Y-84690534D01*
X150265296Y-84651863D01*
X150284348Y-84616221D01*
X150309983Y-84584983D01*
X150341221Y-84559348D01*
X150376863Y-84540296D01*
X150415534Y-84528565D01*
X150461888Y-84524000D01*
X151538112Y-84524000D01*
X151584466Y-84528565D01*
X151584466Y-84528565D01*
G37*
G36*
X139584466Y-84528565D02*
X139623137Y-84540296D01*
X139658779Y-84559348D01*
X139690017Y-84584983D01*
X139715652Y-84616221D01*
X139734704Y-84651863D01*
X139746435Y-84690534D01*
X139751000Y-84736888D01*
X139751000Y-85388112D01*
X139746435Y-85434466D01*
X139734704Y-85473137D01*
X139715652Y-85508779D01*
X139690017Y-85540017D01*
X139658779Y-85565652D01*
X139623137Y-85584704D01*
X139584466Y-85596435D01*
X139538112Y-85601000D01*
X138461888Y-85601000D01*
X138415534Y-85596435D01*
X138376863Y-85584704D01*
X138341221Y-85565652D01*
X138309983Y-85540017D01*
X138284348Y-85508779D01*
X138265296Y-85473137D01*
X138253565Y-85434466D01*
X138249000Y-85388112D01*
X138249000Y-84736888D01*
X138253565Y-84690534D01*
X138265296Y-84651863D01*
X138284348Y-84616221D01*
X138309983Y-84584983D01*
X138341221Y-84559348D01*
X138376863Y-84540296D01*
X138415534Y-84528565D01*
X138461888Y-84524000D01*
X139538112Y-84524000D01*
X139584466Y-84528565D01*
X139584466Y-84528565D01*
G37*
G36*
X148501000Y-85526000D02*
X146899000Y-85526000D01*
X146899000Y-84824000D01*
X148501000Y-84824000D01*
X148501000Y-85526000D01*
X148501000Y-85526000D01*
G37*
G36*
X143101000Y-85526000D02*
X141499000Y-85526000D01*
X141499000Y-84824000D01*
X143101000Y-84824000D01*
X143101000Y-85526000D01*
X143101000Y-85526000D01*
G37*
G36*
X123196000Y-84806000D02*
X121594000Y-84806000D01*
X121594000Y-84104000D01*
X123196000Y-84104000D01*
X123196000Y-84806000D01*
X123196000Y-84806000D01*
G37*
G36*
X128596000Y-84806000D02*
X126994000Y-84806000D01*
X126994000Y-84104000D01*
X128596000Y-84104000D01*
X128596000Y-84806000D01*
X128596000Y-84806000D01*
G37*
G36*
X148501000Y-84256000D02*
X146899000Y-84256000D01*
X146899000Y-83554000D01*
X148501000Y-83554000D01*
X148501000Y-84256000D01*
X148501000Y-84256000D01*
G37*
G36*
X143101000Y-84256000D02*
X141499000Y-84256000D01*
X141499000Y-83554000D01*
X143101000Y-83554000D01*
X143101000Y-84256000D01*
X143101000Y-84256000D01*
G37*
G36*
X110999690Y-83949390D02*
X109000310Y-83949390D01*
X109000310Y-81950010D01*
X110999690Y-81950010D01*
X110999690Y-83949390D01*
X110999690Y-83949390D01*
G37*
G36*
X123196000Y-83536000D02*
X121594000Y-83536000D01*
X121594000Y-82834000D01*
X123196000Y-82834000D01*
X123196000Y-83536000D01*
X123196000Y-83536000D01*
G37*
G36*
X128596000Y-83536000D02*
X126994000Y-83536000D01*
X126994000Y-82834000D01*
X128596000Y-82834000D01*
X128596000Y-83536000D01*
X128596000Y-83536000D01*
G37*
G36*
X139584466Y-82403565D02*
X139623137Y-82415296D01*
X139658779Y-82434348D01*
X139690017Y-82459983D01*
X139715652Y-82491221D01*
X139734704Y-82526863D01*
X139746435Y-82565534D01*
X139751000Y-82611888D01*
X139751000Y-83263112D01*
X139746435Y-83309466D01*
X139734704Y-83348137D01*
X139715652Y-83383779D01*
X139690017Y-83415017D01*
X139658779Y-83440652D01*
X139623137Y-83459704D01*
X139584466Y-83471435D01*
X139538112Y-83476000D01*
X138461888Y-83476000D01*
X138415534Y-83471435D01*
X138376863Y-83459704D01*
X138341221Y-83440652D01*
X138309983Y-83415017D01*
X138284348Y-83383779D01*
X138265296Y-83348137D01*
X138253565Y-83309466D01*
X138249000Y-83263112D01*
X138249000Y-82611888D01*
X138253565Y-82565534D01*
X138265296Y-82526863D01*
X138284348Y-82491221D01*
X138309983Y-82459983D01*
X138341221Y-82434348D01*
X138376863Y-82415296D01*
X138415534Y-82403565D01*
X138461888Y-82399000D01*
X139538112Y-82399000D01*
X139584466Y-82403565D01*
X139584466Y-82403565D01*
G37*
G36*
X143101000Y-82986000D02*
X141499000Y-82986000D01*
X141499000Y-82284000D01*
X143101000Y-82284000D01*
X143101000Y-82986000D01*
X143101000Y-82986000D01*
G37*
G36*
X148501000Y-82986000D02*
X146899000Y-82986000D01*
X146899000Y-82284000D01*
X148501000Y-82284000D01*
X148501000Y-82986000D01*
X148501000Y-82986000D01*
G37*
G36*
X159901000Y-82901000D02*
X158099000Y-82901000D01*
X158099000Y-81099000D01*
X159901000Y-81099000D01*
X159901000Y-82901000D01*
X159901000Y-82901000D01*
G37*
G36*
X154371966Y-81253565D02*
X154410637Y-81265296D01*
X154446279Y-81284348D01*
X154477517Y-81309983D01*
X154503152Y-81341221D01*
X154522204Y-81376863D01*
X154533935Y-81415534D01*
X154538500Y-81461888D01*
X154538500Y-82538112D01*
X154533935Y-82584466D01*
X154522204Y-82623137D01*
X154503152Y-82658779D01*
X154477517Y-82690017D01*
X154446279Y-82715652D01*
X154410637Y-82734704D01*
X154371966Y-82746435D01*
X154325612Y-82751000D01*
X153674388Y-82751000D01*
X153628034Y-82746435D01*
X153589363Y-82734704D01*
X153553721Y-82715652D01*
X153522483Y-82690017D01*
X153496848Y-82658779D01*
X153477796Y-82623137D01*
X153466065Y-82584466D01*
X153461500Y-82538112D01*
X153461500Y-81461888D01*
X153466065Y-81415534D01*
X153477796Y-81376863D01*
X153496848Y-81341221D01*
X153522483Y-81309983D01*
X153553721Y-81284348D01*
X153589363Y-81265296D01*
X153628034Y-81253565D01*
X153674388Y-81249000D01*
X154325612Y-81249000D01*
X154371966Y-81253565D01*
X154371966Y-81253565D01*
G37*
G36*
X156246966Y-81253565D02*
X156285637Y-81265296D01*
X156321279Y-81284348D01*
X156352517Y-81309983D01*
X156378152Y-81341221D01*
X156397204Y-81376863D01*
X156408935Y-81415534D01*
X156413500Y-81461888D01*
X156413500Y-82538112D01*
X156408935Y-82584466D01*
X156397204Y-82623137D01*
X156378152Y-82658779D01*
X156352517Y-82690017D01*
X156321279Y-82715652D01*
X156285637Y-82734704D01*
X156246966Y-82746435D01*
X156200612Y-82751000D01*
X155549388Y-82751000D01*
X155503034Y-82746435D01*
X155464363Y-82734704D01*
X155428721Y-82715652D01*
X155397483Y-82690017D01*
X155371848Y-82658779D01*
X155352796Y-82623137D01*
X155341065Y-82584466D01*
X155336500Y-82538112D01*
X155336500Y-81461888D01*
X155341065Y-81415534D01*
X155352796Y-81376863D01*
X155371848Y-81341221D01*
X155397483Y-81309983D01*
X155428721Y-81284348D01*
X155464363Y-81265296D01*
X155503034Y-81253565D01*
X155549388Y-81249000D01*
X156200612Y-81249000D01*
X156246966Y-81253565D01*
X156246966Y-81253565D01*
G37*
G36*
X151584466Y-81466065D02*
X151623137Y-81477796D01*
X151658779Y-81496848D01*
X151690017Y-81522483D01*
X151715652Y-81553721D01*
X151734704Y-81589363D01*
X151746435Y-81628034D01*
X151751000Y-81674388D01*
X151751000Y-82325612D01*
X151746435Y-82371966D01*
X151734704Y-82410637D01*
X151715652Y-82446279D01*
X151690017Y-82477517D01*
X151658779Y-82503152D01*
X151623137Y-82522204D01*
X151584466Y-82533935D01*
X151538112Y-82538500D01*
X150461888Y-82538500D01*
X150415534Y-82533935D01*
X150376863Y-82522204D01*
X150341221Y-82503152D01*
X150309983Y-82477517D01*
X150284348Y-82446279D01*
X150265296Y-82410637D01*
X150253565Y-82371966D01*
X150249000Y-82325612D01*
X150249000Y-81674388D01*
X150253565Y-81628034D01*
X150265296Y-81589363D01*
X150284348Y-81553721D01*
X150309983Y-81522483D01*
X150341221Y-81496848D01*
X150376863Y-81477796D01*
X150415534Y-81466065D01*
X150461888Y-81461500D01*
X151538112Y-81461500D01*
X151584466Y-81466065D01*
X151584466Y-81466065D01*
G37*
G36*
X128596000Y-82266000D02*
X126994000Y-82266000D01*
X126994000Y-81564000D01*
X128596000Y-81564000D01*
X128596000Y-82266000D01*
X128596000Y-82266000D01*
G37*
G36*
X123196000Y-82266000D02*
X121594000Y-82266000D01*
X121594000Y-81564000D01*
X123196000Y-81564000D01*
X123196000Y-82266000D01*
X123196000Y-82266000D01*
G37*
G36*
X143101000Y-81716000D02*
X141499000Y-81716000D01*
X141499000Y-81014000D01*
X143101000Y-81014000D01*
X143101000Y-81716000D01*
X143101000Y-81716000D01*
G37*
G36*
X148501000Y-81716000D02*
X146899000Y-81716000D01*
X146899000Y-81014000D01*
X148501000Y-81014000D01*
X148501000Y-81716000D01*
X148501000Y-81716000D01*
G37*
G36*
X139584466Y-80528565D02*
X139623137Y-80540296D01*
X139658779Y-80559348D01*
X139690017Y-80584983D01*
X139715652Y-80616221D01*
X139734704Y-80651863D01*
X139746435Y-80690534D01*
X139751000Y-80736888D01*
X139751000Y-81388112D01*
X139746435Y-81434466D01*
X139734704Y-81473137D01*
X139715652Y-81508779D01*
X139690017Y-81540017D01*
X139658779Y-81565652D01*
X139623137Y-81584704D01*
X139584466Y-81596435D01*
X139538112Y-81601000D01*
X138461888Y-81601000D01*
X138415534Y-81596435D01*
X138376863Y-81584704D01*
X138341221Y-81565652D01*
X138309983Y-81540017D01*
X138284348Y-81508779D01*
X138265296Y-81473137D01*
X138253565Y-81434466D01*
X138249000Y-81388112D01*
X138249000Y-80736888D01*
X138253565Y-80690534D01*
X138265296Y-80651863D01*
X138284348Y-80616221D01*
X138309983Y-80584983D01*
X138341221Y-80559348D01*
X138376863Y-80540296D01*
X138415534Y-80528565D01*
X138461888Y-80524000D01*
X139538112Y-80524000D01*
X139584466Y-80528565D01*
X139584466Y-80528565D01*
G37*
G36*
X112280036Y-76667585D02*
X112361891Y-76701490D01*
X112432490Y-76748663D01*
X112435561Y-76750715D01*
X112498205Y-76813359D01*
X112498207Y-76813362D01*
X112547430Y-76887029D01*
X112581335Y-76968884D01*
X112598620Y-77055781D01*
X112598620Y-77144379D01*
X112581335Y-77231276D01*
X112562684Y-77276305D01*
X112555574Y-77299743D01*
X112553172Y-77324130D01*
X112555574Y-77348516D01*
X112562687Y-77371965D01*
X112574238Y-77393576D01*
X112589783Y-77412518D01*
X112608725Y-77428063D01*
X112630336Y-77439615D01*
X112653785Y-77446728D01*
X112678172Y-77449130D01*
X114051000Y-77449130D01*
X114051000Y-80550870D01*
X112676684Y-80550870D01*
X112652298Y-80553272D01*
X112628849Y-80560385D01*
X112607238Y-80571936D01*
X112588296Y-80587482D01*
X112572750Y-80606424D01*
X112561199Y-80628035D01*
X112554086Y-80651484D01*
X112551684Y-80675870D01*
X112554086Y-80700256D01*
X112561196Y-80723695D01*
X112578795Y-80766184D01*
X112596080Y-80853081D01*
X112596080Y-80941679D01*
X112578795Y-81028576D01*
X112544890Y-81110431D01*
X112495998Y-81183603D01*
X112495665Y-81184101D01*
X112433021Y-81246745D01*
X112433018Y-81246747D01*
X112359351Y-81295970D01*
X112277496Y-81329875D01*
X112190599Y-81347160D01*
X112102001Y-81347160D01*
X112015104Y-81329875D01*
X111933249Y-81295970D01*
X111859582Y-81246747D01*
X111859579Y-81246745D01*
X111796935Y-81184101D01*
X111796602Y-81183603D01*
X111747710Y-81110431D01*
X111713805Y-81028576D01*
X111696520Y-80941679D01*
X111696520Y-80853081D01*
X111713805Y-80766184D01*
X111747710Y-80684329D01*
X111796933Y-80610662D01*
X111796935Y-80610659D01*
X111859579Y-80548015D01*
X111878104Y-80535637D01*
X111893448Y-80525384D01*
X111912388Y-80509841D01*
X111927933Y-80490899D01*
X111939485Y-80469288D01*
X111946598Y-80445839D01*
X111949000Y-80421452D01*
X111949000Y-77574311D01*
X111946598Y-77549925D01*
X111939485Y-77526476D01*
X111927934Y-77504865D01*
X111912388Y-77485923D01*
X111893446Y-77470377D01*
X111862119Y-77449445D01*
X111799475Y-77386801D01*
X111773894Y-77348516D01*
X111750250Y-77313131D01*
X111716345Y-77231276D01*
X111699060Y-77144379D01*
X111699060Y-77055781D01*
X111716345Y-76968884D01*
X111750250Y-76887029D01*
X111799473Y-76813362D01*
X111799475Y-76813359D01*
X111862119Y-76750715D01*
X111865190Y-76748663D01*
X111935789Y-76701490D01*
X112017644Y-76667585D01*
X112104541Y-76650300D01*
X112193139Y-76650300D01*
X112280036Y-76667585D01*
X112280036Y-76667585D01*
G37*
G36*
X110999690Y-81198570D02*
X109000310Y-81198570D01*
X109000310Y-79199190D01*
X110999690Y-79199190D01*
X110999690Y-81198570D01*
X110999690Y-81198570D01*
G37*
G36*
X123196000Y-80996000D02*
X121594000Y-80996000D01*
X121594000Y-80294000D01*
X123196000Y-80294000D01*
X123196000Y-80996000D01*
X123196000Y-80996000D01*
G37*
G36*
X128596000Y-80996000D02*
X126994000Y-80996000D01*
X126994000Y-80294000D01*
X128596000Y-80294000D01*
X128596000Y-80996000D01*
X128596000Y-80996000D01*
G37*
G36*
X151584466Y-79591065D02*
X151623137Y-79602796D01*
X151658779Y-79621848D01*
X151690017Y-79647483D01*
X151715652Y-79678721D01*
X151734704Y-79714363D01*
X151746435Y-79753034D01*
X151751000Y-79799388D01*
X151751000Y-80450612D01*
X151746435Y-80496966D01*
X151734704Y-80535637D01*
X151715652Y-80571279D01*
X151690017Y-80602517D01*
X151658779Y-80628152D01*
X151623137Y-80647204D01*
X151584466Y-80658935D01*
X151538112Y-80663500D01*
X150461888Y-80663500D01*
X150415534Y-80658935D01*
X150376863Y-80647204D01*
X150341221Y-80628152D01*
X150309983Y-80602517D01*
X150284348Y-80571279D01*
X150265296Y-80535637D01*
X150253565Y-80496966D01*
X150249000Y-80450612D01*
X150249000Y-79799388D01*
X150253565Y-79753034D01*
X150265296Y-79714363D01*
X150284348Y-79678721D01*
X150309983Y-79647483D01*
X150341221Y-79621848D01*
X150376863Y-79602796D01*
X150415534Y-79591065D01*
X150461888Y-79586500D01*
X151538112Y-79586500D01*
X151584466Y-79591065D01*
X151584466Y-79591065D01*
G37*
G36*
X143101000Y-80446000D02*
X141499000Y-80446000D01*
X141499000Y-79744000D01*
X143101000Y-79744000D01*
X143101000Y-80446000D01*
X143101000Y-80446000D01*
G37*
G36*
X148501000Y-80446000D02*
X146899000Y-80446000D01*
X146899000Y-79744000D01*
X148501000Y-79744000D01*
X148501000Y-80446000D01*
X148501000Y-80446000D01*
G37*
G36*
X128596000Y-79726000D02*
X126994000Y-79726000D01*
X126994000Y-79024000D01*
X128596000Y-79024000D01*
X128596000Y-79726000D01*
X128596000Y-79726000D01*
G37*
G36*
X123196000Y-79726000D02*
X121594000Y-79726000D01*
X121594000Y-79024000D01*
X123196000Y-79024000D01*
X123196000Y-79726000D01*
X123196000Y-79726000D01*
G37*
G36*
X131394466Y-78508565D02*
X131433137Y-78520296D01*
X131468779Y-78539348D01*
X131500017Y-78564983D01*
X131525652Y-78596221D01*
X131544704Y-78631863D01*
X131556435Y-78670534D01*
X131561000Y-78716888D01*
X131561000Y-79368112D01*
X131556435Y-79414466D01*
X131544704Y-79453137D01*
X131525652Y-79488779D01*
X131500017Y-79520017D01*
X131468779Y-79545652D01*
X131433137Y-79564704D01*
X131394466Y-79576435D01*
X131348112Y-79581000D01*
X130271888Y-79581000D01*
X130225534Y-79576435D01*
X130186863Y-79564704D01*
X130151221Y-79545652D01*
X130119983Y-79520017D01*
X130094348Y-79488779D01*
X130075296Y-79453137D01*
X130063565Y-79414466D01*
X130059000Y-79368112D01*
X130059000Y-78716888D01*
X130063565Y-78670534D01*
X130075296Y-78631863D01*
X130094348Y-78596221D01*
X130119983Y-78564983D01*
X130151221Y-78539348D01*
X130186863Y-78520296D01*
X130225534Y-78508565D01*
X130271888Y-78504000D01*
X131348112Y-78504000D01*
X131394466Y-78508565D01*
X131394466Y-78508565D01*
G37*
G36*
X148501000Y-79176000D02*
X146899000Y-79176000D01*
X146899000Y-78474000D01*
X148501000Y-78474000D01*
X148501000Y-79176000D01*
X148501000Y-79176000D01*
G37*
G36*
X143101000Y-79176000D02*
X141499000Y-79176000D01*
X141499000Y-78474000D01*
X143101000Y-78474000D01*
X143101000Y-79176000D01*
X143101000Y-79176000D01*
G37*
G36*
X136051000Y-79051000D02*
X133949000Y-79051000D01*
X133949000Y-74449000D01*
X136051000Y-74449000D01*
X136051000Y-79051000D01*
X136051000Y-79051000D01*
G37*
G36*
X110999690Y-78800810D02*
X109000310Y-78800810D01*
X109000310Y-76801430D01*
X110999690Y-76801430D01*
X110999690Y-78800810D01*
X110999690Y-78800810D01*
G37*
G36*
X151584466Y-77403565D02*
X151623137Y-77415296D01*
X151658779Y-77434348D01*
X151690017Y-77459983D01*
X151715652Y-77491221D01*
X151734704Y-77526863D01*
X151746435Y-77565534D01*
X151751000Y-77611888D01*
X151751000Y-78263112D01*
X151746435Y-78309466D01*
X151734704Y-78348137D01*
X151715652Y-78383779D01*
X151690017Y-78415017D01*
X151658779Y-78440652D01*
X151623137Y-78459704D01*
X151584466Y-78471435D01*
X151538112Y-78476000D01*
X150461888Y-78476000D01*
X150415534Y-78471435D01*
X150376863Y-78459704D01*
X150341221Y-78440652D01*
X150309983Y-78415017D01*
X150284348Y-78383779D01*
X150265296Y-78348137D01*
X150253565Y-78309466D01*
X150249000Y-78263112D01*
X150249000Y-77611888D01*
X150253565Y-77565534D01*
X150265296Y-77526863D01*
X150284348Y-77491221D01*
X150309983Y-77459983D01*
X150341221Y-77434348D01*
X150376863Y-77415296D01*
X150415534Y-77403565D01*
X150461888Y-77399000D01*
X151538112Y-77399000D01*
X151584466Y-77403565D01*
X151584466Y-77403565D01*
G37*
G36*
X128596000Y-78456000D02*
X126994000Y-78456000D01*
X126994000Y-77754000D01*
X128596000Y-77754000D01*
X128596000Y-78456000D01*
X128596000Y-78456000D01*
G37*
G36*
X123196000Y-78456000D02*
X121594000Y-78456000D01*
X121594000Y-77754000D01*
X123196000Y-77754000D01*
X123196000Y-78456000D01*
X123196000Y-78456000D01*
G37*
G36*
X148501000Y-77906000D02*
X146899000Y-77906000D01*
X146899000Y-77204000D01*
X148501000Y-77204000D01*
X148501000Y-77906000D01*
X148501000Y-77906000D01*
G37*
G36*
X143101000Y-77906000D02*
X141499000Y-77906000D01*
X141499000Y-77204000D01*
X143101000Y-77204000D01*
X143101000Y-77906000D01*
X143101000Y-77906000D01*
G37*
G36*
X115496966Y-76253565D02*
X115535637Y-76265296D01*
X115571279Y-76284348D01*
X115602517Y-76309983D01*
X115628152Y-76341221D01*
X115647204Y-76376863D01*
X115658935Y-76415534D01*
X115663500Y-76461888D01*
X115663500Y-77538112D01*
X115658935Y-77584466D01*
X115647204Y-77623137D01*
X115628152Y-77658779D01*
X115602517Y-77690017D01*
X115571279Y-77715652D01*
X115535637Y-77734704D01*
X115496966Y-77746435D01*
X115450612Y-77751000D01*
X114799388Y-77751000D01*
X114753034Y-77746435D01*
X114714363Y-77734704D01*
X114678721Y-77715652D01*
X114647483Y-77690017D01*
X114621848Y-77658779D01*
X114602796Y-77623137D01*
X114591065Y-77584466D01*
X114586500Y-77538112D01*
X114586500Y-76461888D01*
X114591065Y-76415534D01*
X114602796Y-76376863D01*
X114621848Y-76341221D01*
X114647483Y-76309983D01*
X114678721Y-76284348D01*
X114714363Y-76265296D01*
X114753034Y-76253565D01*
X114799388Y-76249000D01*
X115450612Y-76249000D01*
X115496966Y-76253565D01*
X115496966Y-76253565D01*
G37*
G36*
X117371966Y-76253565D02*
X117410637Y-76265296D01*
X117446279Y-76284348D01*
X117477517Y-76309983D01*
X117503152Y-76341221D01*
X117522204Y-76376863D01*
X117533935Y-76415534D01*
X117538500Y-76461888D01*
X117538500Y-77538112D01*
X117533935Y-77584466D01*
X117522204Y-77623137D01*
X117503152Y-77658779D01*
X117477517Y-77690017D01*
X117446279Y-77715652D01*
X117410637Y-77734704D01*
X117371966Y-77746435D01*
X117325612Y-77751000D01*
X116674388Y-77751000D01*
X116628034Y-77746435D01*
X116589363Y-77734704D01*
X116553721Y-77715652D01*
X116522483Y-77690017D01*
X116496848Y-77658779D01*
X116477796Y-77623137D01*
X116466065Y-77584466D01*
X116461500Y-77538112D01*
X116461500Y-76461888D01*
X116466065Y-76415534D01*
X116477796Y-76376863D01*
X116496848Y-76341221D01*
X116522483Y-76309983D01*
X116553721Y-76284348D01*
X116589363Y-76265296D01*
X116628034Y-76253565D01*
X116674388Y-76249000D01*
X117325612Y-76249000D01*
X117371966Y-76253565D01*
X117371966Y-76253565D01*
G37*
G36*
X131394466Y-76633565D02*
X131433137Y-76645296D01*
X131468779Y-76664348D01*
X131500017Y-76689983D01*
X131525652Y-76721221D01*
X131544704Y-76756863D01*
X131556435Y-76795534D01*
X131561000Y-76841888D01*
X131561000Y-77493112D01*
X131556435Y-77539466D01*
X131544704Y-77578137D01*
X131525652Y-77613779D01*
X131500017Y-77645017D01*
X131468779Y-77670652D01*
X131433137Y-77689704D01*
X131394466Y-77701435D01*
X131348112Y-77706000D01*
X130271888Y-77706000D01*
X130225534Y-77701435D01*
X130186863Y-77689704D01*
X130151221Y-77670652D01*
X130119983Y-77645017D01*
X130094348Y-77613779D01*
X130075296Y-77578137D01*
X130063565Y-77539466D01*
X130059000Y-77493112D01*
X130059000Y-76841888D01*
X130063565Y-76795534D01*
X130075296Y-76756863D01*
X130094348Y-76721221D01*
X130119983Y-76689983D01*
X130151221Y-76664348D01*
X130186863Y-76645296D01*
X130225534Y-76633565D01*
X130271888Y-76629000D01*
X131348112Y-76629000D01*
X131394466Y-76633565D01*
X131394466Y-76633565D01*
G37*
G36*
X154496966Y-75253565D02*
X154535637Y-75265296D01*
X154571279Y-75284348D01*
X154602517Y-75309983D01*
X154628152Y-75341221D01*
X154647204Y-75376863D01*
X154658935Y-75415534D01*
X154663500Y-75461888D01*
X154663500Y-76538112D01*
X154658935Y-76584466D01*
X154647204Y-76623137D01*
X154628152Y-76658779D01*
X154602517Y-76690017D01*
X154571279Y-76715652D01*
X154535637Y-76734704D01*
X154496966Y-76746435D01*
X154450612Y-76751000D01*
X153799388Y-76751000D01*
X153753034Y-76746435D01*
X153714363Y-76734704D01*
X153678721Y-76715652D01*
X153647483Y-76690017D01*
X153621848Y-76658779D01*
X153602796Y-76623137D01*
X153591065Y-76584466D01*
X153586500Y-76538112D01*
X153586500Y-75461888D01*
X153591065Y-75415534D01*
X153602796Y-75376863D01*
X153621848Y-75341221D01*
X153647483Y-75309983D01*
X153678721Y-75284348D01*
X153714363Y-75265296D01*
X153753034Y-75253565D01*
X153799388Y-75249000D01*
X154450612Y-75249000D01*
X154496966Y-75253565D01*
X154496966Y-75253565D01*
G37*
G36*
X156371966Y-75253565D02*
X156410637Y-75265296D01*
X156446279Y-75284348D01*
X156477517Y-75309983D01*
X156503152Y-75341221D01*
X156522204Y-75376863D01*
X156533935Y-75415534D01*
X156538500Y-75461888D01*
X156538500Y-76538112D01*
X156533935Y-76584466D01*
X156522204Y-76623137D01*
X156503152Y-76658779D01*
X156477517Y-76690017D01*
X156446279Y-76715652D01*
X156410637Y-76734704D01*
X156371966Y-76746435D01*
X156325612Y-76751000D01*
X155674388Y-76751000D01*
X155628034Y-76746435D01*
X155589363Y-76734704D01*
X155553721Y-76715652D01*
X155522483Y-76690017D01*
X155496848Y-76658779D01*
X155477796Y-76623137D01*
X155466065Y-76584466D01*
X155461500Y-76538112D01*
X155461500Y-75461888D01*
X155466065Y-75415534D01*
X155477796Y-75376863D01*
X155496848Y-75341221D01*
X155522483Y-75309983D01*
X155553721Y-75284348D01*
X155589363Y-75265296D01*
X155628034Y-75253565D01*
X155674388Y-75249000D01*
X156325612Y-75249000D01*
X156371966Y-75253565D01*
X156371966Y-75253565D01*
G37*
G36*
X158371966Y-75253565D02*
X158410637Y-75265296D01*
X158446279Y-75284348D01*
X158477517Y-75309983D01*
X158503152Y-75341221D01*
X158522204Y-75376863D01*
X158533935Y-75415534D01*
X158538500Y-75461888D01*
X158538500Y-76538112D01*
X158533935Y-76584466D01*
X158522204Y-76623137D01*
X158503152Y-76658779D01*
X158477517Y-76690017D01*
X158446279Y-76715652D01*
X158410637Y-76734704D01*
X158371966Y-76746435D01*
X158325612Y-76751000D01*
X157674388Y-76751000D01*
X157628034Y-76746435D01*
X157589363Y-76734704D01*
X157553721Y-76715652D01*
X157522483Y-76690017D01*
X157496848Y-76658779D01*
X157477796Y-76623137D01*
X157466065Y-76584466D01*
X157461500Y-76538112D01*
X157461500Y-75461888D01*
X157466065Y-75415534D01*
X157477796Y-75376863D01*
X157496848Y-75341221D01*
X157522483Y-75309983D01*
X157553721Y-75284348D01*
X157589363Y-75265296D01*
X157628034Y-75253565D01*
X157674388Y-75249000D01*
X158325612Y-75249000D01*
X158371966Y-75253565D01*
X158371966Y-75253565D01*
G37*
G36*
X160246966Y-75253565D02*
X160285637Y-75265296D01*
X160321279Y-75284348D01*
X160352517Y-75309983D01*
X160378152Y-75341221D01*
X160397204Y-75376863D01*
X160408935Y-75415534D01*
X160413500Y-75461888D01*
X160413500Y-76538112D01*
X160408935Y-76584466D01*
X160397204Y-76623137D01*
X160378152Y-76658779D01*
X160352517Y-76690017D01*
X160321279Y-76715652D01*
X160285637Y-76734704D01*
X160246966Y-76746435D01*
X160200612Y-76751000D01*
X159549388Y-76751000D01*
X159503034Y-76746435D01*
X159464363Y-76734704D01*
X159428721Y-76715652D01*
X159397483Y-76690017D01*
X159371848Y-76658779D01*
X159352796Y-76623137D01*
X159341065Y-76584466D01*
X159336500Y-76538112D01*
X159336500Y-75461888D01*
X159341065Y-75415534D01*
X159352796Y-75376863D01*
X159371848Y-75341221D01*
X159397483Y-75309983D01*
X159428721Y-75284348D01*
X159464363Y-75265296D01*
X159503034Y-75253565D01*
X159549388Y-75249000D01*
X160200612Y-75249000D01*
X160246966Y-75253565D01*
X160246966Y-75253565D01*
G37*
G36*
X151584466Y-75528565D02*
X151623137Y-75540296D01*
X151658779Y-75559348D01*
X151690017Y-75584983D01*
X151715652Y-75616221D01*
X151734704Y-75651863D01*
X151746435Y-75690534D01*
X151751000Y-75736888D01*
X151751000Y-76388112D01*
X151746435Y-76434466D01*
X151734704Y-76473137D01*
X151715652Y-76508779D01*
X151690017Y-76540017D01*
X151658779Y-76565652D01*
X151623137Y-76584704D01*
X151584466Y-76596435D01*
X151538112Y-76601000D01*
X150461888Y-76601000D01*
X150415534Y-76596435D01*
X150376863Y-76584704D01*
X150341221Y-76565652D01*
X150309983Y-76540017D01*
X150284348Y-76508779D01*
X150265296Y-76473137D01*
X150253565Y-76434466D01*
X150249000Y-76388112D01*
X150249000Y-75736888D01*
X150253565Y-75690534D01*
X150265296Y-75651863D01*
X150284348Y-75616221D01*
X150309983Y-75584983D01*
X150341221Y-75559348D01*
X150376863Y-75540296D01*
X150415534Y-75528565D01*
X150461888Y-75524000D01*
X151538112Y-75524000D01*
X151584466Y-75528565D01*
X151584466Y-75528565D01*
G37*
G36*
X110999690Y-76049990D02*
X109000310Y-76049990D01*
X109000310Y-74050610D01*
X110999690Y-74050610D01*
X110999690Y-76049990D01*
X110999690Y-76049990D01*
G37*
G36*
X126246966Y-74253565D02*
X126285637Y-74265296D01*
X126321279Y-74284348D01*
X126352517Y-74309983D01*
X126378152Y-74341221D01*
X126397204Y-74376863D01*
X126408935Y-74415534D01*
X126413500Y-74461888D01*
X126413500Y-75538112D01*
X126408935Y-75584466D01*
X126397204Y-75623137D01*
X126378152Y-75658779D01*
X126352517Y-75690017D01*
X126321279Y-75715652D01*
X126285637Y-75734704D01*
X126246966Y-75746435D01*
X126200612Y-75751000D01*
X125549388Y-75751000D01*
X125503034Y-75746435D01*
X125464363Y-75734704D01*
X125428721Y-75715652D01*
X125397483Y-75690017D01*
X125371848Y-75658779D01*
X125352796Y-75623137D01*
X125341065Y-75584466D01*
X125336500Y-75538112D01*
X125336500Y-74461888D01*
X125341065Y-74415534D01*
X125352796Y-74376863D01*
X125371848Y-74341221D01*
X125397483Y-74309983D01*
X125428721Y-74284348D01*
X125464363Y-74265296D01*
X125503034Y-74253565D01*
X125549388Y-74249000D01*
X126200612Y-74249000D01*
X126246966Y-74253565D01*
X126246966Y-74253565D01*
G37*
G36*
X124371966Y-74253565D02*
X124410637Y-74265296D01*
X124446279Y-74284348D01*
X124477517Y-74309983D01*
X124503152Y-74341221D01*
X124522204Y-74376863D01*
X124533935Y-74415534D01*
X124538500Y-74461888D01*
X124538500Y-75538112D01*
X124533935Y-75584466D01*
X124522204Y-75623137D01*
X124503152Y-75658779D01*
X124477517Y-75690017D01*
X124446279Y-75715652D01*
X124410637Y-75734704D01*
X124371966Y-75746435D01*
X124325612Y-75751000D01*
X123674388Y-75751000D01*
X123628034Y-75746435D01*
X123589363Y-75734704D01*
X123553721Y-75715652D01*
X123522483Y-75690017D01*
X123496848Y-75658779D01*
X123477796Y-75623137D01*
X123466065Y-75584466D01*
X123461500Y-75538112D01*
X123461500Y-74461888D01*
X123466065Y-74415534D01*
X123477796Y-74376863D01*
X123496848Y-74341221D01*
X123522483Y-74309983D01*
X123553721Y-74284348D01*
X123589363Y-74265296D01*
X123628034Y-74253565D01*
X123674388Y-74249000D01*
X124325612Y-74249000D01*
X124371966Y-74253565D01*
X124371966Y-74253565D01*
G37*
G36*
X121781000Y-75276000D02*
X120619000Y-75276000D01*
X120619000Y-74524000D01*
X121781000Y-74524000D01*
X121781000Y-75276000D01*
X121781000Y-75276000D01*
G37*
G36*
X119581000Y-75276000D02*
X118419000Y-75276000D01*
X118419000Y-72624000D01*
X119581000Y-72624000D01*
X119581000Y-75276000D01*
X119581000Y-75276000D01*
G37*
G36*
X144110442Y-73105518D02*
X144176627Y-73112037D01*
X144289853Y-73146384D01*
X144346467Y-73163557D01*
X144485087Y-73237652D01*
X144502991Y-73247222D01*
X144538729Y-73276552D01*
X144640186Y-73359814D01*
X144723448Y-73461271D01*
X144752778Y-73497009D01*
X144752779Y-73497011D01*
X144836443Y-73653533D01*
X144836443Y-73653534D01*
X144887963Y-73823373D01*
X144905359Y-74000000D01*
X144887963Y-74176627D01*
X144859792Y-74269495D01*
X144836443Y-74346467D01*
X144799697Y-74415212D01*
X144752778Y-74502991D01*
X144740255Y-74518250D01*
X144640186Y-74640186D01*
X144538729Y-74723448D01*
X144502991Y-74752778D01*
X144502989Y-74752779D01*
X144346467Y-74836443D01*
X144289853Y-74853616D01*
X144176627Y-74887963D01*
X144110443Y-74894481D01*
X144044260Y-74901000D01*
X143955740Y-74901000D01*
X143889557Y-74894481D01*
X143823373Y-74887963D01*
X143710147Y-74853616D01*
X143653533Y-74836443D01*
X143497011Y-74752779D01*
X143497009Y-74752778D01*
X143461271Y-74723448D01*
X143359814Y-74640186D01*
X143259745Y-74518250D01*
X143247222Y-74502991D01*
X143200303Y-74415212D01*
X143163557Y-74346467D01*
X143140208Y-74269495D01*
X143112037Y-74176627D01*
X143094641Y-74000000D01*
X143112037Y-73823373D01*
X143163557Y-73653534D01*
X143163557Y-73653533D01*
X143247221Y-73497011D01*
X143247222Y-73497009D01*
X143276552Y-73461271D01*
X143359814Y-73359814D01*
X143461271Y-73276552D01*
X143497009Y-73247222D01*
X143514913Y-73237652D01*
X143653533Y-73163557D01*
X143710147Y-73146384D01*
X143823373Y-73112037D01*
X143889558Y-73105518D01*
X143955740Y-73099000D01*
X144044260Y-73099000D01*
X144110442Y-73105518D01*
X144110442Y-73105518D01*
G37*
G36*
X142361000Y-74901000D02*
X140559000Y-74901000D01*
X140559000Y-73099000D01*
X142361000Y-73099000D01*
X142361000Y-74901000D01*
X142361000Y-74901000D01*
G37*
G36*
X126246966Y-72253565D02*
X126285637Y-72265296D01*
X126321279Y-72284348D01*
X126352517Y-72309983D01*
X126378152Y-72341221D01*
X126397204Y-72376863D01*
X126408935Y-72415534D01*
X126413500Y-72461888D01*
X126413500Y-73538112D01*
X126408935Y-73584466D01*
X126397204Y-73623137D01*
X126378152Y-73658779D01*
X126352517Y-73690017D01*
X126321279Y-73715652D01*
X126285637Y-73734704D01*
X126246966Y-73746435D01*
X126200612Y-73751000D01*
X125549388Y-73751000D01*
X125503034Y-73746435D01*
X125464363Y-73734704D01*
X125428721Y-73715652D01*
X125397483Y-73690017D01*
X125371848Y-73658779D01*
X125352796Y-73623137D01*
X125341065Y-73584466D01*
X125336500Y-73538112D01*
X125336500Y-72461888D01*
X125341065Y-72415534D01*
X125352796Y-72376863D01*
X125371848Y-72341221D01*
X125397483Y-72309983D01*
X125428721Y-72284348D01*
X125464363Y-72265296D01*
X125503034Y-72253565D01*
X125549388Y-72249000D01*
X126200612Y-72249000D01*
X126246966Y-72253565D01*
X126246966Y-72253565D01*
G37*
G36*
X124371966Y-72253565D02*
X124410637Y-72265296D01*
X124446279Y-72284348D01*
X124477517Y-72309983D01*
X124503152Y-72341221D01*
X124522204Y-72376863D01*
X124533935Y-72415534D01*
X124538500Y-72461888D01*
X124538500Y-73538112D01*
X124533935Y-73584466D01*
X124522204Y-73623137D01*
X124503152Y-73658779D01*
X124477517Y-73690017D01*
X124446279Y-73715652D01*
X124410637Y-73734704D01*
X124371966Y-73746435D01*
X124325612Y-73751000D01*
X123674388Y-73751000D01*
X123628034Y-73746435D01*
X123589363Y-73734704D01*
X123553721Y-73715652D01*
X123522483Y-73690017D01*
X123496848Y-73658779D01*
X123477796Y-73623137D01*
X123466065Y-73584466D01*
X123461500Y-73538112D01*
X123461500Y-72461888D01*
X123466065Y-72415534D01*
X123477796Y-72376863D01*
X123496848Y-72341221D01*
X123522483Y-72309983D01*
X123553721Y-72284348D01*
X123589363Y-72265296D01*
X123628034Y-72253565D01*
X123674388Y-72249000D01*
X124325612Y-72249000D01*
X124371966Y-72253565D01*
X124371966Y-72253565D01*
G37*
G36*
X121781000Y-73376000D02*
X120619000Y-73376000D01*
X120619000Y-72624000D01*
X121781000Y-72624000D01*
X121781000Y-73376000D01*
X121781000Y-73376000D01*
G37*
M02*
