G04 #@! TF.GenerationSoftware,KiCad,Pcbnew,5.0.2-bee76a0~70~ubuntu16.04.1*
G04 #@! TF.CreationDate,2019-07-30T15:31:50+02:00*
G04 #@! TF.ProjectId,hw-USB-RF,68772d55-5342-42d5-9246-2e6b69636164,rev?*
G04 #@! TF.SameCoordinates,Original*
G04 #@! TF.FileFunction,Soldermask,Bot*
G04 #@! TF.FilePolarity,Negative*
%FSLAX46Y46*%
G04 Gerber Fmt 4.6, Leading zero omitted, Abs format (unit mm)*
G04 Created by KiCad (PCBNEW 5.0.2-bee76a0~70~ubuntu16.04.1) date Tue 30 Jul 2019 03:31:50 PM CEST*
%MOMM*%
%LPD*%
G01*
G04 APERTURE LIST*
%ADD10C,0.100000*%
G04 APERTURE END LIST*
D10*
G36*
X114777142Y-86218242D02*
X114925102Y-86279530D01*
X115058258Y-86368502D01*
X115171498Y-86481742D01*
X115260470Y-86614898D01*
X115321758Y-86762858D01*
X115353000Y-86919925D01*
X115353000Y-87080075D01*
X115321758Y-87237142D01*
X115260470Y-87385102D01*
X115171498Y-87518258D01*
X115058258Y-87631498D01*
X114925102Y-87720470D01*
X114777142Y-87781758D01*
X114620075Y-87813000D01*
X114459925Y-87813000D01*
X114302858Y-87781758D01*
X114154898Y-87720470D01*
X114021742Y-87631498D01*
X113908502Y-87518258D01*
X113819530Y-87385102D01*
X113758242Y-87237142D01*
X113727000Y-87080075D01*
X113727000Y-86919925D01*
X113758242Y-86762858D01*
X113819530Y-86614898D01*
X113908502Y-86481742D01*
X114021742Y-86368502D01*
X114154898Y-86279530D01*
X114302858Y-86218242D01*
X114459925Y-86187000D01*
X114620075Y-86187000D01*
X114777142Y-86218242D01*
X114777142Y-86218242D01*
G37*
G36*
X112237142Y-86218242D02*
X112385102Y-86279530D01*
X112518258Y-86368502D01*
X112631498Y-86481742D01*
X112720470Y-86614898D01*
X112781758Y-86762858D01*
X112813000Y-86919925D01*
X112813000Y-87080075D01*
X112781758Y-87237142D01*
X112720470Y-87385102D01*
X112631498Y-87518258D01*
X112518258Y-87631498D01*
X112385102Y-87720470D01*
X112237142Y-87781758D01*
X112080075Y-87813000D01*
X111919925Y-87813000D01*
X111762858Y-87781758D01*
X111614898Y-87720470D01*
X111481742Y-87631498D01*
X111368502Y-87518258D01*
X111279530Y-87385102D01*
X111218242Y-87237142D01*
X111187000Y-87080075D01*
X111187000Y-86919925D01*
X111218242Y-86762858D01*
X111279530Y-86614898D01*
X111368502Y-86481742D01*
X111481742Y-86368502D01*
X111614898Y-86279530D01*
X111762858Y-86218242D01*
X111919925Y-86187000D01*
X112080075Y-86187000D01*
X112237142Y-86218242D01*
X112237142Y-86218242D01*
G37*
G36*
X109697142Y-86218242D02*
X109845102Y-86279530D01*
X109978258Y-86368502D01*
X110091498Y-86481742D01*
X110180470Y-86614898D01*
X110241758Y-86762858D01*
X110273000Y-86919925D01*
X110273000Y-87080075D01*
X110241758Y-87237142D01*
X110180470Y-87385102D01*
X110091498Y-87518258D01*
X109978258Y-87631498D01*
X109845102Y-87720470D01*
X109697142Y-87781758D01*
X109540075Y-87813000D01*
X109379925Y-87813000D01*
X109222858Y-87781758D01*
X109074898Y-87720470D01*
X108941742Y-87631498D01*
X108828502Y-87518258D01*
X108739530Y-87385102D01*
X108678242Y-87237142D01*
X108647000Y-87080075D01*
X108647000Y-86919925D01*
X108678242Y-86762858D01*
X108739530Y-86614898D01*
X108828502Y-86481742D01*
X108941742Y-86368502D01*
X109074898Y-86279530D01*
X109222858Y-86218242D01*
X109379925Y-86187000D01*
X109540075Y-86187000D01*
X109697142Y-86218242D01*
X109697142Y-86218242D01*
G37*
G36*
X159901000Y-82901000D02*
X158099000Y-82901000D01*
X158099000Y-81099000D01*
X159901000Y-81099000D01*
X159901000Y-82901000D01*
X159901000Y-82901000D01*
G37*
G36*
X112277496Y-80464885D02*
X112359351Y-80498790D01*
X112432523Y-80547682D01*
X112433021Y-80548015D01*
X112495665Y-80610659D01*
X112495667Y-80610662D01*
X112544890Y-80684329D01*
X112578795Y-80766184D01*
X112596080Y-80853081D01*
X112596080Y-80941679D01*
X112578795Y-81028576D01*
X112544890Y-81110431D01*
X112495998Y-81183603D01*
X112495665Y-81184101D01*
X112433021Y-81246745D01*
X112433018Y-81246747D01*
X112359351Y-81295970D01*
X112277496Y-81329875D01*
X112190599Y-81347160D01*
X112102001Y-81347160D01*
X112015104Y-81329875D01*
X111933249Y-81295970D01*
X111859582Y-81246747D01*
X111859579Y-81246745D01*
X111796935Y-81184101D01*
X111796602Y-81183603D01*
X111747710Y-81110431D01*
X111713805Y-81028576D01*
X111696520Y-80941679D01*
X111696520Y-80853081D01*
X111713805Y-80766184D01*
X111747710Y-80684329D01*
X111796933Y-80610662D01*
X111796935Y-80610659D01*
X111859579Y-80548015D01*
X111860077Y-80547682D01*
X111933249Y-80498790D01*
X112015104Y-80464885D01*
X112102001Y-80447600D01*
X112190599Y-80447600D01*
X112277496Y-80464885D01*
X112277496Y-80464885D01*
G37*
G36*
X112280036Y-76667585D02*
X112361891Y-76701490D01*
X112435063Y-76750382D01*
X112435561Y-76750715D01*
X112498205Y-76813359D01*
X112498207Y-76813362D01*
X112547430Y-76887029D01*
X112581335Y-76968884D01*
X112598620Y-77055781D01*
X112598620Y-77144379D01*
X112581335Y-77231276D01*
X112547430Y-77313131D01*
X112498538Y-77386303D01*
X112498205Y-77386801D01*
X112435561Y-77449445D01*
X112435558Y-77449447D01*
X112361891Y-77498670D01*
X112280036Y-77532575D01*
X112193139Y-77549860D01*
X112104541Y-77549860D01*
X112017644Y-77532575D01*
X111935789Y-77498670D01*
X111862122Y-77449447D01*
X111862119Y-77449445D01*
X111799475Y-77386801D01*
X111799142Y-77386303D01*
X111750250Y-77313131D01*
X111716345Y-77231276D01*
X111699060Y-77144379D01*
X111699060Y-77055781D01*
X111716345Y-76968884D01*
X111750250Y-76887029D01*
X111799473Y-76813362D01*
X111799475Y-76813359D01*
X111862119Y-76750715D01*
X111862617Y-76750382D01*
X111935789Y-76701490D01*
X112017644Y-76667585D01*
X112104541Y-76650300D01*
X112193139Y-76650300D01*
X112280036Y-76667585D01*
X112280036Y-76667585D01*
G37*
G36*
X144110442Y-73105518D02*
X144176627Y-73112037D01*
X144289853Y-73146384D01*
X144346467Y-73163557D01*
X144485087Y-73237652D01*
X144502991Y-73247222D01*
X144538729Y-73276552D01*
X144640186Y-73359814D01*
X144723448Y-73461271D01*
X144752778Y-73497009D01*
X144752779Y-73497011D01*
X144836443Y-73653533D01*
X144836443Y-73653534D01*
X144887963Y-73823373D01*
X144905359Y-74000000D01*
X144887963Y-74176627D01*
X144853616Y-74289853D01*
X144836443Y-74346467D01*
X144762348Y-74485087D01*
X144752778Y-74502991D01*
X144723448Y-74538729D01*
X144640186Y-74640186D01*
X144538729Y-74723448D01*
X144502991Y-74752778D01*
X144502989Y-74752779D01*
X144346467Y-74836443D01*
X144289853Y-74853616D01*
X144176627Y-74887963D01*
X144110443Y-74894481D01*
X144044260Y-74901000D01*
X143955740Y-74901000D01*
X143889557Y-74894481D01*
X143823373Y-74887963D01*
X143710147Y-74853616D01*
X143653533Y-74836443D01*
X143497011Y-74752779D01*
X143497009Y-74752778D01*
X143461271Y-74723448D01*
X143359814Y-74640186D01*
X143276552Y-74538729D01*
X143247222Y-74502991D01*
X143237652Y-74485087D01*
X143163557Y-74346467D01*
X143146384Y-74289853D01*
X143112037Y-74176627D01*
X143094641Y-74000000D01*
X143112037Y-73823373D01*
X143163557Y-73653534D01*
X143163557Y-73653533D01*
X143247221Y-73497011D01*
X143247222Y-73497009D01*
X143276552Y-73461271D01*
X143359814Y-73359814D01*
X143461271Y-73276552D01*
X143497009Y-73247222D01*
X143514913Y-73237652D01*
X143653533Y-73163557D01*
X143710147Y-73146384D01*
X143823373Y-73112037D01*
X143889558Y-73105518D01*
X143955740Y-73099000D01*
X144044260Y-73099000D01*
X144110442Y-73105518D01*
X144110442Y-73105518D01*
G37*
G36*
X142361000Y-74901000D02*
X140559000Y-74901000D01*
X140559000Y-73099000D01*
X142361000Y-73099000D01*
X142361000Y-74901000D01*
X142361000Y-74901000D01*
G37*
M02*
