G04 #@! TF.GenerationSoftware,KiCad,Pcbnew,5.0.2-bee76a0~70~ubuntu16.04.1*
G04 #@! TF.CreationDate,2019-09-10T18:11:14+02:00*
G04 #@! TF.ProjectId,hw-USB-RF,68772d55-5342-42d5-9246-2e6b69636164,rev?*
G04 #@! TF.SameCoordinates,Original*
G04 #@! TF.FileFunction,Legend,Top*
G04 #@! TF.FilePolarity,Positive*
%FSLAX46Y46*%
G04 Gerber Fmt 4.6, Leading zero omitted, Abs format (unit mm)*
G04 Created by KiCad (PCBNEW 5.0.2-bee76a0~70~ubuntu16.04.1) date Tue 10 Sep 2019 06:11:14 PM CEST*
%MOMM*%
%LPD*%
G01*
G04 APERTURE LIST*
%ADD10C,0.250000*%
%ADD11C,0.120000*%
%ADD12C,0.200660*%
%ADD13C,0.150000*%
G04 APERTURE END LIST*
D10*
X145738095Y-99452380D02*
X145738095Y-100261904D01*
X145785714Y-100357142D01*
X145833333Y-100404761D01*
X145928571Y-100452380D01*
X146119047Y-100452380D01*
X146214285Y-100404761D01*
X146261904Y-100357142D01*
X146309523Y-100261904D01*
X146309523Y-99452380D01*
X146738095Y-100404761D02*
X146880952Y-100452380D01*
X147119047Y-100452380D01*
X147214285Y-100404761D01*
X147261904Y-100357142D01*
X147309523Y-100261904D01*
X147309523Y-100166666D01*
X147261904Y-100071428D01*
X147214285Y-100023809D01*
X147119047Y-99976190D01*
X146928571Y-99928571D01*
X146833333Y-99880952D01*
X146785714Y-99833333D01*
X146738095Y-99738095D01*
X146738095Y-99642857D01*
X146785714Y-99547619D01*
X146833333Y-99500000D01*
X146928571Y-99452380D01*
X147166666Y-99452380D01*
X147309523Y-99500000D01*
X148071428Y-99928571D02*
X148214285Y-99976190D01*
X148261904Y-100023809D01*
X148309523Y-100119047D01*
X148309523Y-100261904D01*
X148261904Y-100357142D01*
X148214285Y-100404761D01*
X148119047Y-100452380D01*
X147738095Y-100452380D01*
X147738095Y-99452380D01*
X148071428Y-99452380D01*
X148166666Y-99500000D01*
X148214285Y-99547619D01*
X148261904Y-99642857D01*
X148261904Y-99738095D01*
X148214285Y-99833333D01*
X148166666Y-99880952D01*
X148071428Y-99928571D01*
X147738095Y-99928571D01*
X148738095Y-100071428D02*
X149500000Y-100071428D01*
X150547619Y-100452380D02*
X150214285Y-99976190D01*
X149976190Y-100452380D02*
X149976190Y-99452380D01*
X150357142Y-99452380D01*
X150452380Y-99500000D01*
X150500000Y-99547619D01*
X150547619Y-99642857D01*
X150547619Y-99785714D01*
X150500000Y-99880952D01*
X150452380Y-99928571D01*
X150357142Y-99976190D01*
X149976190Y-99976190D01*
X151309523Y-99928571D02*
X150976190Y-99928571D01*
X150976190Y-100452380D02*
X150976190Y-99452380D01*
X151452380Y-99452380D01*
X152500000Y-99785714D02*
X152738095Y-100452380D01*
X152976190Y-99785714D01*
X153880952Y-100452380D02*
X153309523Y-100452380D01*
X153595238Y-100452380D02*
X153595238Y-99452380D01*
X153500000Y-99595238D01*
X153404761Y-99690476D01*
X153309523Y-99738095D01*
X154309523Y-100357142D02*
X154357142Y-100404761D01*
X154309523Y-100452380D01*
X154261904Y-100404761D01*
X154309523Y-100357142D01*
X154309523Y-100452380D01*
X154738095Y-99547619D02*
X154785714Y-99500000D01*
X154880952Y-99452380D01*
X155119047Y-99452380D01*
X155214285Y-99500000D01*
X155261904Y-99547619D01*
X155309523Y-99642857D01*
X155309523Y-99738095D01*
X155261904Y-99880952D01*
X154690476Y-100452380D01*
X155309523Y-100452380D01*
X146000000Y-98452380D02*
X146000000Y-97452380D01*
X146238095Y-97452380D01*
X146380952Y-97500000D01*
X146476190Y-97595238D01*
X146523809Y-97690476D01*
X146571428Y-97880952D01*
X146571428Y-98023809D01*
X146523809Y-98214285D01*
X146476190Y-98309523D01*
X146380952Y-98404761D01*
X146238095Y-98452380D01*
X146000000Y-98452380D01*
X147000000Y-97928571D02*
X147333333Y-97928571D01*
X147476190Y-98452380D02*
X147000000Y-98452380D01*
X147000000Y-97452380D01*
X147476190Y-97452380D01*
X147761904Y-97452380D02*
X148095238Y-98452380D01*
X148428571Y-97452380D01*
X148761904Y-98452380D02*
X148761904Y-97452380D01*
X149809523Y-98357142D02*
X149761904Y-98404761D01*
X149619047Y-98452380D01*
X149523809Y-98452380D01*
X149380952Y-98404761D01*
X149285714Y-98309523D01*
X149238095Y-98214285D01*
X149190476Y-98023809D01*
X149190476Y-97880952D01*
X149238095Y-97690476D01*
X149285714Y-97595238D01*
X149380952Y-97500000D01*
X149523809Y-97452380D01*
X149619047Y-97452380D01*
X149761904Y-97500000D01*
X149809523Y-97547619D01*
X150238095Y-97928571D02*
X150571428Y-97928571D01*
X150714285Y-98452380D02*
X150238095Y-98452380D01*
X150238095Y-97452380D01*
X150714285Y-97452380D01*
X151142857Y-98357142D02*
X151190476Y-98404761D01*
X151142857Y-98452380D01*
X151095238Y-98404761D01*
X151142857Y-98357142D01*
X151142857Y-98452380D01*
X151952380Y-97928571D02*
X151619047Y-97928571D01*
X151619047Y-98452380D02*
X151619047Y-97452380D01*
X152095238Y-97452380D01*
X152428571Y-98166666D02*
X152904761Y-98166666D01*
X152333333Y-98452380D02*
X152666666Y-97452380D01*
X153000000Y-98452380D01*
X153904761Y-98452380D02*
X153571428Y-97976190D01*
X153333333Y-98452380D02*
X153333333Y-97452380D01*
X153714285Y-97452380D01*
X153809523Y-97500000D01*
X153857142Y-97547619D01*
X153904761Y-97642857D01*
X153904761Y-97785714D01*
X153857142Y-97880952D01*
X153809523Y-97928571D01*
X153714285Y-97976190D01*
X153333333Y-97976190D01*
X154333333Y-98452380D02*
X154333333Y-97452380D01*
X154666666Y-98166666D01*
X155000000Y-97452380D01*
X155000000Y-98452380D01*
X135880952Y-94452380D02*
X135547619Y-93976190D01*
X135309523Y-94452380D02*
X135309523Y-93452380D01*
X135690476Y-93452380D01*
X135785714Y-93500000D01*
X135833333Y-93547619D01*
X135880952Y-93642857D01*
X135880952Y-93785714D01*
X135833333Y-93880952D01*
X135785714Y-93928571D01*
X135690476Y-93976190D01*
X135309523Y-93976190D01*
X136642857Y-93928571D02*
X136309523Y-93928571D01*
X136309523Y-94452380D02*
X136309523Y-93452380D01*
X136785714Y-93452380D01*
X137166666Y-94452380D02*
X137166666Y-93452380D01*
X137404761Y-93452380D01*
X137547619Y-93500000D01*
X137642857Y-93595238D01*
X137690476Y-93690476D01*
X137738095Y-93880952D01*
X137738095Y-94023809D01*
X137690476Y-94214285D01*
X137642857Y-94309523D01*
X137547619Y-94404761D01*
X137404761Y-94452380D01*
X137166666Y-94452380D01*
X130642857Y-101404761D02*
X130785714Y-101452380D01*
X131023809Y-101452380D01*
X131119047Y-101404761D01*
X131166666Y-101357142D01*
X131214285Y-101261904D01*
X131214285Y-101166666D01*
X131166666Y-101071428D01*
X131119047Y-101023809D01*
X131023809Y-100976190D01*
X130833333Y-100928571D01*
X130738095Y-100880952D01*
X130690476Y-100833333D01*
X130642857Y-100738095D01*
X130642857Y-100642857D01*
X130690476Y-100547619D01*
X130738095Y-100500000D01*
X130833333Y-100452380D01*
X131071428Y-100452380D01*
X131214285Y-100500000D01*
X131547619Y-100452380D02*
X131785714Y-101452380D01*
X131976190Y-100738095D01*
X132166666Y-101452380D01*
X132404761Y-100452380D01*
X132785714Y-101452380D02*
X132785714Y-100452380D01*
X133023809Y-100452380D01*
X133166666Y-100500000D01*
X133261904Y-100595238D01*
X133309523Y-100690476D01*
X133357142Y-100880952D01*
X133357142Y-101023809D01*
X133309523Y-101214285D01*
X133261904Y-101309523D01*
X133166666Y-101404761D01*
X133023809Y-101452380D01*
X132785714Y-101452380D01*
D11*
G04 #@! TO.C,AE1*
X152170000Y-95330000D02*
X154830000Y-95330000D01*
X152170000Y-95270000D02*
X152170000Y-95330000D01*
X154830000Y-95270000D02*
X154830000Y-95330000D01*
X152170000Y-95270000D02*
X154830000Y-95270000D01*
X152170000Y-94000000D02*
X152170000Y-92670000D01*
X152170000Y-92670000D02*
X153500000Y-92670000D01*
G04 #@! TO.C,C1*
X149303922Y-92710000D02*
X149821078Y-92710000D01*
X149303922Y-91290000D02*
X149821078Y-91290000D01*
G04 #@! TO.C,C2*
X120710000Y-89258578D02*
X120710000Y-88741422D01*
X119290000Y-89258578D02*
X119290000Y-88741422D01*
G04 #@! TO.C,C3*
X143758578Y-98290000D02*
X143241422Y-98290000D01*
X143758578Y-99710000D02*
X143241422Y-99710000D01*
G04 #@! TO.C,C4*
X136790000Y-90803922D02*
X136790000Y-91321078D01*
X138210000Y-90803922D02*
X138210000Y-91321078D01*
G04 #@! TO.C,C5*
X123258578Y-95210000D02*
X122741422Y-95210000D01*
X123258578Y-93790000D02*
X122741422Y-93790000D01*
G04 #@! TO.C,C6*
X122741422Y-98790000D02*
X123258578Y-98790000D01*
X122741422Y-100210000D02*
X123258578Y-100210000D01*
G04 #@! TO.C,C7*
X123258578Y-97710000D02*
X122741422Y-97710000D01*
X123258578Y-96290000D02*
X122741422Y-96290000D01*
G04 #@! TO.C,C8*
X135710000Y-90803922D02*
X135710000Y-91321078D01*
X134290000Y-90803922D02*
X134290000Y-91321078D01*
G04 #@! TO.C,D1*
X143500000Y-88960000D02*
X146185000Y-88960000D01*
X146185000Y-88960000D02*
X146185000Y-87040000D01*
X146185000Y-87040000D02*
X143500000Y-87040000D01*
D12*
G04 #@! TO.C,J1*
X111001020Y-89798840D02*
X111001020Y-98201160D01*
X110899420Y-89798840D02*
X110899420Y-98201160D01*
X110899420Y-98201160D02*
X111100080Y-98201160D01*
X111100080Y-98201160D02*
X111100080Y-89798840D01*
X111100080Y-89798840D02*
X110899420Y-89798840D01*
X110899420Y-90101100D02*
X115900680Y-90101100D01*
X115900680Y-90101100D02*
X115900680Y-97898900D01*
X115900680Y-97898900D02*
X110899420Y-97898900D01*
D11*
G04 #@! TO.C,L1*
X147790000Y-88803922D02*
X147790000Y-89321078D01*
X149210000Y-88803922D02*
X149210000Y-89321078D01*
G04 #@! TO.C,L2*
X150210000Y-94741422D02*
X150210000Y-95258578D01*
X148790000Y-94741422D02*
X148790000Y-95258578D01*
G04 #@! TO.C,R1*
X140241422Y-87290000D02*
X140758578Y-87290000D01*
X140241422Y-88710000D02*
X140758578Y-88710000D01*
G04 #@! TO.C,TP1*
X137830000Y-95130000D02*
X135170000Y-95130000D01*
X137830000Y-97730000D02*
X137830000Y-95130000D01*
X135170000Y-97730000D02*
X135170000Y-95130000D01*
X137830000Y-97730000D02*
X135170000Y-97730000D01*
X137830000Y-99000000D02*
X137830000Y-100330000D01*
X137830000Y-100330000D02*
X136500000Y-100330000D01*
D13*
G04 #@! TO.C,U1*
X141425000Y-91425000D02*
X141425000Y-91475000D01*
X145575000Y-91425000D02*
X145575000Y-91570000D01*
X145575000Y-96575000D02*
X145575000Y-96430000D01*
X141425000Y-96575000D02*
X141425000Y-96430000D01*
X141425000Y-91425000D02*
X145575000Y-91425000D01*
X141425000Y-96575000D02*
X145575000Y-96575000D01*
X141425000Y-91475000D02*
X140025000Y-91475000D01*
D11*
G04 #@! TO.C,U2*
X117600000Y-100110000D02*
X119400000Y-100110000D01*
X119400000Y-96890000D02*
X116950000Y-96890000D01*
D13*
G04 #@! TO.C,U3*
X127425000Y-87550000D02*
X127425000Y-87575000D01*
X131575000Y-87550000D02*
X131575000Y-87665000D01*
X131575000Y-96450000D02*
X131575000Y-96335000D01*
X127425000Y-96450000D02*
X127425000Y-96335000D01*
X127425000Y-87550000D02*
X131575000Y-87550000D01*
X127425000Y-96450000D02*
X131575000Y-96450000D01*
X127425000Y-87575000D02*
X126050000Y-87575000D01*
G04 #@! TO.C,X1*
X130770000Y-100270000D02*
X130770000Y-97730000D01*
X133310000Y-100270000D02*
X125690000Y-100270000D01*
X125690000Y-100270000D02*
X125690000Y-97730000D01*
X125690000Y-97730000D02*
X133310000Y-97730000D01*
X133310000Y-97730000D02*
X133310000Y-100270000D01*
D11*
G04 #@! TO.C,X2*
X121700000Y-90600000D02*
X124300000Y-90600000D01*
X124300000Y-90600000D02*
X124300000Y-87400000D01*
G04 #@! TO.C,C1*
D13*
X150333333Y-90707142D02*
X150285714Y-90754761D01*
X150142857Y-90802380D01*
X150047619Y-90802380D01*
X149904761Y-90754761D01*
X149809523Y-90659523D01*
X149761904Y-90564285D01*
X149714285Y-90373809D01*
X149714285Y-90230952D01*
X149761904Y-90040476D01*
X149809523Y-89945238D01*
X149904761Y-89850000D01*
X150047619Y-89802380D01*
X150142857Y-89802380D01*
X150285714Y-89850000D01*
X150333333Y-89897619D01*
X151285714Y-90802380D02*
X150714285Y-90802380D01*
X151000000Y-90802380D02*
X151000000Y-89802380D01*
X150904761Y-89945238D01*
X150809523Y-90040476D01*
X150714285Y-90088095D01*
G04 #@! TO.C,C2*
X118707142Y-89166666D02*
X118754761Y-89214285D01*
X118802380Y-89357142D01*
X118802380Y-89452380D01*
X118754761Y-89595238D01*
X118659523Y-89690476D01*
X118564285Y-89738095D01*
X118373809Y-89785714D01*
X118230952Y-89785714D01*
X118040476Y-89738095D01*
X117945238Y-89690476D01*
X117850000Y-89595238D01*
X117802380Y-89452380D01*
X117802380Y-89357142D01*
X117850000Y-89214285D01*
X117897619Y-89166666D01*
X117897619Y-88785714D02*
X117850000Y-88738095D01*
X117802380Y-88642857D01*
X117802380Y-88404761D01*
X117850000Y-88309523D01*
X117897619Y-88261904D01*
X117992857Y-88214285D01*
X118088095Y-88214285D01*
X118230952Y-88261904D01*
X118802380Y-88833333D01*
X118802380Y-88214285D01*
G04 #@! TO.C,C3*
X143333333Y-101007142D02*
X143285714Y-101054761D01*
X143142857Y-101102380D01*
X143047619Y-101102380D01*
X142904761Y-101054761D01*
X142809523Y-100959523D01*
X142761904Y-100864285D01*
X142714285Y-100673809D01*
X142714285Y-100530952D01*
X142761904Y-100340476D01*
X142809523Y-100245238D01*
X142904761Y-100150000D01*
X143047619Y-100102380D01*
X143142857Y-100102380D01*
X143285714Y-100150000D01*
X143333333Y-100197619D01*
X143666666Y-100102380D02*
X144285714Y-100102380D01*
X143952380Y-100483333D01*
X144095238Y-100483333D01*
X144190476Y-100530952D01*
X144238095Y-100578571D01*
X144285714Y-100673809D01*
X144285714Y-100911904D01*
X144238095Y-101007142D01*
X144190476Y-101054761D01*
X144095238Y-101102380D01*
X143809523Y-101102380D01*
X143714285Y-101054761D01*
X143666666Y-101007142D01*
G04 #@! TO.C,C4*
X137333333Y-88857142D02*
X137285714Y-88904761D01*
X137142857Y-88952380D01*
X137047619Y-88952380D01*
X136904761Y-88904761D01*
X136809523Y-88809523D01*
X136761904Y-88714285D01*
X136714285Y-88523809D01*
X136714285Y-88380952D01*
X136761904Y-88190476D01*
X136809523Y-88095238D01*
X136904761Y-88000000D01*
X137047619Y-87952380D01*
X137142857Y-87952380D01*
X137285714Y-88000000D01*
X137333333Y-88047619D01*
X138190476Y-88285714D02*
X138190476Y-88952380D01*
X137952380Y-87904761D02*
X137714285Y-88619047D01*
X138333333Y-88619047D01*
G04 #@! TO.C,C5*
X122833333Y-93357142D02*
X122785714Y-93404761D01*
X122642857Y-93452380D01*
X122547619Y-93452380D01*
X122404761Y-93404761D01*
X122309523Y-93309523D01*
X122261904Y-93214285D01*
X122214285Y-93023809D01*
X122214285Y-92880952D01*
X122261904Y-92690476D01*
X122309523Y-92595238D01*
X122404761Y-92500000D01*
X122547619Y-92452380D01*
X122642857Y-92452380D01*
X122785714Y-92500000D01*
X122833333Y-92547619D01*
X123738095Y-92452380D02*
X123261904Y-92452380D01*
X123214285Y-92928571D01*
X123261904Y-92880952D01*
X123357142Y-92833333D01*
X123595238Y-92833333D01*
X123690476Y-92880952D01*
X123738095Y-92928571D01*
X123785714Y-93023809D01*
X123785714Y-93261904D01*
X123738095Y-93357142D01*
X123690476Y-93404761D01*
X123595238Y-93452380D01*
X123357142Y-93452380D01*
X123261904Y-93404761D01*
X123214285Y-93357142D01*
G04 #@! TO.C,C6*
X119833333Y-96357142D02*
X119785714Y-96404761D01*
X119642857Y-96452380D01*
X119547619Y-96452380D01*
X119404761Y-96404761D01*
X119309523Y-96309523D01*
X119261904Y-96214285D01*
X119214285Y-96023809D01*
X119214285Y-95880952D01*
X119261904Y-95690476D01*
X119309523Y-95595238D01*
X119404761Y-95500000D01*
X119547619Y-95452380D01*
X119642857Y-95452380D01*
X119785714Y-95500000D01*
X119833333Y-95547619D01*
X120690476Y-95452380D02*
X120500000Y-95452380D01*
X120404761Y-95500000D01*
X120357142Y-95547619D01*
X120261904Y-95690476D01*
X120214285Y-95880952D01*
X120214285Y-96261904D01*
X120261904Y-96357142D01*
X120309523Y-96404761D01*
X120404761Y-96452380D01*
X120595238Y-96452380D01*
X120690476Y-96404761D01*
X120738095Y-96357142D01*
X120785714Y-96261904D01*
X120785714Y-96023809D01*
X120738095Y-95928571D01*
X120690476Y-95880952D01*
X120595238Y-95833333D01*
X120404761Y-95833333D01*
X120309523Y-95880952D01*
X120261904Y-95928571D01*
X120214285Y-96023809D01*
G04 #@! TO.C,C7*
X122833333Y-101357142D02*
X122785714Y-101404761D01*
X122642857Y-101452380D01*
X122547619Y-101452380D01*
X122404761Y-101404761D01*
X122309523Y-101309523D01*
X122261904Y-101214285D01*
X122214285Y-101023809D01*
X122214285Y-100880952D01*
X122261904Y-100690476D01*
X122309523Y-100595238D01*
X122404761Y-100500000D01*
X122547619Y-100452380D01*
X122642857Y-100452380D01*
X122785714Y-100500000D01*
X122833333Y-100547619D01*
X123166666Y-100452380D02*
X123833333Y-100452380D01*
X123404761Y-101452380D01*
G04 #@! TO.C,C8*
X134833333Y-88857142D02*
X134785714Y-88904761D01*
X134642857Y-88952380D01*
X134547619Y-88952380D01*
X134404761Y-88904761D01*
X134309523Y-88809523D01*
X134261904Y-88714285D01*
X134214285Y-88523809D01*
X134214285Y-88380952D01*
X134261904Y-88190476D01*
X134309523Y-88095238D01*
X134404761Y-88000000D01*
X134547619Y-87952380D01*
X134642857Y-87952380D01*
X134785714Y-88000000D01*
X134833333Y-88047619D01*
X135404761Y-88380952D02*
X135309523Y-88333333D01*
X135261904Y-88285714D01*
X135214285Y-88190476D01*
X135214285Y-88142857D01*
X135261904Y-88047619D01*
X135309523Y-88000000D01*
X135404761Y-87952380D01*
X135595238Y-87952380D01*
X135690476Y-88000000D01*
X135738095Y-88047619D01*
X135785714Y-88142857D01*
X135785714Y-88190476D01*
X135738095Y-88285714D01*
X135690476Y-88333333D01*
X135595238Y-88380952D01*
X135404761Y-88380952D01*
X135309523Y-88428571D01*
X135261904Y-88476190D01*
X135214285Y-88571428D01*
X135214285Y-88761904D01*
X135261904Y-88857142D01*
X135309523Y-88904761D01*
X135404761Y-88952380D01*
X135595238Y-88952380D01*
X135690476Y-88904761D01*
X135738095Y-88857142D01*
X135785714Y-88761904D01*
X135785714Y-88571428D01*
X135738095Y-88476190D01*
X135690476Y-88428571D01*
X135595238Y-88380952D01*
G04 #@! TO.C,D1*
X143761904Y-90452380D02*
X143761904Y-89452380D01*
X144000000Y-89452380D01*
X144142857Y-89500000D01*
X144238095Y-89595238D01*
X144285714Y-89690476D01*
X144333333Y-89880952D01*
X144333333Y-90023809D01*
X144285714Y-90214285D01*
X144238095Y-90309523D01*
X144142857Y-90404761D01*
X144000000Y-90452380D01*
X143761904Y-90452380D01*
X145285714Y-90452380D02*
X144714285Y-90452380D01*
X145000000Y-90452380D02*
X145000000Y-89452380D01*
X144904761Y-89595238D01*
X144809523Y-89690476D01*
X144714285Y-89738095D01*
G04 #@! TO.C,L1*
X150333333Y-88452380D02*
X149857142Y-88452380D01*
X149857142Y-87452380D01*
X151190476Y-88452380D02*
X150619047Y-88452380D01*
X150904761Y-88452380D02*
X150904761Y-87452380D01*
X150809523Y-87595238D01*
X150714285Y-87690476D01*
X150619047Y-87738095D01*
G04 #@! TO.C,L2*
X148452380Y-95166666D02*
X148452380Y-95642857D01*
X147452380Y-95642857D01*
X147547619Y-94880952D02*
X147500000Y-94833333D01*
X147452380Y-94738095D01*
X147452380Y-94500000D01*
X147500000Y-94404761D01*
X147547619Y-94357142D01*
X147642857Y-94309523D01*
X147738095Y-94309523D01*
X147880952Y-94357142D01*
X148452380Y-94928571D01*
X148452380Y-94309523D01*
G04 #@! TO.C,R1*
X140333333Y-90452380D02*
X140000000Y-89976190D01*
X139761904Y-90452380D02*
X139761904Y-89452380D01*
X140142857Y-89452380D01*
X140238095Y-89500000D01*
X140285714Y-89547619D01*
X140333333Y-89642857D01*
X140333333Y-89785714D01*
X140285714Y-89880952D01*
X140238095Y-89928571D01*
X140142857Y-89976190D01*
X139761904Y-89976190D01*
X141285714Y-90452380D02*
X140714285Y-90452380D01*
X141000000Y-90452380D02*
X141000000Y-89452380D01*
X140904761Y-89595238D01*
X140809523Y-89690476D01*
X140714285Y-89738095D01*
G04 #@! TO.C,U1*
X142738095Y-93452380D02*
X142738095Y-94261904D01*
X142785714Y-94357142D01*
X142833333Y-94404761D01*
X142928571Y-94452380D01*
X143119047Y-94452380D01*
X143214285Y-94404761D01*
X143261904Y-94357142D01*
X143309523Y-94261904D01*
X143309523Y-93452380D01*
X144309523Y-94452380D02*
X143738095Y-94452380D01*
X144023809Y-94452380D02*
X144023809Y-93452380D01*
X143928571Y-93595238D01*
X143833333Y-93690476D01*
X143738095Y-93738095D01*
G04 #@! TO.C,U2*
X114238095Y-99452380D02*
X114238095Y-100261904D01*
X114285714Y-100357142D01*
X114333333Y-100404761D01*
X114428571Y-100452380D01*
X114619047Y-100452380D01*
X114714285Y-100404761D01*
X114761904Y-100357142D01*
X114809523Y-100261904D01*
X114809523Y-99452380D01*
X115238095Y-99547619D02*
X115285714Y-99500000D01*
X115380952Y-99452380D01*
X115619047Y-99452380D01*
X115714285Y-99500000D01*
X115761904Y-99547619D01*
X115809523Y-99642857D01*
X115809523Y-99738095D01*
X115761904Y-99880952D01*
X115190476Y-100452380D01*
X115809523Y-100452380D01*
G04 #@! TO.C,U3*
X128238095Y-87952380D02*
X128238095Y-88761904D01*
X128285714Y-88857142D01*
X128333333Y-88904761D01*
X128428571Y-88952380D01*
X128619047Y-88952380D01*
X128714285Y-88904761D01*
X128761904Y-88857142D01*
X128809523Y-88761904D01*
X128809523Y-87952380D01*
X129190476Y-87952380D02*
X129809523Y-87952380D01*
X129476190Y-88333333D01*
X129619047Y-88333333D01*
X129714285Y-88380952D01*
X129761904Y-88428571D01*
X129809523Y-88523809D01*
X129809523Y-88761904D01*
X129761904Y-88857142D01*
X129714285Y-88904761D01*
X129619047Y-88952380D01*
X129333333Y-88952380D01*
X129238095Y-88904761D01*
X129190476Y-88857142D01*
G04 #@! TO.C,X2*
X122190476Y-90952380D02*
X122857142Y-91952380D01*
X122857142Y-90952380D02*
X122190476Y-91952380D01*
X123190476Y-91047619D02*
X123238095Y-91000000D01*
X123333333Y-90952380D01*
X123571428Y-90952380D01*
X123666666Y-91000000D01*
X123714285Y-91047619D01*
X123761904Y-91142857D01*
X123761904Y-91238095D01*
X123714285Y-91380952D01*
X123142857Y-91952380D01*
X123761904Y-91952380D01*
G04 #@! TD*
M02*
