G04 #@! TF.GenerationSoftware,KiCad,Pcbnew,5.0.2-bee76a0~70~ubuntu16.04.1*
G04 #@! TF.CreationDate,2019-09-10T18:11:14+02:00*
G04 #@! TF.ProjectId,hw-USB-RF,68772d55-5342-42d5-9246-2e6b69636164,rev?*
G04 #@! TF.SameCoordinates,Original*
G04 #@! TF.FileFunction,Soldermask,Bot*
G04 #@! TF.FilePolarity,Negative*
%FSLAX46Y46*%
G04 Gerber Fmt 4.6, Leading zero omitted, Abs format (unit mm)*
G04 Created by KiCad (PCBNEW 5.0.2-bee76a0~70~ubuntu16.04.1) date Tue 10 Sep 2019 06:11:14 PM CEST*
%MOMM*%
%LPD*%
G01*
G04 APERTURE LIST*
%ADD10C,0.100000*%
G04 APERTURE END LIST*
D10*
G36*
X137350000Y-99850000D02*
X135650000Y-99850000D01*
X135650000Y-98150000D01*
X137350000Y-98150000D01*
X137350000Y-99850000D01*
X137350000Y-99850000D01*
G37*
G36*
X132213195Y-98257522D02*
X132262267Y-98267283D01*
X132400942Y-98324724D01*
X132525750Y-98408118D01*
X132631882Y-98514250D01*
X132715276Y-98639058D01*
X132772717Y-98777734D01*
X132802000Y-98924948D01*
X132802000Y-99075052D01*
X132772717Y-99222266D01*
X132715276Y-99360942D01*
X132631882Y-99485750D01*
X132525750Y-99591882D01*
X132525747Y-99591884D01*
X132400942Y-99675276D01*
X132262267Y-99732717D01*
X132213195Y-99742478D01*
X132115052Y-99762000D01*
X131964948Y-99762000D01*
X131866805Y-99742478D01*
X131817733Y-99732717D01*
X131679058Y-99675276D01*
X131554253Y-99591884D01*
X131554250Y-99591882D01*
X131448118Y-99485750D01*
X131364724Y-99360942D01*
X131307283Y-99222266D01*
X131278000Y-99075052D01*
X131278000Y-98924948D01*
X131307283Y-98777734D01*
X131364724Y-98639058D01*
X131448118Y-98514250D01*
X131554250Y-98408118D01*
X131679058Y-98324724D01*
X131817733Y-98267283D01*
X131866805Y-98257522D01*
X131964948Y-98238000D01*
X132115052Y-98238000D01*
X132213195Y-98257522D01*
X132213195Y-98257522D01*
G37*
G36*
X129673195Y-98257522D02*
X129722267Y-98267283D01*
X129860942Y-98324724D01*
X129985750Y-98408118D01*
X130091882Y-98514250D01*
X130175276Y-98639058D01*
X130232717Y-98777734D01*
X130262000Y-98924948D01*
X130262000Y-99075052D01*
X130232717Y-99222266D01*
X130175276Y-99360942D01*
X130091882Y-99485750D01*
X129985750Y-99591882D01*
X129985747Y-99591884D01*
X129860942Y-99675276D01*
X129722267Y-99732717D01*
X129673195Y-99742478D01*
X129575052Y-99762000D01*
X129424948Y-99762000D01*
X129326805Y-99742478D01*
X129277733Y-99732717D01*
X129139058Y-99675276D01*
X129014253Y-99591884D01*
X129014250Y-99591882D01*
X128908118Y-99485750D01*
X128824724Y-99360942D01*
X128767283Y-99222266D01*
X128738000Y-99075052D01*
X128738000Y-98924948D01*
X128767283Y-98777734D01*
X128824724Y-98639058D01*
X128908118Y-98514250D01*
X129014250Y-98408118D01*
X129139058Y-98324724D01*
X129277733Y-98267283D01*
X129326805Y-98257522D01*
X129424948Y-98238000D01*
X129575052Y-98238000D01*
X129673195Y-98257522D01*
X129673195Y-98257522D01*
G37*
G36*
X127133195Y-98257522D02*
X127182267Y-98267283D01*
X127320942Y-98324724D01*
X127445750Y-98408118D01*
X127551882Y-98514250D01*
X127635276Y-98639058D01*
X127692717Y-98777734D01*
X127722000Y-98924948D01*
X127722000Y-99075052D01*
X127692717Y-99222266D01*
X127635276Y-99360942D01*
X127551882Y-99485750D01*
X127445750Y-99591882D01*
X127445747Y-99591884D01*
X127320942Y-99675276D01*
X127182267Y-99732717D01*
X127133195Y-99742478D01*
X127035052Y-99762000D01*
X126884948Y-99762000D01*
X126786805Y-99742478D01*
X126737733Y-99732717D01*
X126599058Y-99675276D01*
X126474253Y-99591884D01*
X126474250Y-99591882D01*
X126368118Y-99485750D01*
X126284724Y-99360942D01*
X126227283Y-99222266D01*
X126198000Y-99075052D01*
X126198000Y-98924948D01*
X126227283Y-98777734D01*
X126284724Y-98639058D01*
X126368118Y-98514250D01*
X126474250Y-98408118D01*
X126599058Y-98324724D01*
X126737733Y-98267283D01*
X126786805Y-98257522D01*
X126884948Y-98238000D01*
X127035052Y-98238000D01*
X127133195Y-98257522D01*
X127133195Y-98257522D01*
G37*
G36*
X136666630Y-95622299D02*
X136826855Y-95670903D01*
X136974520Y-95749831D01*
X137103949Y-95856051D01*
X137210169Y-95985480D01*
X137289097Y-96133145D01*
X137337701Y-96293370D01*
X137354112Y-96460000D01*
X137337701Y-96626630D01*
X137289097Y-96786855D01*
X137210169Y-96934520D01*
X137103949Y-97063949D01*
X136974520Y-97170169D01*
X136826855Y-97249097D01*
X136666630Y-97297701D01*
X136541752Y-97310000D01*
X136458248Y-97310000D01*
X136333370Y-97297701D01*
X136173145Y-97249097D01*
X136025480Y-97170169D01*
X135896051Y-97063949D01*
X135789831Y-96934520D01*
X135710903Y-96786855D01*
X135662299Y-96626630D01*
X135645888Y-96460000D01*
X135662299Y-96293370D01*
X135710903Y-96133145D01*
X135789831Y-95985480D01*
X135896051Y-95856051D01*
X136025480Y-95749831D01*
X136173145Y-95670903D01*
X136333370Y-95622299D01*
X136458248Y-95610000D01*
X136541752Y-95610000D01*
X136666630Y-95622299D01*
X136666630Y-95622299D01*
G37*
G36*
X115262620Y-95513924D02*
X115335193Y-95543985D01*
X115400508Y-95587627D01*
X115456053Y-95643172D01*
X115499695Y-95708487D01*
X115529756Y-95781060D01*
X115545080Y-95858104D01*
X115545080Y-95936656D01*
X115529756Y-96013700D01*
X115499695Y-96086273D01*
X115456053Y-96151588D01*
X115400508Y-96207133D01*
X115335193Y-96250775D01*
X115262620Y-96280836D01*
X115185576Y-96296160D01*
X115107024Y-96296160D01*
X115029980Y-96280836D01*
X114957407Y-96250775D01*
X114892092Y-96207133D01*
X114836547Y-96151588D01*
X114792905Y-96086273D01*
X114762844Y-96013700D01*
X114747520Y-95936656D01*
X114747520Y-95858104D01*
X114762844Y-95781060D01*
X114792905Y-95708487D01*
X114836547Y-95643172D01*
X114892092Y-95587627D01*
X114957407Y-95543985D01*
X115029980Y-95513924D01*
X115107024Y-95498600D01*
X115185576Y-95498600D01*
X115262620Y-95513924D01*
X115262620Y-95513924D01*
G37*
G36*
X154350000Y-94850000D02*
X152650000Y-94850000D01*
X152650000Y-93150000D01*
X154350000Y-93150000D01*
X154350000Y-94850000D01*
X154350000Y-94850000D01*
G37*
G36*
X115265160Y-91716624D02*
X115337733Y-91746685D01*
X115403048Y-91790327D01*
X115458593Y-91845872D01*
X115502235Y-91911187D01*
X115532296Y-91983760D01*
X115547620Y-92060804D01*
X115547620Y-92139356D01*
X115532296Y-92216400D01*
X115502235Y-92288973D01*
X115458593Y-92354288D01*
X115403048Y-92409833D01*
X115337733Y-92453475D01*
X115265160Y-92483536D01*
X115188116Y-92498860D01*
X115109564Y-92498860D01*
X115032520Y-92483536D01*
X114959947Y-92453475D01*
X114894632Y-92409833D01*
X114839087Y-92354288D01*
X114795445Y-92288973D01*
X114765384Y-92216400D01*
X114750060Y-92139356D01*
X114750060Y-92060804D01*
X114765384Y-91983760D01*
X114795445Y-91911187D01*
X114839087Y-91845872D01*
X114894632Y-91790327D01*
X114959947Y-91746685D01*
X115032520Y-91716624D01*
X115109564Y-91701300D01*
X115188116Y-91701300D01*
X115265160Y-91716624D01*
X115265160Y-91716624D01*
G37*
M02*
