G04 #@! TF.GenerationSoftware,KiCad,Pcbnew,5.0.2-bee76a0~70~ubuntu16.04.1*
G04 #@! TF.CreationDate,2019-09-11T01:23:10+02:00*
G04 #@! TF.ProjectId,hw-USB-RF,68772d55-5342-42d5-9246-2e6b69636164,rev?*
G04 #@! TF.SameCoordinates,Original*
G04 #@! TF.FileFunction,Copper,L2,Bot*
G04 #@! TF.FilePolarity,Positive*
%FSLAX46Y46*%
G04 Gerber Fmt 4.6, Leading zero omitted, Abs format (unit mm)*
G04 Created by KiCad (PCBNEW 5.0.2-bee76a0~70~ubuntu16.04.1) date Wed 11 Sep 2019 01:23:10 AM CEST*
%MOMM*%
%LPD*%
G01*
G04 APERTURE LIST*
G04 #@! TA.AperFunction,ComponentPad*
%ADD10R,1.700000X1.700000*%
G04 #@! TD*
G04 #@! TA.AperFunction,ComponentPad*
%ADD11C,0.797560*%
G04 #@! TD*
G04 #@! TA.AperFunction,ComponentPad*
%ADD12O,1.700000X1.700000*%
G04 #@! TD*
G04 #@! TA.AperFunction,ComponentPad*
%ADD13C,1.524000*%
G04 #@! TD*
G04 #@! TA.AperFunction,ViaPad*
%ADD14C,0.800000*%
G04 #@! TD*
G04 #@! TA.AperFunction,Conductor*
%ADD15C,0.250000*%
G04 #@! TD*
G04 #@! TA.AperFunction,Conductor*
%ADD16C,0.254000*%
G04 #@! TD*
G04 APERTURE END LIST*
D10*
G04 #@! TO.P,AE1,1*
G04 #@! TO.N,Net-(AE1-Pad1)*
X150000000Y-94000000D03*
G04 #@! TD*
D11*
G04 #@! TO.P,J1,5*
G04 #@! TO.N,GND*
X115146300Y-95897380D03*
G04 #@! TO.P,J1,1*
G04 #@! TO.N,+5V*
X115148840Y-92100080D03*
G04 #@! TD*
D10*
G04 #@! TO.P,TP1,1*
G04 #@! TO.N,GND*
X144500000Y-88500000D03*
D12*
G04 #@! TO.P,TP1,2*
G04 #@! TO.N,/RF_DATA*
X141960000Y-88500000D03*
G04 #@! TD*
D13*
G04 #@! TO.P,X1,1*
G04 #@! TO.N,/SWDIO*
X132040000Y-99000000D03*
G04 #@! TO.P,X1,2*
G04 #@! TO.N,GND*
X129500000Y-99000000D03*
G04 #@! TO.P,X1,3*
G04 #@! TO.N,/SWCLK*
X126960000Y-99000000D03*
G04 #@! TD*
D14*
G04 #@! TO.N,GND*
X123937500Y-99500000D03*
X113000000Y-90050300D03*
X113000000Y-92801120D03*
X113000000Y-95198880D03*
X113000000Y-97949700D03*
X116012822Y-98499975D03*
X122062500Y-94500000D03*
X124000000Y-89937500D03*
X118000000Y-88062500D03*
X123937500Y-97000000D03*
X135000000Y-91937500D03*
X137687500Y-96500000D03*
X142500000Y-95500000D03*
X147062500Y-88000000D03*
X138000000Y-91937500D03*
G04 #@! TO.N,+3V3*
X136500000Y-90062500D03*
X136500000Y-100000000D03*
G04 #@! TO.N,+5V*
X118530236Y-98500000D03*
G04 #@! TO.N,/USB_DM*
X130000000Y-93000000D03*
X130000000Y-95000000D03*
G04 #@! TO.N,/LED*
X137687500Y-94000000D03*
X139000000Y-87500000D03*
G04 #@! TD*
D15*
G04 #@! TO.N,+3V3*
X136500000Y-90062500D02*
X136437500Y-90000000D01*
X136000000Y-99500000D02*
X136500000Y-100000000D01*
X135000000Y-90000000D02*
X134000000Y-91000000D01*
X134000000Y-97500000D02*
X136000000Y-99500000D01*
X136437500Y-90000000D02*
X135000000Y-90000000D01*
X134000000Y-91000000D02*
X134000000Y-97500000D01*
G04 #@! TO.N,+5V*
X118530236Y-95481476D02*
X118530236Y-97934315D01*
X115148840Y-92100080D02*
X118530236Y-95481476D01*
X118530236Y-97934315D02*
X118530236Y-98500000D01*
G04 #@! TO.N,/USB_DM*
X130000000Y-93000000D02*
X130000000Y-94500000D01*
X130000000Y-94500000D02*
X130000000Y-95000000D01*
G04 #@! TO.N,/LED*
X139500000Y-88000000D02*
X139000000Y-87500000D01*
X138500000Y-94000000D02*
X139500000Y-93000000D01*
X139500000Y-93000000D02*
X139500000Y-88000000D01*
X137687500Y-94000000D02*
X138500000Y-94000000D01*
G04 #@! TD*
D16*
G04 #@! TO.N,GND*
G36*
X138122569Y-86913720D02*
X137965000Y-87294126D01*
X137965000Y-87705874D01*
X138122569Y-88086280D01*
X138413720Y-88377431D01*
X138740001Y-88512581D01*
X138740000Y-92685198D01*
X138288205Y-93136994D01*
X138273780Y-93122569D01*
X137893374Y-92965000D01*
X137481626Y-92965000D01*
X137101220Y-93122569D01*
X136810069Y-93413720D01*
X136652500Y-93794126D01*
X136652500Y-94205874D01*
X136810069Y-94586280D01*
X137101220Y-94877431D01*
X137481626Y-95035000D01*
X137893374Y-95035000D01*
X138273780Y-94877431D01*
X138391211Y-94760000D01*
X138425153Y-94760000D01*
X138500000Y-94774888D01*
X138574847Y-94760000D01*
X138574852Y-94760000D01*
X138796537Y-94715904D01*
X139047929Y-94547929D01*
X139090331Y-94484470D01*
X139984473Y-93590329D01*
X140047929Y-93547929D01*
X140215904Y-93296537D01*
X140260000Y-93074852D01*
X140260000Y-93074848D01*
X140274888Y-93000000D01*
X140260000Y-92925152D01*
X140260000Y-88500000D01*
X140445908Y-88500000D01*
X140561161Y-89079418D01*
X140889375Y-89570625D01*
X141380582Y-89898839D01*
X141813744Y-89985000D01*
X142106256Y-89985000D01*
X142539418Y-89898839D01*
X143030625Y-89570625D01*
X143045096Y-89548967D01*
X143111673Y-89709698D01*
X143290301Y-89888327D01*
X143523690Y-89985000D01*
X144214250Y-89985000D01*
X144373000Y-89826250D01*
X144373000Y-88627000D01*
X144627000Y-88627000D01*
X144627000Y-89826250D01*
X144785750Y-89985000D01*
X145476310Y-89985000D01*
X145709699Y-89888327D01*
X145888327Y-89709698D01*
X145985000Y-89476309D01*
X145985000Y-88785750D01*
X145826250Y-88627000D01*
X144627000Y-88627000D01*
X144373000Y-88627000D01*
X144353000Y-88627000D01*
X144353000Y-88373000D01*
X144373000Y-88373000D01*
X144373000Y-87173750D01*
X144627000Y-87173750D01*
X144627000Y-88373000D01*
X145826250Y-88373000D01*
X145985000Y-88214250D01*
X145985000Y-87523691D01*
X145888327Y-87290302D01*
X145709699Y-87111673D01*
X145476310Y-87015000D01*
X144785750Y-87015000D01*
X144627000Y-87173750D01*
X144373000Y-87173750D01*
X144214250Y-87015000D01*
X143523690Y-87015000D01*
X143290301Y-87111673D01*
X143111673Y-87290302D01*
X143045096Y-87451033D01*
X143030625Y-87429375D01*
X142539418Y-87101161D01*
X142106256Y-87015000D01*
X141813744Y-87015000D01*
X141380582Y-87101161D01*
X140889375Y-87429375D01*
X140561161Y-87920582D01*
X140445908Y-88500000D01*
X140260000Y-88500000D01*
X140260000Y-88074848D01*
X140274888Y-88000000D01*
X140260000Y-87925152D01*
X140260000Y-87925148D01*
X140215904Y-87703463D01*
X140215904Y-87703462D01*
X140090329Y-87515527D01*
X140047929Y-87452071D01*
X140035000Y-87443432D01*
X140035000Y-87294126D01*
X139877431Y-86913720D01*
X139648711Y-86685000D01*
X149951197Y-86685000D01*
X150367116Y-86744564D01*
X150704719Y-86898063D01*
X150985669Y-87140146D01*
X151187383Y-87451352D01*
X151300431Y-87829357D01*
X151315001Y-88025425D01*
X151315001Y-92702954D01*
X151307809Y-92692191D01*
X151097765Y-92551843D01*
X150850000Y-92502560D01*
X149150000Y-92502560D01*
X148902235Y-92551843D01*
X148692191Y-92692191D01*
X148551843Y-92902235D01*
X148502560Y-93150000D01*
X148502560Y-94850000D01*
X148551843Y-95097765D01*
X148692191Y-95307809D01*
X148902235Y-95448157D01*
X149150000Y-95497440D01*
X150850000Y-95497440D01*
X151097765Y-95448157D01*
X151307809Y-95307809D01*
X151315000Y-95297046D01*
X151315000Y-99951197D01*
X151255436Y-100367117D01*
X151101937Y-100704719D01*
X150859855Y-100985668D01*
X150548648Y-101187383D01*
X150170642Y-101300431D01*
X149974589Y-101315000D01*
X113048803Y-101315000D01*
X112632883Y-101255436D01*
X112295281Y-101101937D01*
X112014332Y-100859855D01*
X111812617Y-100548648D01*
X111699569Y-100170642D01*
X111685000Y-99974589D01*
X111685000Y-96613841D01*
X114609444Y-96613841D01*
X114634014Y-96818546D01*
X115025524Y-96944470D01*
X115435422Y-96910984D01*
X115658586Y-96818546D01*
X115683156Y-96613841D01*
X115146300Y-96076985D01*
X114609444Y-96613841D01*
X111685000Y-96613841D01*
X111685000Y-95776604D01*
X114099210Y-95776604D01*
X114132696Y-96186502D01*
X114225134Y-96409666D01*
X114429839Y-96434236D01*
X114966695Y-95897380D01*
X115325905Y-95897380D01*
X115862761Y-96434236D01*
X116067466Y-96409666D01*
X116193390Y-96018156D01*
X116159904Y-95608258D01*
X116067466Y-95385094D01*
X115862761Y-95360524D01*
X115325905Y-95897380D01*
X114966695Y-95897380D01*
X114429839Y-95360524D01*
X114225134Y-95385094D01*
X114099210Y-95776604D01*
X111685000Y-95776604D01*
X111685000Y-95180919D01*
X114609444Y-95180919D01*
X115146300Y-95717775D01*
X115683156Y-95180919D01*
X115658586Y-94976214D01*
X115267076Y-94850290D01*
X114857178Y-94883776D01*
X114634014Y-94976214D01*
X114609444Y-95180919D01*
X111685000Y-95180919D01*
X111685000Y-91894448D01*
X114115060Y-91894448D01*
X114115060Y-92305712D01*
X114272444Y-92685669D01*
X114563251Y-92976476D01*
X114943208Y-93133860D01*
X115107819Y-93133860D01*
X117770236Y-95796278D01*
X117770237Y-97796288D01*
X117652805Y-97913720D01*
X117495236Y-98294126D01*
X117495236Y-98705874D01*
X117652805Y-99086280D01*
X117943956Y-99377431D01*
X118324362Y-99535000D01*
X118736110Y-99535000D01*
X119116516Y-99377431D01*
X119407667Y-99086280D01*
X119558507Y-98722119D01*
X125563000Y-98722119D01*
X125563000Y-99277881D01*
X125775680Y-99791337D01*
X126168663Y-100184320D01*
X126682119Y-100397000D01*
X127237881Y-100397000D01*
X127751337Y-100184320D01*
X127955444Y-99980213D01*
X128699392Y-99980213D01*
X128768857Y-100222397D01*
X129292302Y-100409144D01*
X129847368Y-100381362D01*
X130231143Y-100222397D01*
X130300608Y-99980213D01*
X129500000Y-99179605D01*
X128699392Y-99980213D01*
X127955444Y-99980213D01*
X128144320Y-99791337D01*
X128223428Y-99600353D01*
X128277603Y-99731143D01*
X128519787Y-99800608D01*
X129320395Y-99000000D01*
X129679605Y-99000000D01*
X130480213Y-99800608D01*
X130722397Y-99731143D01*
X130772535Y-99590607D01*
X130855680Y-99791337D01*
X131248663Y-100184320D01*
X131762119Y-100397000D01*
X132317881Y-100397000D01*
X132831337Y-100184320D01*
X133224320Y-99791337D01*
X133437000Y-99277881D01*
X133437000Y-98722119D01*
X133224320Y-98208663D01*
X132831337Y-97815680D01*
X132317881Y-97603000D01*
X131762119Y-97603000D01*
X131248663Y-97815680D01*
X130855680Y-98208663D01*
X130776572Y-98399647D01*
X130722397Y-98268857D01*
X130480213Y-98199392D01*
X129679605Y-99000000D01*
X129320395Y-99000000D01*
X128519787Y-98199392D01*
X128277603Y-98268857D01*
X128227465Y-98409393D01*
X128144320Y-98208663D01*
X127955444Y-98019787D01*
X128699392Y-98019787D01*
X129500000Y-98820395D01*
X130300608Y-98019787D01*
X130231143Y-97777603D01*
X129707698Y-97590856D01*
X129152632Y-97618638D01*
X128768857Y-97777603D01*
X128699392Y-98019787D01*
X127955444Y-98019787D01*
X127751337Y-97815680D01*
X127237881Y-97603000D01*
X126682119Y-97603000D01*
X126168663Y-97815680D01*
X125775680Y-98208663D01*
X125563000Y-98722119D01*
X119558507Y-98722119D01*
X119565236Y-98705874D01*
X119565236Y-98294126D01*
X119407667Y-97913720D01*
X119290236Y-97796289D01*
X119290236Y-95556322D01*
X119305124Y-95481475D01*
X119290236Y-95406628D01*
X119290236Y-95406624D01*
X119246140Y-95184939D01*
X119078165Y-94933547D01*
X119014709Y-94891147D01*
X116917688Y-92794126D01*
X128965000Y-92794126D01*
X128965000Y-93205874D01*
X129122569Y-93586280D01*
X129240000Y-93703711D01*
X129240001Y-94296288D01*
X129122569Y-94413720D01*
X128965000Y-94794126D01*
X128965000Y-95205874D01*
X129122569Y-95586280D01*
X129413720Y-95877431D01*
X129794126Y-96035000D01*
X130205874Y-96035000D01*
X130586280Y-95877431D01*
X130877431Y-95586280D01*
X131035000Y-95205874D01*
X131035000Y-94794126D01*
X130877431Y-94413720D01*
X130760000Y-94296289D01*
X130760000Y-93703711D01*
X130877431Y-93586280D01*
X131035000Y-93205874D01*
X131035000Y-92794126D01*
X130877431Y-92413720D01*
X130586280Y-92122569D01*
X130205874Y-91965000D01*
X129794126Y-91965000D01*
X129413720Y-92122569D01*
X129122569Y-92413720D01*
X128965000Y-92794126D01*
X116917688Y-92794126D01*
X116182620Y-92059059D01*
X116182620Y-91894448D01*
X116025236Y-91514491D01*
X115734429Y-91223684D01*
X115354472Y-91066300D01*
X114943208Y-91066300D01*
X114563251Y-91223684D01*
X114272444Y-91514491D01*
X114115060Y-91894448D01*
X111685000Y-91894448D01*
X111685000Y-91000000D01*
X133225112Y-91000000D01*
X133240000Y-91074847D01*
X133240001Y-97425148D01*
X133225112Y-97500000D01*
X133284097Y-97796537D01*
X133326144Y-97859464D01*
X133452072Y-98047929D01*
X133515528Y-98090329D01*
X135465000Y-100039802D01*
X135465000Y-100205874D01*
X135622569Y-100586280D01*
X135913720Y-100877431D01*
X136294126Y-101035000D01*
X136705874Y-101035000D01*
X137086280Y-100877431D01*
X137377431Y-100586280D01*
X137535000Y-100205874D01*
X137535000Y-99794126D01*
X137377431Y-99413720D01*
X137086280Y-99122569D01*
X136705874Y-98965000D01*
X136539802Y-98965000D01*
X134760000Y-97185199D01*
X134760000Y-91314801D01*
X135314802Y-90760000D01*
X135733789Y-90760000D01*
X135913720Y-90939931D01*
X136294126Y-91097500D01*
X136705874Y-91097500D01*
X137086280Y-90939931D01*
X137377431Y-90648780D01*
X137535000Y-90268374D01*
X137535000Y-89856626D01*
X137377431Y-89476220D01*
X137086280Y-89185069D01*
X136705874Y-89027500D01*
X136294126Y-89027500D01*
X135913720Y-89185069D01*
X135858789Y-89240000D01*
X135074848Y-89240000D01*
X135000000Y-89225112D01*
X134925152Y-89240000D01*
X134925148Y-89240000D01*
X134703463Y-89284096D01*
X134452071Y-89452071D01*
X134409671Y-89515527D01*
X133515530Y-90409669D01*
X133452071Y-90452071D01*
X133284096Y-90703464D01*
X133240000Y-90925149D01*
X133240000Y-90925153D01*
X133225112Y-91000000D01*
X111685000Y-91000000D01*
X111685000Y-88048803D01*
X111744564Y-87632884D01*
X111898063Y-87295281D01*
X112140146Y-87014331D01*
X112451352Y-86812617D01*
X112829357Y-86699569D01*
X113025411Y-86685000D01*
X138351289Y-86685000D01*
X138122569Y-86913720D01*
X138122569Y-86913720D01*
G37*
X138122569Y-86913720D02*
X137965000Y-87294126D01*
X137965000Y-87705874D01*
X138122569Y-88086280D01*
X138413720Y-88377431D01*
X138740001Y-88512581D01*
X138740000Y-92685198D01*
X138288205Y-93136994D01*
X138273780Y-93122569D01*
X137893374Y-92965000D01*
X137481626Y-92965000D01*
X137101220Y-93122569D01*
X136810069Y-93413720D01*
X136652500Y-93794126D01*
X136652500Y-94205874D01*
X136810069Y-94586280D01*
X137101220Y-94877431D01*
X137481626Y-95035000D01*
X137893374Y-95035000D01*
X138273780Y-94877431D01*
X138391211Y-94760000D01*
X138425153Y-94760000D01*
X138500000Y-94774888D01*
X138574847Y-94760000D01*
X138574852Y-94760000D01*
X138796537Y-94715904D01*
X139047929Y-94547929D01*
X139090331Y-94484470D01*
X139984473Y-93590329D01*
X140047929Y-93547929D01*
X140215904Y-93296537D01*
X140260000Y-93074852D01*
X140260000Y-93074848D01*
X140274888Y-93000000D01*
X140260000Y-92925152D01*
X140260000Y-88500000D01*
X140445908Y-88500000D01*
X140561161Y-89079418D01*
X140889375Y-89570625D01*
X141380582Y-89898839D01*
X141813744Y-89985000D01*
X142106256Y-89985000D01*
X142539418Y-89898839D01*
X143030625Y-89570625D01*
X143045096Y-89548967D01*
X143111673Y-89709698D01*
X143290301Y-89888327D01*
X143523690Y-89985000D01*
X144214250Y-89985000D01*
X144373000Y-89826250D01*
X144373000Y-88627000D01*
X144627000Y-88627000D01*
X144627000Y-89826250D01*
X144785750Y-89985000D01*
X145476310Y-89985000D01*
X145709699Y-89888327D01*
X145888327Y-89709698D01*
X145985000Y-89476309D01*
X145985000Y-88785750D01*
X145826250Y-88627000D01*
X144627000Y-88627000D01*
X144373000Y-88627000D01*
X144353000Y-88627000D01*
X144353000Y-88373000D01*
X144373000Y-88373000D01*
X144373000Y-87173750D01*
X144627000Y-87173750D01*
X144627000Y-88373000D01*
X145826250Y-88373000D01*
X145985000Y-88214250D01*
X145985000Y-87523691D01*
X145888327Y-87290302D01*
X145709699Y-87111673D01*
X145476310Y-87015000D01*
X144785750Y-87015000D01*
X144627000Y-87173750D01*
X144373000Y-87173750D01*
X144214250Y-87015000D01*
X143523690Y-87015000D01*
X143290301Y-87111673D01*
X143111673Y-87290302D01*
X143045096Y-87451033D01*
X143030625Y-87429375D01*
X142539418Y-87101161D01*
X142106256Y-87015000D01*
X141813744Y-87015000D01*
X141380582Y-87101161D01*
X140889375Y-87429375D01*
X140561161Y-87920582D01*
X140445908Y-88500000D01*
X140260000Y-88500000D01*
X140260000Y-88074848D01*
X140274888Y-88000000D01*
X140260000Y-87925152D01*
X140260000Y-87925148D01*
X140215904Y-87703463D01*
X140215904Y-87703462D01*
X140090329Y-87515527D01*
X140047929Y-87452071D01*
X140035000Y-87443432D01*
X140035000Y-87294126D01*
X139877431Y-86913720D01*
X139648711Y-86685000D01*
X149951197Y-86685000D01*
X150367116Y-86744564D01*
X150704719Y-86898063D01*
X150985669Y-87140146D01*
X151187383Y-87451352D01*
X151300431Y-87829357D01*
X151315001Y-88025425D01*
X151315001Y-92702954D01*
X151307809Y-92692191D01*
X151097765Y-92551843D01*
X150850000Y-92502560D01*
X149150000Y-92502560D01*
X148902235Y-92551843D01*
X148692191Y-92692191D01*
X148551843Y-92902235D01*
X148502560Y-93150000D01*
X148502560Y-94850000D01*
X148551843Y-95097765D01*
X148692191Y-95307809D01*
X148902235Y-95448157D01*
X149150000Y-95497440D01*
X150850000Y-95497440D01*
X151097765Y-95448157D01*
X151307809Y-95307809D01*
X151315000Y-95297046D01*
X151315000Y-99951197D01*
X151255436Y-100367117D01*
X151101937Y-100704719D01*
X150859855Y-100985668D01*
X150548648Y-101187383D01*
X150170642Y-101300431D01*
X149974589Y-101315000D01*
X113048803Y-101315000D01*
X112632883Y-101255436D01*
X112295281Y-101101937D01*
X112014332Y-100859855D01*
X111812617Y-100548648D01*
X111699569Y-100170642D01*
X111685000Y-99974589D01*
X111685000Y-96613841D01*
X114609444Y-96613841D01*
X114634014Y-96818546D01*
X115025524Y-96944470D01*
X115435422Y-96910984D01*
X115658586Y-96818546D01*
X115683156Y-96613841D01*
X115146300Y-96076985D01*
X114609444Y-96613841D01*
X111685000Y-96613841D01*
X111685000Y-95776604D01*
X114099210Y-95776604D01*
X114132696Y-96186502D01*
X114225134Y-96409666D01*
X114429839Y-96434236D01*
X114966695Y-95897380D01*
X115325905Y-95897380D01*
X115862761Y-96434236D01*
X116067466Y-96409666D01*
X116193390Y-96018156D01*
X116159904Y-95608258D01*
X116067466Y-95385094D01*
X115862761Y-95360524D01*
X115325905Y-95897380D01*
X114966695Y-95897380D01*
X114429839Y-95360524D01*
X114225134Y-95385094D01*
X114099210Y-95776604D01*
X111685000Y-95776604D01*
X111685000Y-95180919D01*
X114609444Y-95180919D01*
X115146300Y-95717775D01*
X115683156Y-95180919D01*
X115658586Y-94976214D01*
X115267076Y-94850290D01*
X114857178Y-94883776D01*
X114634014Y-94976214D01*
X114609444Y-95180919D01*
X111685000Y-95180919D01*
X111685000Y-91894448D01*
X114115060Y-91894448D01*
X114115060Y-92305712D01*
X114272444Y-92685669D01*
X114563251Y-92976476D01*
X114943208Y-93133860D01*
X115107819Y-93133860D01*
X117770236Y-95796278D01*
X117770237Y-97796288D01*
X117652805Y-97913720D01*
X117495236Y-98294126D01*
X117495236Y-98705874D01*
X117652805Y-99086280D01*
X117943956Y-99377431D01*
X118324362Y-99535000D01*
X118736110Y-99535000D01*
X119116516Y-99377431D01*
X119407667Y-99086280D01*
X119558507Y-98722119D01*
X125563000Y-98722119D01*
X125563000Y-99277881D01*
X125775680Y-99791337D01*
X126168663Y-100184320D01*
X126682119Y-100397000D01*
X127237881Y-100397000D01*
X127751337Y-100184320D01*
X127955444Y-99980213D01*
X128699392Y-99980213D01*
X128768857Y-100222397D01*
X129292302Y-100409144D01*
X129847368Y-100381362D01*
X130231143Y-100222397D01*
X130300608Y-99980213D01*
X129500000Y-99179605D01*
X128699392Y-99980213D01*
X127955444Y-99980213D01*
X128144320Y-99791337D01*
X128223428Y-99600353D01*
X128277603Y-99731143D01*
X128519787Y-99800608D01*
X129320395Y-99000000D01*
X129679605Y-99000000D01*
X130480213Y-99800608D01*
X130722397Y-99731143D01*
X130772535Y-99590607D01*
X130855680Y-99791337D01*
X131248663Y-100184320D01*
X131762119Y-100397000D01*
X132317881Y-100397000D01*
X132831337Y-100184320D01*
X133224320Y-99791337D01*
X133437000Y-99277881D01*
X133437000Y-98722119D01*
X133224320Y-98208663D01*
X132831337Y-97815680D01*
X132317881Y-97603000D01*
X131762119Y-97603000D01*
X131248663Y-97815680D01*
X130855680Y-98208663D01*
X130776572Y-98399647D01*
X130722397Y-98268857D01*
X130480213Y-98199392D01*
X129679605Y-99000000D01*
X129320395Y-99000000D01*
X128519787Y-98199392D01*
X128277603Y-98268857D01*
X128227465Y-98409393D01*
X128144320Y-98208663D01*
X127955444Y-98019787D01*
X128699392Y-98019787D01*
X129500000Y-98820395D01*
X130300608Y-98019787D01*
X130231143Y-97777603D01*
X129707698Y-97590856D01*
X129152632Y-97618638D01*
X128768857Y-97777603D01*
X128699392Y-98019787D01*
X127955444Y-98019787D01*
X127751337Y-97815680D01*
X127237881Y-97603000D01*
X126682119Y-97603000D01*
X126168663Y-97815680D01*
X125775680Y-98208663D01*
X125563000Y-98722119D01*
X119558507Y-98722119D01*
X119565236Y-98705874D01*
X119565236Y-98294126D01*
X119407667Y-97913720D01*
X119290236Y-97796289D01*
X119290236Y-95556322D01*
X119305124Y-95481475D01*
X119290236Y-95406628D01*
X119290236Y-95406624D01*
X119246140Y-95184939D01*
X119078165Y-94933547D01*
X119014709Y-94891147D01*
X116917688Y-92794126D01*
X128965000Y-92794126D01*
X128965000Y-93205874D01*
X129122569Y-93586280D01*
X129240000Y-93703711D01*
X129240001Y-94296288D01*
X129122569Y-94413720D01*
X128965000Y-94794126D01*
X128965000Y-95205874D01*
X129122569Y-95586280D01*
X129413720Y-95877431D01*
X129794126Y-96035000D01*
X130205874Y-96035000D01*
X130586280Y-95877431D01*
X130877431Y-95586280D01*
X131035000Y-95205874D01*
X131035000Y-94794126D01*
X130877431Y-94413720D01*
X130760000Y-94296289D01*
X130760000Y-93703711D01*
X130877431Y-93586280D01*
X131035000Y-93205874D01*
X131035000Y-92794126D01*
X130877431Y-92413720D01*
X130586280Y-92122569D01*
X130205874Y-91965000D01*
X129794126Y-91965000D01*
X129413720Y-92122569D01*
X129122569Y-92413720D01*
X128965000Y-92794126D01*
X116917688Y-92794126D01*
X116182620Y-92059059D01*
X116182620Y-91894448D01*
X116025236Y-91514491D01*
X115734429Y-91223684D01*
X115354472Y-91066300D01*
X114943208Y-91066300D01*
X114563251Y-91223684D01*
X114272444Y-91514491D01*
X114115060Y-91894448D01*
X111685000Y-91894448D01*
X111685000Y-91000000D01*
X133225112Y-91000000D01*
X133240000Y-91074847D01*
X133240001Y-97425148D01*
X133225112Y-97500000D01*
X133284097Y-97796537D01*
X133326144Y-97859464D01*
X133452072Y-98047929D01*
X133515528Y-98090329D01*
X135465000Y-100039802D01*
X135465000Y-100205874D01*
X135622569Y-100586280D01*
X135913720Y-100877431D01*
X136294126Y-101035000D01*
X136705874Y-101035000D01*
X137086280Y-100877431D01*
X137377431Y-100586280D01*
X137535000Y-100205874D01*
X137535000Y-99794126D01*
X137377431Y-99413720D01*
X137086280Y-99122569D01*
X136705874Y-98965000D01*
X136539802Y-98965000D01*
X134760000Y-97185199D01*
X134760000Y-91314801D01*
X135314802Y-90760000D01*
X135733789Y-90760000D01*
X135913720Y-90939931D01*
X136294126Y-91097500D01*
X136705874Y-91097500D01*
X137086280Y-90939931D01*
X137377431Y-90648780D01*
X137535000Y-90268374D01*
X137535000Y-89856626D01*
X137377431Y-89476220D01*
X137086280Y-89185069D01*
X136705874Y-89027500D01*
X136294126Y-89027500D01*
X135913720Y-89185069D01*
X135858789Y-89240000D01*
X135074848Y-89240000D01*
X135000000Y-89225112D01*
X134925152Y-89240000D01*
X134925148Y-89240000D01*
X134703463Y-89284096D01*
X134452071Y-89452071D01*
X134409671Y-89515527D01*
X133515530Y-90409669D01*
X133452071Y-90452071D01*
X133284096Y-90703464D01*
X133240000Y-90925149D01*
X133240000Y-90925153D01*
X133225112Y-91000000D01*
X111685000Y-91000000D01*
X111685000Y-88048803D01*
X111744564Y-87632884D01*
X111898063Y-87295281D01*
X112140146Y-87014331D01*
X112451352Y-86812617D01*
X112829357Y-86699569D01*
X113025411Y-86685000D01*
X138351289Y-86685000D01*
X138122569Y-86913720D01*
G04 #@! TD*
M02*
