M48
;DRILL file {KiCad 5.0.2-bee76a0~70~ubuntu16.04.1} date Tue 10 Sep 2019 06:11:20 PM CEST
;FORMAT={-:-/ absolute / inch / decimal}
FMAT,2
INCH,TZ
T1C0.0157
T2C0.0314
T3C0.0394
T4C0.0400
%
G90
G05
T1
X4.4488Y-3.5453
X4.4488Y-3.6536
X4.4488Y-3.748
X4.4488Y-3.8563
X4.5674Y-3.878
X4.626Y-3.5827
X4.6665Y-3.878
X4.7244Y-3.467
X4.7244Y-3.7205
X4.8056Y-3.7205
X4.8056Y-3.8189
X4.8794Y-3.9173
X4.9213Y-3.5236
X5.0984Y-3.6811
X5.1181Y-3.5433
X5.1378Y-3.622
X5.2756Y-3.6811
X5.315Y-3.622
X5.4134Y-3.5482
X5.6127Y-3.5851
X5.6127Y-3.8976
X5.7259Y-3.4646
X5.8465Y-3.4695
T2
X4.5333Y-3.7755
X4.5334Y-3.626
T3
X5.374Y-3.7976
X5.374Y-3.8976
X6.0433Y-3.7008
T4
X4.9984Y-3.8976
X5.0984Y-3.8976
X5.1984Y-3.8976
T0
M30
