M48
;DRILL file {KiCad 5.0.2-bee76a0~70~ubuntu16.04.1} date Wed 11 Sep 2019 01:23:13 AM CEST
;FORMAT={-:-/ absolute / inch / decimal}
FMAT,2
INCH,TZ
T1C0.0157
T2C0.0314
T3C0.0394
T4C0.0400
%
G90
G05
T1
X4.4488Y-3.5453
X4.4488Y-3.6536
X4.4488Y-3.748
X4.4488Y-3.8563
X4.5674Y-3.878
X4.6457Y-3.467
X4.6665Y-3.878
X4.8056Y-3.7205
X4.8794Y-3.8189
X4.8794Y-3.9173
X4.8819Y-3.5408
X5.1181Y-3.6614
X5.1181Y-3.7402
X5.315Y-3.6196
X5.374Y-3.5458
X5.374Y-3.937
X5.4208Y-3.7008
X5.4208Y-3.7992
X5.4331Y-3.6196
X5.4724Y-3.4449
X5.6102Y-3.7598
X5.7899Y-3.4646
T2
X4.5333Y-3.7755
X4.5334Y-3.626
T3
X5.589Y-3.4843
X5.689Y-3.4843
X5.9055Y-3.7008
T4
X4.9984Y-3.8976
X5.0984Y-3.8976
X5.1984Y-3.8976
T0
M30
