G04 #@! TF.GenerationSoftware,KiCad,Pcbnew,5.0.2-bee76a0~70~ubuntu16.04.1*
G04 #@! TF.CreationDate,2019-09-10T18:11:14+02:00*
G04 #@! TF.ProjectId,hw-USB-RF,68772d55-5342-42d5-9246-2e6b69636164,rev?*
G04 #@! TF.SameCoordinates,Original*
G04 #@! TF.FileFunction,Copper,L1,Top*
G04 #@! TF.FilePolarity,Positive*
%FSLAX46Y46*%
G04 Gerber Fmt 4.6, Leading zero omitted, Abs format (unit mm)*
G04 Created by KiCad (PCBNEW 5.0.2-bee76a0~70~ubuntu16.04.1) date Tue 10 Sep 2019 06:11:14 PM CEST*
%MOMM*%
%LPD*%
G01*
G04 APERTURE LIST*
G04 #@! TA.AperFunction,ComponentPad*
%ADD10R,1.700000X1.700000*%
G04 #@! TD*
G04 #@! TA.AperFunction,Conductor*
%ADD11C,0.100000*%
G04 #@! TD*
G04 #@! TA.AperFunction,SMDPad,CuDef*
%ADD12C,0.975000*%
G04 #@! TD*
G04 #@! TA.AperFunction,SMDPad,CuDef*
%ADD13R,1.897380X1.897380*%
G04 #@! TD*
G04 #@! TA.AperFunction,SMDPad,CuDef*
%ADD14R,2.000000X0.398780*%
G04 #@! TD*
G04 #@! TA.AperFunction,ComponentPad*
%ADD15C,0.797560*%
G04 #@! TD*
G04 #@! TA.AperFunction,ComponentPad*
%ADD16O,1.700000X1.700000*%
G04 #@! TD*
G04 #@! TA.AperFunction,SMDPad,CuDef*
%ADD17R,1.550000X0.600000*%
G04 #@! TD*
G04 #@! TA.AperFunction,SMDPad,CuDef*
%ADD18R,1.060000X0.650000*%
G04 #@! TD*
G04 #@! TA.AperFunction,SMDPad,CuDef*
%ADD19R,1.500000X0.600000*%
G04 #@! TD*
G04 #@! TA.AperFunction,ComponentPad*
%ADD20C,1.524000*%
G04 #@! TD*
G04 #@! TA.AperFunction,SMDPad,CuDef*
%ADD21R,0.900000X1.100000*%
G04 #@! TD*
G04 #@! TA.AperFunction,ViaPad*
%ADD22C,0.800000*%
G04 #@! TD*
G04 #@! TA.AperFunction,Conductor*
%ADD23C,0.250000*%
G04 #@! TD*
G04 #@! TA.AperFunction,Conductor*
%ADD24C,0.254000*%
G04 #@! TD*
G04 APERTURE END LIST*
D10*
G04 #@! TO.P,AE1,1*
G04 #@! TO.N,Net-(AE1-Pad1)*
X153500000Y-94000000D03*
G04 #@! TD*
D11*
G04 #@! TO.N,Net-(AE1-Pad1)*
G04 #@! TO.C,C1*
G36*
X150767642Y-91301174D02*
X150791303Y-91304684D01*
X150814507Y-91310496D01*
X150837029Y-91318554D01*
X150858653Y-91328782D01*
X150879170Y-91341079D01*
X150898383Y-91355329D01*
X150916107Y-91371393D01*
X150932171Y-91389117D01*
X150946421Y-91408330D01*
X150958718Y-91428847D01*
X150968946Y-91450471D01*
X150977004Y-91472993D01*
X150982816Y-91496197D01*
X150986326Y-91519858D01*
X150987500Y-91543750D01*
X150987500Y-92456250D01*
X150986326Y-92480142D01*
X150982816Y-92503803D01*
X150977004Y-92527007D01*
X150968946Y-92549529D01*
X150958718Y-92571153D01*
X150946421Y-92591670D01*
X150932171Y-92610883D01*
X150916107Y-92628607D01*
X150898383Y-92644671D01*
X150879170Y-92658921D01*
X150858653Y-92671218D01*
X150837029Y-92681446D01*
X150814507Y-92689504D01*
X150791303Y-92695316D01*
X150767642Y-92698826D01*
X150743750Y-92700000D01*
X150256250Y-92700000D01*
X150232358Y-92698826D01*
X150208697Y-92695316D01*
X150185493Y-92689504D01*
X150162971Y-92681446D01*
X150141347Y-92671218D01*
X150120830Y-92658921D01*
X150101617Y-92644671D01*
X150083893Y-92628607D01*
X150067829Y-92610883D01*
X150053579Y-92591670D01*
X150041282Y-92571153D01*
X150031054Y-92549529D01*
X150022996Y-92527007D01*
X150017184Y-92503803D01*
X150013674Y-92480142D01*
X150012500Y-92456250D01*
X150012500Y-91543750D01*
X150013674Y-91519858D01*
X150017184Y-91496197D01*
X150022996Y-91472993D01*
X150031054Y-91450471D01*
X150041282Y-91428847D01*
X150053579Y-91408330D01*
X150067829Y-91389117D01*
X150083893Y-91371393D01*
X150101617Y-91355329D01*
X150120830Y-91341079D01*
X150141347Y-91328782D01*
X150162971Y-91318554D01*
X150185493Y-91310496D01*
X150208697Y-91304684D01*
X150232358Y-91301174D01*
X150256250Y-91300000D01*
X150743750Y-91300000D01*
X150767642Y-91301174D01*
X150767642Y-91301174D01*
G37*
D12*
G04 #@! TD*
G04 #@! TO.P,C1,2*
G04 #@! TO.N,Net-(AE1-Pad1)*
X150500000Y-92000000D03*
D11*
G04 #@! TO.N,Net-(C1-Pad1)*
G04 #@! TO.C,C1*
G36*
X148892642Y-91301174D02*
X148916303Y-91304684D01*
X148939507Y-91310496D01*
X148962029Y-91318554D01*
X148983653Y-91328782D01*
X149004170Y-91341079D01*
X149023383Y-91355329D01*
X149041107Y-91371393D01*
X149057171Y-91389117D01*
X149071421Y-91408330D01*
X149083718Y-91428847D01*
X149093946Y-91450471D01*
X149102004Y-91472993D01*
X149107816Y-91496197D01*
X149111326Y-91519858D01*
X149112500Y-91543750D01*
X149112500Y-92456250D01*
X149111326Y-92480142D01*
X149107816Y-92503803D01*
X149102004Y-92527007D01*
X149093946Y-92549529D01*
X149083718Y-92571153D01*
X149071421Y-92591670D01*
X149057171Y-92610883D01*
X149041107Y-92628607D01*
X149023383Y-92644671D01*
X149004170Y-92658921D01*
X148983653Y-92671218D01*
X148962029Y-92681446D01*
X148939507Y-92689504D01*
X148916303Y-92695316D01*
X148892642Y-92698826D01*
X148868750Y-92700000D01*
X148381250Y-92700000D01*
X148357358Y-92698826D01*
X148333697Y-92695316D01*
X148310493Y-92689504D01*
X148287971Y-92681446D01*
X148266347Y-92671218D01*
X148245830Y-92658921D01*
X148226617Y-92644671D01*
X148208893Y-92628607D01*
X148192829Y-92610883D01*
X148178579Y-92591670D01*
X148166282Y-92571153D01*
X148156054Y-92549529D01*
X148147996Y-92527007D01*
X148142184Y-92503803D01*
X148138674Y-92480142D01*
X148137500Y-92456250D01*
X148137500Y-91543750D01*
X148138674Y-91519858D01*
X148142184Y-91496197D01*
X148147996Y-91472993D01*
X148156054Y-91450471D01*
X148166282Y-91428847D01*
X148178579Y-91408330D01*
X148192829Y-91389117D01*
X148208893Y-91371393D01*
X148226617Y-91355329D01*
X148245830Y-91341079D01*
X148266347Y-91328782D01*
X148287971Y-91318554D01*
X148310493Y-91310496D01*
X148333697Y-91304684D01*
X148357358Y-91301174D01*
X148381250Y-91300000D01*
X148868750Y-91300000D01*
X148892642Y-91301174D01*
X148892642Y-91301174D01*
G37*
D12*
G04 #@! TD*
G04 #@! TO.P,C1,1*
G04 #@! TO.N,Net-(C1-Pad1)*
X148625000Y-92000000D03*
D11*
G04 #@! TO.N,GND*
G04 #@! TO.C,C2*
G36*
X120480142Y-87576174D02*
X120503803Y-87579684D01*
X120527007Y-87585496D01*
X120549529Y-87593554D01*
X120571153Y-87603782D01*
X120591670Y-87616079D01*
X120610883Y-87630329D01*
X120628607Y-87646393D01*
X120644671Y-87664117D01*
X120658921Y-87683330D01*
X120671218Y-87703847D01*
X120681446Y-87725471D01*
X120689504Y-87747993D01*
X120695316Y-87771197D01*
X120698826Y-87794858D01*
X120700000Y-87818750D01*
X120700000Y-88306250D01*
X120698826Y-88330142D01*
X120695316Y-88353803D01*
X120689504Y-88377007D01*
X120681446Y-88399529D01*
X120671218Y-88421153D01*
X120658921Y-88441670D01*
X120644671Y-88460883D01*
X120628607Y-88478607D01*
X120610883Y-88494671D01*
X120591670Y-88508921D01*
X120571153Y-88521218D01*
X120549529Y-88531446D01*
X120527007Y-88539504D01*
X120503803Y-88545316D01*
X120480142Y-88548826D01*
X120456250Y-88550000D01*
X119543750Y-88550000D01*
X119519858Y-88548826D01*
X119496197Y-88545316D01*
X119472993Y-88539504D01*
X119450471Y-88531446D01*
X119428847Y-88521218D01*
X119408330Y-88508921D01*
X119389117Y-88494671D01*
X119371393Y-88478607D01*
X119355329Y-88460883D01*
X119341079Y-88441670D01*
X119328782Y-88421153D01*
X119318554Y-88399529D01*
X119310496Y-88377007D01*
X119304684Y-88353803D01*
X119301174Y-88330142D01*
X119300000Y-88306250D01*
X119300000Y-87818750D01*
X119301174Y-87794858D01*
X119304684Y-87771197D01*
X119310496Y-87747993D01*
X119318554Y-87725471D01*
X119328782Y-87703847D01*
X119341079Y-87683330D01*
X119355329Y-87664117D01*
X119371393Y-87646393D01*
X119389117Y-87630329D01*
X119408330Y-87616079D01*
X119428847Y-87603782D01*
X119450471Y-87593554D01*
X119472993Y-87585496D01*
X119496197Y-87579684D01*
X119519858Y-87576174D01*
X119543750Y-87575000D01*
X120456250Y-87575000D01*
X120480142Y-87576174D01*
X120480142Y-87576174D01*
G37*
D12*
G04 #@! TD*
G04 #@! TO.P,C2,2*
G04 #@! TO.N,GND*
X120000000Y-88062500D03*
D11*
G04 #@! TO.N,+3V3*
G04 #@! TO.C,C2*
G36*
X120480142Y-89451174D02*
X120503803Y-89454684D01*
X120527007Y-89460496D01*
X120549529Y-89468554D01*
X120571153Y-89478782D01*
X120591670Y-89491079D01*
X120610883Y-89505329D01*
X120628607Y-89521393D01*
X120644671Y-89539117D01*
X120658921Y-89558330D01*
X120671218Y-89578847D01*
X120681446Y-89600471D01*
X120689504Y-89622993D01*
X120695316Y-89646197D01*
X120698826Y-89669858D01*
X120700000Y-89693750D01*
X120700000Y-90181250D01*
X120698826Y-90205142D01*
X120695316Y-90228803D01*
X120689504Y-90252007D01*
X120681446Y-90274529D01*
X120671218Y-90296153D01*
X120658921Y-90316670D01*
X120644671Y-90335883D01*
X120628607Y-90353607D01*
X120610883Y-90369671D01*
X120591670Y-90383921D01*
X120571153Y-90396218D01*
X120549529Y-90406446D01*
X120527007Y-90414504D01*
X120503803Y-90420316D01*
X120480142Y-90423826D01*
X120456250Y-90425000D01*
X119543750Y-90425000D01*
X119519858Y-90423826D01*
X119496197Y-90420316D01*
X119472993Y-90414504D01*
X119450471Y-90406446D01*
X119428847Y-90396218D01*
X119408330Y-90383921D01*
X119389117Y-90369671D01*
X119371393Y-90353607D01*
X119355329Y-90335883D01*
X119341079Y-90316670D01*
X119328782Y-90296153D01*
X119318554Y-90274529D01*
X119310496Y-90252007D01*
X119304684Y-90228803D01*
X119301174Y-90205142D01*
X119300000Y-90181250D01*
X119300000Y-89693750D01*
X119301174Y-89669858D01*
X119304684Y-89646197D01*
X119310496Y-89622993D01*
X119318554Y-89600471D01*
X119328782Y-89578847D01*
X119341079Y-89558330D01*
X119355329Y-89539117D01*
X119371393Y-89521393D01*
X119389117Y-89505329D01*
X119408330Y-89491079D01*
X119428847Y-89478782D01*
X119450471Y-89468554D01*
X119472993Y-89460496D01*
X119496197Y-89454684D01*
X119519858Y-89451174D01*
X119543750Y-89450000D01*
X120456250Y-89450000D01*
X120480142Y-89451174D01*
X120480142Y-89451174D01*
G37*
D12*
G04 #@! TD*
G04 #@! TO.P,C2,1*
G04 #@! TO.N,+3V3*
X120000000Y-89937500D03*
D11*
G04 #@! TO.N,/26MHZ*
G04 #@! TO.C,C3*
G36*
X142830142Y-98301174D02*
X142853803Y-98304684D01*
X142877007Y-98310496D01*
X142899529Y-98318554D01*
X142921153Y-98328782D01*
X142941670Y-98341079D01*
X142960883Y-98355329D01*
X142978607Y-98371393D01*
X142994671Y-98389117D01*
X143008921Y-98408330D01*
X143021218Y-98428847D01*
X143031446Y-98450471D01*
X143039504Y-98472993D01*
X143045316Y-98496197D01*
X143048826Y-98519858D01*
X143050000Y-98543750D01*
X143050000Y-99456250D01*
X143048826Y-99480142D01*
X143045316Y-99503803D01*
X143039504Y-99527007D01*
X143031446Y-99549529D01*
X143021218Y-99571153D01*
X143008921Y-99591670D01*
X142994671Y-99610883D01*
X142978607Y-99628607D01*
X142960883Y-99644671D01*
X142941670Y-99658921D01*
X142921153Y-99671218D01*
X142899529Y-99681446D01*
X142877007Y-99689504D01*
X142853803Y-99695316D01*
X142830142Y-99698826D01*
X142806250Y-99700000D01*
X142318750Y-99700000D01*
X142294858Y-99698826D01*
X142271197Y-99695316D01*
X142247993Y-99689504D01*
X142225471Y-99681446D01*
X142203847Y-99671218D01*
X142183330Y-99658921D01*
X142164117Y-99644671D01*
X142146393Y-99628607D01*
X142130329Y-99610883D01*
X142116079Y-99591670D01*
X142103782Y-99571153D01*
X142093554Y-99549529D01*
X142085496Y-99527007D01*
X142079684Y-99503803D01*
X142076174Y-99480142D01*
X142075000Y-99456250D01*
X142075000Y-98543750D01*
X142076174Y-98519858D01*
X142079684Y-98496197D01*
X142085496Y-98472993D01*
X142093554Y-98450471D01*
X142103782Y-98428847D01*
X142116079Y-98408330D01*
X142130329Y-98389117D01*
X142146393Y-98371393D01*
X142164117Y-98355329D01*
X142183330Y-98341079D01*
X142203847Y-98328782D01*
X142225471Y-98318554D01*
X142247993Y-98310496D01*
X142271197Y-98304684D01*
X142294858Y-98301174D01*
X142318750Y-98300000D01*
X142806250Y-98300000D01*
X142830142Y-98301174D01*
X142830142Y-98301174D01*
G37*
D12*
G04 #@! TD*
G04 #@! TO.P,C3,2*
G04 #@! TO.N,/26MHZ*
X142562500Y-99000000D03*
D11*
G04 #@! TO.N,Net-(C3-Pad1)*
G04 #@! TO.C,C3*
G36*
X144705142Y-98301174D02*
X144728803Y-98304684D01*
X144752007Y-98310496D01*
X144774529Y-98318554D01*
X144796153Y-98328782D01*
X144816670Y-98341079D01*
X144835883Y-98355329D01*
X144853607Y-98371393D01*
X144869671Y-98389117D01*
X144883921Y-98408330D01*
X144896218Y-98428847D01*
X144906446Y-98450471D01*
X144914504Y-98472993D01*
X144920316Y-98496197D01*
X144923826Y-98519858D01*
X144925000Y-98543750D01*
X144925000Y-99456250D01*
X144923826Y-99480142D01*
X144920316Y-99503803D01*
X144914504Y-99527007D01*
X144906446Y-99549529D01*
X144896218Y-99571153D01*
X144883921Y-99591670D01*
X144869671Y-99610883D01*
X144853607Y-99628607D01*
X144835883Y-99644671D01*
X144816670Y-99658921D01*
X144796153Y-99671218D01*
X144774529Y-99681446D01*
X144752007Y-99689504D01*
X144728803Y-99695316D01*
X144705142Y-99698826D01*
X144681250Y-99700000D01*
X144193750Y-99700000D01*
X144169858Y-99698826D01*
X144146197Y-99695316D01*
X144122993Y-99689504D01*
X144100471Y-99681446D01*
X144078847Y-99671218D01*
X144058330Y-99658921D01*
X144039117Y-99644671D01*
X144021393Y-99628607D01*
X144005329Y-99610883D01*
X143991079Y-99591670D01*
X143978782Y-99571153D01*
X143968554Y-99549529D01*
X143960496Y-99527007D01*
X143954684Y-99503803D01*
X143951174Y-99480142D01*
X143950000Y-99456250D01*
X143950000Y-98543750D01*
X143951174Y-98519858D01*
X143954684Y-98496197D01*
X143960496Y-98472993D01*
X143968554Y-98450471D01*
X143978782Y-98428847D01*
X143991079Y-98408330D01*
X144005329Y-98389117D01*
X144021393Y-98371393D01*
X144039117Y-98355329D01*
X144058330Y-98341079D01*
X144078847Y-98328782D01*
X144100471Y-98318554D01*
X144122993Y-98310496D01*
X144146197Y-98304684D01*
X144169858Y-98301174D01*
X144193750Y-98300000D01*
X144681250Y-98300000D01*
X144705142Y-98301174D01*
X144705142Y-98301174D01*
G37*
D12*
G04 #@! TD*
G04 #@! TO.P,C3,1*
G04 #@! TO.N,Net-(C3-Pad1)*
X144437500Y-99000000D03*
D11*
G04 #@! TO.N,+3V3*
G04 #@! TO.C,C4*
G36*
X137980142Y-91513674D02*
X138003803Y-91517184D01*
X138027007Y-91522996D01*
X138049529Y-91531054D01*
X138071153Y-91541282D01*
X138091670Y-91553579D01*
X138110883Y-91567829D01*
X138128607Y-91583893D01*
X138144671Y-91601617D01*
X138158921Y-91620830D01*
X138171218Y-91641347D01*
X138181446Y-91662971D01*
X138189504Y-91685493D01*
X138195316Y-91708697D01*
X138198826Y-91732358D01*
X138200000Y-91756250D01*
X138200000Y-92243750D01*
X138198826Y-92267642D01*
X138195316Y-92291303D01*
X138189504Y-92314507D01*
X138181446Y-92337029D01*
X138171218Y-92358653D01*
X138158921Y-92379170D01*
X138144671Y-92398383D01*
X138128607Y-92416107D01*
X138110883Y-92432171D01*
X138091670Y-92446421D01*
X138071153Y-92458718D01*
X138049529Y-92468946D01*
X138027007Y-92477004D01*
X138003803Y-92482816D01*
X137980142Y-92486326D01*
X137956250Y-92487500D01*
X137043750Y-92487500D01*
X137019858Y-92486326D01*
X136996197Y-92482816D01*
X136972993Y-92477004D01*
X136950471Y-92468946D01*
X136928847Y-92458718D01*
X136908330Y-92446421D01*
X136889117Y-92432171D01*
X136871393Y-92416107D01*
X136855329Y-92398383D01*
X136841079Y-92379170D01*
X136828782Y-92358653D01*
X136818554Y-92337029D01*
X136810496Y-92314507D01*
X136804684Y-92291303D01*
X136801174Y-92267642D01*
X136800000Y-92243750D01*
X136800000Y-91756250D01*
X136801174Y-91732358D01*
X136804684Y-91708697D01*
X136810496Y-91685493D01*
X136818554Y-91662971D01*
X136828782Y-91641347D01*
X136841079Y-91620830D01*
X136855329Y-91601617D01*
X136871393Y-91583893D01*
X136889117Y-91567829D01*
X136908330Y-91553579D01*
X136928847Y-91541282D01*
X136950471Y-91531054D01*
X136972993Y-91522996D01*
X136996197Y-91517184D01*
X137019858Y-91513674D01*
X137043750Y-91512500D01*
X137956250Y-91512500D01*
X137980142Y-91513674D01*
X137980142Y-91513674D01*
G37*
D12*
G04 #@! TD*
G04 #@! TO.P,C4,2*
G04 #@! TO.N,+3V3*
X137500000Y-92000000D03*
D11*
G04 #@! TO.N,GND*
G04 #@! TO.C,C4*
G36*
X137980142Y-89638674D02*
X138003803Y-89642184D01*
X138027007Y-89647996D01*
X138049529Y-89656054D01*
X138071153Y-89666282D01*
X138091670Y-89678579D01*
X138110883Y-89692829D01*
X138128607Y-89708893D01*
X138144671Y-89726617D01*
X138158921Y-89745830D01*
X138171218Y-89766347D01*
X138181446Y-89787971D01*
X138189504Y-89810493D01*
X138195316Y-89833697D01*
X138198826Y-89857358D01*
X138200000Y-89881250D01*
X138200000Y-90368750D01*
X138198826Y-90392642D01*
X138195316Y-90416303D01*
X138189504Y-90439507D01*
X138181446Y-90462029D01*
X138171218Y-90483653D01*
X138158921Y-90504170D01*
X138144671Y-90523383D01*
X138128607Y-90541107D01*
X138110883Y-90557171D01*
X138091670Y-90571421D01*
X138071153Y-90583718D01*
X138049529Y-90593946D01*
X138027007Y-90602004D01*
X138003803Y-90607816D01*
X137980142Y-90611326D01*
X137956250Y-90612500D01*
X137043750Y-90612500D01*
X137019858Y-90611326D01*
X136996197Y-90607816D01*
X136972993Y-90602004D01*
X136950471Y-90593946D01*
X136928847Y-90583718D01*
X136908330Y-90571421D01*
X136889117Y-90557171D01*
X136871393Y-90541107D01*
X136855329Y-90523383D01*
X136841079Y-90504170D01*
X136828782Y-90483653D01*
X136818554Y-90462029D01*
X136810496Y-90439507D01*
X136804684Y-90416303D01*
X136801174Y-90392642D01*
X136800000Y-90368750D01*
X136800000Y-89881250D01*
X136801174Y-89857358D01*
X136804684Y-89833697D01*
X136810496Y-89810493D01*
X136818554Y-89787971D01*
X136828782Y-89766347D01*
X136841079Y-89745830D01*
X136855329Y-89726617D01*
X136871393Y-89708893D01*
X136889117Y-89692829D01*
X136908330Y-89678579D01*
X136928847Y-89666282D01*
X136950471Y-89656054D01*
X136972993Y-89647996D01*
X136996197Y-89642184D01*
X137019858Y-89638674D01*
X137043750Y-89637500D01*
X137956250Y-89637500D01*
X137980142Y-89638674D01*
X137980142Y-89638674D01*
G37*
D12*
G04 #@! TD*
G04 #@! TO.P,C4,1*
G04 #@! TO.N,GND*
X137500000Y-90125000D03*
D11*
G04 #@! TO.N,Net-(C5-Pad1)*
G04 #@! TO.C,C5*
G36*
X124205142Y-93801174D02*
X124228803Y-93804684D01*
X124252007Y-93810496D01*
X124274529Y-93818554D01*
X124296153Y-93828782D01*
X124316670Y-93841079D01*
X124335883Y-93855329D01*
X124353607Y-93871393D01*
X124369671Y-93889117D01*
X124383921Y-93908330D01*
X124396218Y-93928847D01*
X124406446Y-93950471D01*
X124414504Y-93972993D01*
X124420316Y-93996197D01*
X124423826Y-94019858D01*
X124425000Y-94043750D01*
X124425000Y-94956250D01*
X124423826Y-94980142D01*
X124420316Y-95003803D01*
X124414504Y-95027007D01*
X124406446Y-95049529D01*
X124396218Y-95071153D01*
X124383921Y-95091670D01*
X124369671Y-95110883D01*
X124353607Y-95128607D01*
X124335883Y-95144671D01*
X124316670Y-95158921D01*
X124296153Y-95171218D01*
X124274529Y-95181446D01*
X124252007Y-95189504D01*
X124228803Y-95195316D01*
X124205142Y-95198826D01*
X124181250Y-95200000D01*
X123693750Y-95200000D01*
X123669858Y-95198826D01*
X123646197Y-95195316D01*
X123622993Y-95189504D01*
X123600471Y-95181446D01*
X123578847Y-95171218D01*
X123558330Y-95158921D01*
X123539117Y-95144671D01*
X123521393Y-95128607D01*
X123505329Y-95110883D01*
X123491079Y-95091670D01*
X123478782Y-95071153D01*
X123468554Y-95049529D01*
X123460496Y-95027007D01*
X123454684Y-95003803D01*
X123451174Y-94980142D01*
X123450000Y-94956250D01*
X123450000Y-94043750D01*
X123451174Y-94019858D01*
X123454684Y-93996197D01*
X123460496Y-93972993D01*
X123468554Y-93950471D01*
X123478782Y-93928847D01*
X123491079Y-93908330D01*
X123505329Y-93889117D01*
X123521393Y-93871393D01*
X123539117Y-93855329D01*
X123558330Y-93841079D01*
X123578847Y-93828782D01*
X123600471Y-93818554D01*
X123622993Y-93810496D01*
X123646197Y-93804684D01*
X123669858Y-93801174D01*
X123693750Y-93800000D01*
X124181250Y-93800000D01*
X124205142Y-93801174D01*
X124205142Y-93801174D01*
G37*
D12*
G04 #@! TD*
G04 #@! TO.P,C5,1*
G04 #@! TO.N,Net-(C5-Pad1)*
X123937500Y-94500000D03*
D11*
G04 #@! TO.N,GND*
G04 #@! TO.C,C5*
G36*
X122330142Y-93801174D02*
X122353803Y-93804684D01*
X122377007Y-93810496D01*
X122399529Y-93818554D01*
X122421153Y-93828782D01*
X122441670Y-93841079D01*
X122460883Y-93855329D01*
X122478607Y-93871393D01*
X122494671Y-93889117D01*
X122508921Y-93908330D01*
X122521218Y-93928847D01*
X122531446Y-93950471D01*
X122539504Y-93972993D01*
X122545316Y-93996197D01*
X122548826Y-94019858D01*
X122550000Y-94043750D01*
X122550000Y-94956250D01*
X122548826Y-94980142D01*
X122545316Y-95003803D01*
X122539504Y-95027007D01*
X122531446Y-95049529D01*
X122521218Y-95071153D01*
X122508921Y-95091670D01*
X122494671Y-95110883D01*
X122478607Y-95128607D01*
X122460883Y-95144671D01*
X122441670Y-95158921D01*
X122421153Y-95171218D01*
X122399529Y-95181446D01*
X122377007Y-95189504D01*
X122353803Y-95195316D01*
X122330142Y-95198826D01*
X122306250Y-95200000D01*
X121818750Y-95200000D01*
X121794858Y-95198826D01*
X121771197Y-95195316D01*
X121747993Y-95189504D01*
X121725471Y-95181446D01*
X121703847Y-95171218D01*
X121683330Y-95158921D01*
X121664117Y-95144671D01*
X121646393Y-95128607D01*
X121630329Y-95110883D01*
X121616079Y-95091670D01*
X121603782Y-95071153D01*
X121593554Y-95049529D01*
X121585496Y-95027007D01*
X121579684Y-95003803D01*
X121576174Y-94980142D01*
X121575000Y-94956250D01*
X121575000Y-94043750D01*
X121576174Y-94019858D01*
X121579684Y-93996197D01*
X121585496Y-93972993D01*
X121593554Y-93950471D01*
X121603782Y-93928847D01*
X121616079Y-93908330D01*
X121630329Y-93889117D01*
X121646393Y-93871393D01*
X121664117Y-93855329D01*
X121683330Y-93841079D01*
X121703847Y-93828782D01*
X121725471Y-93818554D01*
X121747993Y-93810496D01*
X121771197Y-93804684D01*
X121794858Y-93801174D01*
X121818750Y-93800000D01*
X122306250Y-93800000D01*
X122330142Y-93801174D01*
X122330142Y-93801174D01*
G37*
D12*
G04 #@! TD*
G04 #@! TO.P,C5,2*
G04 #@! TO.N,GND*
X122062500Y-94500000D03*
D11*
G04 #@! TO.N,Net-(C6-Pad1)*
G04 #@! TO.C,C6*
G36*
X122330142Y-98801174D02*
X122353803Y-98804684D01*
X122377007Y-98810496D01*
X122399529Y-98818554D01*
X122421153Y-98828782D01*
X122441670Y-98841079D01*
X122460883Y-98855329D01*
X122478607Y-98871393D01*
X122494671Y-98889117D01*
X122508921Y-98908330D01*
X122521218Y-98928847D01*
X122531446Y-98950471D01*
X122539504Y-98972993D01*
X122545316Y-98996197D01*
X122548826Y-99019858D01*
X122550000Y-99043750D01*
X122550000Y-99956250D01*
X122548826Y-99980142D01*
X122545316Y-100003803D01*
X122539504Y-100027007D01*
X122531446Y-100049529D01*
X122521218Y-100071153D01*
X122508921Y-100091670D01*
X122494671Y-100110883D01*
X122478607Y-100128607D01*
X122460883Y-100144671D01*
X122441670Y-100158921D01*
X122421153Y-100171218D01*
X122399529Y-100181446D01*
X122377007Y-100189504D01*
X122353803Y-100195316D01*
X122330142Y-100198826D01*
X122306250Y-100200000D01*
X121818750Y-100200000D01*
X121794858Y-100198826D01*
X121771197Y-100195316D01*
X121747993Y-100189504D01*
X121725471Y-100181446D01*
X121703847Y-100171218D01*
X121683330Y-100158921D01*
X121664117Y-100144671D01*
X121646393Y-100128607D01*
X121630329Y-100110883D01*
X121616079Y-100091670D01*
X121603782Y-100071153D01*
X121593554Y-100049529D01*
X121585496Y-100027007D01*
X121579684Y-100003803D01*
X121576174Y-99980142D01*
X121575000Y-99956250D01*
X121575000Y-99043750D01*
X121576174Y-99019858D01*
X121579684Y-98996197D01*
X121585496Y-98972993D01*
X121593554Y-98950471D01*
X121603782Y-98928847D01*
X121616079Y-98908330D01*
X121630329Y-98889117D01*
X121646393Y-98871393D01*
X121664117Y-98855329D01*
X121683330Y-98841079D01*
X121703847Y-98828782D01*
X121725471Y-98818554D01*
X121747993Y-98810496D01*
X121771197Y-98804684D01*
X121794858Y-98801174D01*
X121818750Y-98800000D01*
X122306250Y-98800000D01*
X122330142Y-98801174D01*
X122330142Y-98801174D01*
G37*
D12*
G04 #@! TD*
G04 #@! TO.P,C6,1*
G04 #@! TO.N,Net-(C6-Pad1)*
X122062500Y-99500000D03*
D11*
G04 #@! TO.N,GND*
G04 #@! TO.C,C6*
G36*
X124205142Y-98801174D02*
X124228803Y-98804684D01*
X124252007Y-98810496D01*
X124274529Y-98818554D01*
X124296153Y-98828782D01*
X124316670Y-98841079D01*
X124335883Y-98855329D01*
X124353607Y-98871393D01*
X124369671Y-98889117D01*
X124383921Y-98908330D01*
X124396218Y-98928847D01*
X124406446Y-98950471D01*
X124414504Y-98972993D01*
X124420316Y-98996197D01*
X124423826Y-99019858D01*
X124425000Y-99043750D01*
X124425000Y-99956250D01*
X124423826Y-99980142D01*
X124420316Y-100003803D01*
X124414504Y-100027007D01*
X124406446Y-100049529D01*
X124396218Y-100071153D01*
X124383921Y-100091670D01*
X124369671Y-100110883D01*
X124353607Y-100128607D01*
X124335883Y-100144671D01*
X124316670Y-100158921D01*
X124296153Y-100171218D01*
X124274529Y-100181446D01*
X124252007Y-100189504D01*
X124228803Y-100195316D01*
X124205142Y-100198826D01*
X124181250Y-100200000D01*
X123693750Y-100200000D01*
X123669858Y-100198826D01*
X123646197Y-100195316D01*
X123622993Y-100189504D01*
X123600471Y-100181446D01*
X123578847Y-100171218D01*
X123558330Y-100158921D01*
X123539117Y-100144671D01*
X123521393Y-100128607D01*
X123505329Y-100110883D01*
X123491079Y-100091670D01*
X123478782Y-100071153D01*
X123468554Y-100049529D01*
X123460496Y-100027007D01*
X123454684Y-100003803D01*
X123451174Y-99980142D01*
X123450000Y-99956250D01*
X123450000Y-99043750D01*
X123451174Y-99019858D01*
X123454684Y-98996197D01*
X123460496Y-98972993D01*
X123468554Y-98950471D01*
X123478782Y-98928847D01*
X123491079Y-98908330D01*
X123505329Y-98889117D01*
X123521393Y-98871393D01*
X123539117Y-98855329D01*
X123558330Y-98841079D01*
X123578847Y-98828782D01*
X123600471Y-98818554D01*
X123622993Y-98810496D01*
X123646197Y-98804684D01*
X123669858Y-98801174D01*
X123693750Y-98800000D01*
X124181250Y-98800000D01*
X124205142Y-98801174D01*
X124205142Y-98801174D01*
G37*
D12*
G04 #@! TD*
G04 #@! TO.P,C6,2*
G04 #@! TO.N,GND*
X123937500Y-99500000D03*
D11*
G04 #@! TO.N,+3V3*
G04 #@! TO.C,C7*
G36*
X124205142Y-96301174D02*
X124228803Y-96304684D01*
X124252007Y-96310496D01*
X124274529Y-96318554D01*
X124296153Y-96328782D01*
X124316670Y-96341079D01*
X124335883Y-96355329D01*
X124353607Y-96371393D01*
X124369671Y-96389117D01*
X124383921Y-96408330D01*
X124396218Y-96428847D01*
X124406446Y-96450471D01*
X124414504Y-96472993D01*
X124420316Y-96496197D01*
X124423826Y-96519858D01*
X124425000Y-96543750D01*
X124425000Y-97456250D01*
X124423826Y-97480142D01*
X124420316Y-97503803D01*
X124414504Y-97527007D01*
X124406446Y-97549529D01*
X124396218Y-97571153D01*
X124383921Y-97591670D01*
X124369671Y-97610883D01*
X124353607Y-97628607D01*
X124335883Y-97644671D01*
X124316670Y-97658921D01*
X124296153Y-97671218D01*
X124274529Y-97681446D01*
X124252007Y-97689504D01*
X124228803Y-97695316D01*
X124205142Y-97698826D01*
X124181250Y-97700000D01*
X123693750Y-97700000D01*
X123669858Y-97698826D01*
X123646197Y-97695316D01*
X123622993Y-97689504D01*
X123600471Y-97681446D01*
X123578847Y-97671218D01*
X123558330Y-97658921D01*
X123539117Y-97644671D01*
X123521393Y-97628607D01*
X123505329Y-97610883D01*
X123491079Y-97591670D01*
X123478782Y-97571153D01*
X123468554Y-97549529D01*
X123460496Y-97527007D01*
X123454684Y-97503803D01*
X123451174Y-97480142D01*
X123450000Y-97456250D01*
X123450000Y-96543750D01*
X123451174Y-96519858D01*
X123454684Y-96496197D01*
X123460496Y-96472993D01*
X123468554Y-96450471D01*
X123478782Y-96428847D01*
X123491079Y-96408330D01*
X123505329Y-96389117D01*
X123521393Y-96371393D01*
X123539117Y-96355329D01*
X123558330Y-96341079D01*
X123578847Y-96328782D01*
X123600471Y-96318554D01*
X123622993Y-96310496D01*
X123646197Y-96304684D01*
X123669858Y-96301174D01*
X123693750Y-96300000D01*
X124181250Y-96300000D01*
X124205142Y-96301174D01*
X124205142Y-96301174D01*
G37*
D12*
G04 #@! TD*
G04 #@! TO.P,C7,1*
G04 #@! TO.N,+3V3*
X123937500Y-97000000D03*
D11*
G04 #@! TO.N,GND*
G04 #@! TO.C,C7*
G36*
X122330142Y-96301174D02*
X122353803Y-96304684D01*
X122377007Y-96310496D01*
X122399529Y-96318554D01*
X122421153Y-96328782D01*
X122441670Y-96341079D01*
X122460883Y-96355329D01*
X122478607Y-96371393D01*
X122494671Y-96389117D01*
X122508921Y-96408330D01*
X122521218Y-96428847D01*
X122531446Y-96450471D01*
X122539504Y-96472993D01*
X122545316Y-96496197D01*
X122548826Y-96519858D01*
X122550000Y-96543750D01*
X122550000Y-97456250D01*
X122548826Y-97480142D01*
X122545316Y-97503803D01*
X122539504Y-97527007D01*
X122531446Y-97549529D01*
X122521218Y-97571153D01*
X122508921Y-97591670D01*
X122494671Y-97610883D01*
X122478607Y-97628607D01*
X122460883Y-97644671D01*
X122441670Y-97658921D01*
X122421153Y-97671218D01*
X122399529Y-97681446D01*
X122377007Y-97689504D01*
X122353803Y-97695316D01*
X122330142Y-97698826D01*
X122306250Y-97700000D01*
X121818750Y-97700000D01*
X121794858Y-97698826D01*
X121771197Y-97695316D01*
X121747993Y-97689504D01*
X121725471Y-97681446D01*
X121703847Y-97671218D01*
X121683330Y-97658921D01*
X121664117Y-97644671D01*
X121646393Y-97628607D01*
X121630329Y-97610883D01*
X121616079Y-97591670D01*
X121603782Y-97571153D01*
X121593554Y-97549529D01*
X121585496Y-97527007D01*
X121579684Y-97503803D01*
X121576174Y-97480142D01*
X121575000Y-97456250D01*
X121575000Y-96543750D01*
X121576174Y-96519858D01*
X121579684Y-96496197D01*
X121585496Y-96472993D01*
X121593554Y-96450471D01*
X121603782Y-96428847D01*
X121616079Y-96408330D01*
X121630329Y-96389117D01*
X121646393Y-96371393D01*
X121664117Y-96355329D01*
X121683330Y-96341079D01*
X121703847Y-96328782D01*
X121725471Y-96318554D01*
X121747993Y-96310496D01*
X121771197Y-96304684D01*
X121794858Y-96301174D01*
X121818750Y-96300000D01*
X122306250Y-96300000D01*
X122330142Y-96301174D01*
X122330142Y-96301174D01*
G37*
D12*
G04 #@! TD*
G04 #@! TO.P,C7,2*
G04 #@! TO.N,GND*
X122062500Y-97000000D03*
D11*
G04 #@! TO.N,+3V3*
G04 #@! TO.C,C8*
G36*
X135480142Y-89638674D02*
X135503803Y-89642184D01*
X135527007Y-89647996D01*
X135549529Y-89656054D01*
X135571153Y-89666282D01*
X135591670Y-89678579D01*
X135610883Y-89692829D01*
X135628607Y-89708893D01*
X135644671Y-89726617D01*
X135658921Y-89745830D01*
X135671218Y-89766347D01*
X135681446Y-89787971D01*
X135689504Y-89810493D01*
X135695316Y-89833697D01*
X135698826Y-89857358D01*
X135700000Y-89881250D01*
X135700000Y-90368750D01*
X135698826Y-90392642D01*
X135695316Y-90416303D01*
X135689504Y-90439507D01*
X135681446Y-90462029D01*
X135671218Y-90483653D01*
X135658921Y-90504170D01*
X135644671Y-90523383D01*
X135628607Y-90541107D01*
X135610883Y-90557171D01*
X135591670Y-90571421D01*
X135571153Y-90583718D01*
X135549529Y-90593946D01*
X135527007Y-90602004D01*
X135503803Y-90607816D01*
X135480142Y-90611326D01*
X135456250Y-90612500D01*
X134543750Y-90612500D01*
X134519858Y-90611326D01*
X134496197Y-90607816D01*
X134472993Y-90602004D01*
X134450471Y-90593946D01*
X134428847Y-90583718D01*
X134408330Y-90571421D01*
X134389117Y-90557171D01*
X134371393Y-90541107D01*
X134355329Y-90523383D01*
X134341079Y-90504170D01*
X134328782Y-90483653D01*
X134318554Y-90462029D01*
X134310496Y-90439507D01*
X134304684Y-90416303D01*
X134301174Y-90392642D01*
X134300000Y-90368750D01*
X134300000Y-89881250D01*
X134301174Y-89857358D01*
X134304684Y-89833697D01*
X134310496Y-89810493D01*
X134318554Y-89787971D01*
X134328782Y-89766347D01*
X134341079Y-89745830D01*
X134355329Y-89726617D01*
X134371393Y-89708893D01*
X134389117Y-89692829D01*
X134408330Y-89678579D01*
X134428847Y-89666282D01*
X134450471Y-89656054D01*
X134472993Y-89647996D01*
X134496197Y-89642184D01*
X134519858Y-89638674D01*
X134543750Y-89637500D01*
X135456250Y-89637500D01*
X135480142Y-89638674D01*
X135480142Y-89638674D01*
G37*
D12*
G04 #@! TD*
G04 #@! TO.P,C8,1*
G04 #@! TO.N,+3V3*
X135000000Y-90125000D03*
D11*
G04 #@! TO.N,GND*
G04 #@! TO.C,C8*
G36*
X135480142Y-91513674D02*
X135503803Y-91517184D01*
X135527007Y-91522996D01*
X135549529Y-91531054D01*
X135571153Y-91541282D01*
X135591670Y-91553579D01*
X135610883Y-91567829D01*
X135628607Y-91583893D01*
X135644671Y-91601617D01*
X135658921Y-91620830D01*
X135671218Y-91641347D01*
X135681446Y-91662971D01*
X135689504Y-91685493D01*
X135695316Y-91708697D01*
X135698826Y-91732358D01*
X135700000Y-91756250D01*
X135700000Y-92243750D01*
X135698826Y-92267642D01*
X135695316Y-92291303D01*
X135689504Y-92314507D01*
X135681446Y-92337029D01*
X135671218Y-92358653D01*
X135658921Y-92379170D01*
X135644671Y-92398383D01*
X135628607Y-92416107D01*
X135610883Y-92432171D01*
X135591670Y-92446421D01*
X135571153Y-92458718D01*
X135549529Y-92468946D01*
X135527007Y-92477004D01*
X135503803Y-92482816D01*
X135480142Y-92486326D01*
X135456250Y-92487500D01*
X134543750Y-92487500D01*
X134519858Y-92486326D01*
X134496197Y-92482816D01*
X134472993Y-92477004D01*
X134450471Y-92468946D01*
X134428847Y-92458718D01*
X134408330Y-92446421D01*
X134389117Y-92432171D01*
X134371393Y-92416107D01*
X134355329Y-92398383D01*
X134341079Y-92379170D01*
X134328782Y-92358653D01*
X134318554Y-92337029D01*
X134310496Y-92314507D01*
X134304684Y-92291303D01*
X134301174Y-92267642D01*
X134300000Y-92243750D01*
X134300000Y-91756250D01*
X134301174Y-91732358D01*
X134304684Y-91708697D01*
X134310496Y-91685493D01*
X134318554Y-91662971D01*
X134328782Y-91641347D01*
X134341079Y-91620830D01*
X134355329Y-91601617D01*
X134371393Y-91583893D01*
X134389117Y-91567829D01*
X134408330Y-91553579D01*
X134428847Y-91541282D01*
X134450471Y-91531054D01*
X134472993Y-91522996D01*
X134496197Y-91517184D01*
X134519858Y-91513674D01*
X134543750Y-91512500D01*
X135456250Y-91512500D01*
X135480142Y-91513674D01*
X135480142Y-91513674D01*
G37*
D12*
G04 #@! TD*
G04 #@! TO.P,C8,2*
G04 #@! TO.N,GND*
X135000000Y-92000000D03*
D11*
G04 #@! TO.N,GND*
G04 #@! TO.C,D1*
G36*
X145705142Y-87301174D02*
X145728803Y-87304684D01*
X145752007Y-87310496D01*
X145774529Y-87318554D01*
X145796153Y-87328782D01*
X145816670Y-87341079D01*
X145835883Y-87355329D01*
X145853607Y-87371393D01*
X145869671Y-87389117D01*
X145883921Y-87408330D01*
X145896218Y-87428847D01*
X145906446Y-87450471D01*
X145914504Y-87472993D01*
X145920316Y-87496197D01*
X145923826Y-87519858D01*
X145925000Y-87543750D01*
X145925000Y-88456250D01*
X145923826Y-88480142D01*
X145920316Y-88503803D01*
X145914504Y-88527007D01*
X145906446Y-88549529D01*
X145896218Y-88571153D01*
X145883921Y-88591670D01*
X145869671Y-88610883D01*
X145853607Y-88628607D01*
X145835883Y-88644671D01*
X145816670Y-88658921D01*
X145796153Y-88671218D01*
X145774529Y-88681446D01*
X145752007Y-88689504D01*
X145728803Y-88695316D01*
X145705142Y-88698826D01*
X145681250Y-88700000D01*
X145193750Y-88700000D01*
X145169858Y-88698826D01*
X145146197Y-88695316D01*
X145122993Y-88689504D01*
X145100471Y-88681446D01*
X145078847Y-88671218D01*
X145058330Y-88658921D01*
X145039117Y-88644671D01*
X145021393Y-88628607D01*
X145005329Y-88610883D01*
X144991079Y-88591670D01*
X144978782Y-88571153D01*
X144968554Y-88549529D01*
X144960496Y-88527007D01*
X144954684Y-88503803D01*
X144951174Y-88480142D01*
X144950000Y-88456250D01*
X144950000Y-87543750D01*
X144951174Y-87519858D01*
X144954684Y-87496197D01*
X144960496Y-87472993D01*
X144968554Y-87450471D01*
X144978782Y-87428847D01*
X144991079Y-87408330D01*
X145005329Y-87389117D01*
X145021393Y-87371393D01*
X145039117Y-87355329D01*
X145058330Y-87341079D01*
X145078847Y-87328782D01*
X145100471Y-87318554D01*
X145122993Y-87310496D01*
X145146197Y-87304684D01*
X145169858Y-87301174D01*
X145193750Y-87300000D01*
X145681250Y-87300000D01*
X145705142Y-87301174D01*
X145705142Y-87301174D01*
G37*
D12*
G04 #@! TD*
G04 #@! TO.P,D1,1*
G04 #@! TO.N,GND*
X145437500Y-88000000D03*
D11*
G04 #@! TO.N,Net-(D1-Pad2)*
G04 #@! TO.C,D1*
G36*
X143830142Y-87301174D02*
X143853803Y-87304684D01*
X143877007Y-87310496D01*
X143899529Y-87318554D01*
X143921153Y-87328782D01*
X143941670Y-87341079D01*
X143960883Y-87355329D01*
X143978607Y-87371393D01*
X143994671Y-87389117D01*
X144008921Y-87408330D01*
X144021218Y-87428847D01*
X144031446Y-87450471D01*
X144039504Y-87472993D01*
X144045316Y-87496197D01*
X144048826Y-87519858D01*
X144050000Y-87543750D01*
X144050000Y-88456250D01*
X144048826Y-88480142D01*
X144045316Y-88503803D01*
X144039504Y-88527007D01*
X144031446Y-88549529D01*
X144021218Y-88571153D01*
X144008921Y-88591670D01*
X143994671Y-88610883D01*
X143978607Y-88628607D01*
X143960883Y-88644671D01*
X143941670Y-88658921D01*
X143921153Y-88671218D01*
X143899529Y-88681446D01*
X143877007Y-88689504D01*
X143853803Y-88695316D01*
X143830142Y-88698826D01*
X143806250Y-88700000D01*
X143318750Y-88700000D01*
X143294858Y-88698826D01*
X143271197Y-88695316D01*
X143247993Y-88689504D01*
X143225471Y-88681446D01*
X143203847Y-88671218D01*
X143183330Y-88658921D01*
X143164117Y-88644671D01*
X143146393Y-88628607D01*
X143130329Y-88610883D01*
X143116079Y-88591670D01*
X143103782Y-88571153D01*
X143093554Y-88549529D01*
X143085496Y-88527007D01*
X143079684Y-88503803D01*
X143076174Y-88480142D01*
X143075000Y-88456250D01*
X143075000Y-87543750D01*
X143076174Y-87519858D01*
X143079684Y-87496197D01*
X143085496Y-87472993D01*
X143093554Y-87450471D01*
X143103782Y-87428847D01*
X143116079Y-87408330D01*
X143130329Y-87389117D01*
X143146393Y-87371393D01*
X143164117Y-87355329D01*
X143183330Y-87341079D01*
X143203847Y-87328782D01*
X143225471Y-87318554D01*
X143247993Y-87310496D01*
X143271197Y-87304684D01*
X143294858Y-87301174D01*
X143318750Y-87300000D01*
X143806250Y-87300000D01*
X143830142Y-87301174D01*
X143830142Y-87301174D01*
G37*
D12*
G04 #@! TD*
G04 #@! TO.P,D1,2*
G04 #@! TO.N,Net-(D1-Pad2)*
X143562500Y-88000000D03*
D13*
G04 #@! TO.P,J1,6*
G04 #@! TO.N,GND*
X113000000Y-92801120D03*
X113000000Y-95198880D03*
X113000000Y-97949700D03*
X113000000Y-90050300D03*
D14*
G04 #@! TO.P,J1,1*
G04 #@! TO.N,+5V*
X116000000Y-92699520D03*
G04 #@! TO.P,J1,2*
G04 #@! TO.N,/USB_DM*
X116000000Y-93352300D03*
G04 #@! TO.P,J1,3*
G04 #@! TO.N,/USB_DP*
X116000000Y-94000000D03*
G04 #@! TO.P,J1,4*
G04 #@! TO.N,N/C*
X116000000Y-94647700D03*
G04 #@! TO.P,J1,5*
G04 #@! TO.N,GND*
X116000000Y-95300480D03*
D15*
X115146300Y-95897380D03*
G04 #@! TO.P,J1,1*
G04 #@! TO.N,+5V*
X115148840Y-92100080D03*
G04 #@! TD*
D11*
G04 #@! TO.N,Net-(C1-Pad1)*
G04 #@! TO.C,L1*
G36*
X148980142Y-89513674D02*
X149003803Y-89517184D01*
X149027007Y-89522996D01*
X149049529Y-89531054D01*
X149071153Y-89541282D01*
X149091670Y-89553579D01*
X149110883Y-89567829D01*
X149128607Y-89583893D01*
X149144671Y-89601617D01*
X149158921Y-89620830D01*
X149171218Y-89641347D01*
X149181446Y-89662971D01*
X149189504Y-89685493D01*
X149195316Y-89708697D01*
X149198826Y-89732358D01*
X149200000Y-89756250D01*
X149200000Y-90243750D01*
X149198826Y-90267642D01*
X149195316Y-90291303D01*
X149189504Y-90314507D01*
X149181446Y-90337029D01*
X149171218Y-90358653D01*
X149158921Y-90379170D01*
X149144671Y-90398383D01*
X149128607Y-90416107D01*
X149110883Y-90432171D01*
X149091670Y-90446421D01*
X149071153Y-90458718D01*
X149049529Y-90468946D01*
X149027007Y-90477004D01*
X149003803Y-90482816D01*
X148980142Y-90486326D01*
X148956250Y-90487500D01*
X148043750Y-90487500D01*
X148019858Y-90486326D01*
X147996197Y-90482816D01*
X147972993Y-90477004D01*
X147950471Y-90468946D01*
X147928847Y-90458718D01*
X147908330Y-90446421D01*
X147889117Y-90432171D01*
X147871393Y-90416107D01*
X147855329Y-90398383D01*
X147841079Y-90379170D01*
X147828782Y-90358653D01*
X147818554Y-90337029D01*
X147810496Y-90314507D01*
X147804684Y-90291303D01*
X147801174Y-90267642D01*
X147800000Y-90243750D01*
X147800000Y-89756250D01*
X147801174Y-89732358D01*
X147804684Y-89708697D01*
X147810496Y-89685493D01*
X147818554Y-89662971D01*
X147828782Y-89641347D01*
X147841079Y-89620830D01*
X147855329Y-89601617D01*
X147871393Y-89583893D01*
X147889117Y-89567829D01*
X147908330Y-89553579D01*
X147928847Y-89541282D01*
X147950471Y-89531054D01*
X147972993Y-89522996D01*
X147996197Y-89517184D01*
X148019858Y-89513674D01*
X148043750Y-89512500D01*
X148956250Y-89512500D01*
X148980142Y-89513674D01*
X148980142Y-89513674D01*
G37*
D12*
G04 #@! TD*
G04 #@! TO.P,L1,2*
G04 #@! TO.N,Net-(C1-Pad1)*
X148500000Y-90000000D03*
D11*
G04 #@! TO.N,GND*
G04 #@! TO.C,L1*
G36*
X148980142Y-87638674D02*
X149003803Y-87642184D01*
X149027007Y-87647996D01*
X149049529Y-87656054D01*
X149071153Y-87666282D01*
X149091670Y-87678579D01*
X149110883Y-87692829D01*
X149128607Y-87708893D01*
X149144671Y-87726617D01*
X149158921Y-87745830D01*
X149171218Y-87766347D01*
X149181446Y-87787971D01*
X149189504Y-87810493D01*
X149195316Y-87833697D01*
X149198826Y-87857358D01*
X149200000Y-87881250D01*
X149200000Y-88368750D01*
X149198826Y-88392642D01*
X149195316Y-88416303D01*
X149189504Y-88439507D01*
X149181446Y-88462029D01*
X149171218Y-88483653D01*
X149158921Y-88504170D01*
X149144671Y-88523383D01*
X149128607Y-88541107D01*
X149110883Y-88557171D01*
X149091670Y-88571421D01*
X149071153Y-88583718D01*
X149049529Y-88593946D01*
X149027007Y-88602004D01*
X149003803Y-88607816D01*
X148980142Y-88611326D01*
X148956250Y-88612500D01*
X148043750Y-88612500D01*
X148019858Y-88611326D01*
X147996197Y-88607816D01*
X147972993Y-88602004D01*
X147950471Y-88593946D01*
X147928847Y-88583718D01*
X147908330Y-88571421D01*
X147889117Y-88557171D01*
X147871393Y-88541107D01*
X147855329Y-88523383D01*
X147841079Y-88504170D01*
X147828782Y-88483653D01*
X147818554Y-88462029D01*
X147810496Y-88439507D01*
X147804684Y-88416303D01*
X147801174Y-88392642D01*
X147800000Y-88368750D01*
X147800000Y-87881250D01*
X147801174Y-87857358D01*
X147804684Y-87833697D01*
X147810496Y-87810493D01*
X147818554Y-87787971D01*
X147828782Y-87766347D01*
X147841079Y-87745830D01*
X147855329Y-87726617D01*
X147871393Y-87708893D01*
X147889117Y-87692829D01*
X147908330Y-87678579D01*
X147928847Y-87666282D01*
X147950471Y-87656054D01*
X147972993Y-87647996D01*
X147996197Y-87642184D01*
X148019858Y-87638674D01*
X148043750Y-87637500D01*
X148956250Y-87637500D01*
X148980142Y-87638674D01*
X148980142Y-87638674D01*
G37*
D12*
G04 #@! TD*
G04 #@! TO.P,L1,1*
G04 #@! TO.N,GND*
X148500000Y-88125000D03*
D11*
G04 #@! TO.N,Net-(L2-Pad1)*
G04 #@! TO.C,L2*
G36*
X149980142Y-93576174D02*
X150003803Y-93579684D01*
X150027007Y-93585496D01*
X150049529Y-93593554D01*
X150071153Y-93603782D01*
X150091670Y-93616079D01*
X150110883Y-93630329D01*
X150128607Y-93646393D01*
X150144671Y-93664117D01*
X150158921Y-93683330D01*
X150171218Y-93703847D01*
X150181446Y-93725471D01*
X150189504Y-93747993D01*
X150195316Y-93771197D01*
X150198826Y-93794858D01*
X150200000Y-93818750D01*
X150200000Y-94306250D01*
X150198826Y-94330142D01*
X150195316Y-94353803D01*
X150189504Y-94377007D01*
X150181446Y-94399529D01*
X150171218Y-94421153D01*
X150158921Y-94441670D01*
X150144671Y-94460883D01*
X150128607Y-94478607D01*
X150110883Y-94494671D01*
X150091670Y-94508921D01*
X150071153Y-94521218D01*
X150049529Y-94531446D01*
X150027007Y-94539504D01*
X150003803Y-94545316D01*
X149980142Y-94548826D01*
X149956250Y-94550000D01*
X149043750Y-94550000D01*
X149019858Y-94548826D01*
X148996197Y-94545316D01*
X148972993Y-94539504D01*
X148950471Y-94531446D01*
X148928847Y-94521218D01*
X148908330Y-94508921D01*
X148889117Y-94494671D01*
X148871393Y-94478607D01*
X148855329Y-94460883D01*
X148841079Y-94441670D01*
X148828782Y-94421153D01*
X148818554Y-94399529D01*
X148810496Y-94377007D01*
X148804684Y-94353803D01*
X148801174Y-94330142D01*
X148800000Y-94306250D01*
X148800000Y-93818750D01*
X148801174Y-93794858D01*
X148804684Y-93771197D01*
X148810496Y-93747993D01*
X148818554Y-93725471D01*
X148828782Y-93703847D01*
X148841079Y-93683330D01*
X148855329Y-93664117D01*
X148871393Y-93646393D01*
X148889117Y-93630329D01*
X148908330Y-93616079D01*
X148928847Y-93603782D01*
X148950471Y-93593554D01*
X148972993Y-93585496D01*
X148996197Y-93579684D01*
X149019858Y-93576174D01*
X149043750Y-93575000D01*
X149956250Y-93575000D01*
X149980142Y-93576174D01*
X149980142Y-93576174D01*
G37*
D12*
G04 #@! TD*
G04 #@! TO.P,L2,1*
G04 #@! TO.N,Net-(L2-Pad1)*
X149500000Y-94062500D03*
D11*
G04 #@! TO.N,Net-(L2-Pad2)*
G04 #@! TO.C,L2*
G36*
X149980142Y-95451174D02*
X150003803Y-95454684D01*
X150027007Y-95460496D01*
X150049529Y-95468554D01*
X150071153Y-95478782D01*
X150091670Y-95491079D01*
X150110883Y-95505329D01*
X150128607Y-95521393D01*
X150144671Y-95539117D01*
X150158921Y-95558330D01*
X150171218Y-95578847D01*
X150181446Y-95600471D01*
X150189504Y-95622993D01*
X150195316Y-95646197D01*
X150198826Y-95669858D01*
X150200000Y-95693750D01*
X150200000Y-96181250D01*
X150198826Y-96205142D01*
X150195316Y-96228803D01*
X150189504Y-96252007D01*
X150181446Y-96274529D01*
X150171218Y-96296153D01*
X150158921Y-96316670D01*
X150144671Y-96335883D01*
X150128607Y-96353607D01*
X150110883Y-96369671D01*
X150091670Y-96383921D01*
X150071153Y-96396218D01*
X150049529Y-96406446D01*
X150027007Y-96414504D01*
X150003803Y-96420316D01*
X149980142Y-96423826D01*
X149956250Y-96425000D01*
X149043750Y-96425000D01*
X149019858Y-96423826D01*
X148996197Y-96420316D01*
X148972993Y-96414504D01*
X148950471Y-96406446D01*
X148928847Y-96396218D01*
X148908330Y-96383921D01*
X148889117Y-96369671D01*
X148871393Y-96353607D01*
X148855329Y-96335883D01*
X148841079Y-96316670D01*
X148828782Y-96296153D01*
X148818554Y-96274529D01*
X148810496Y-96252007D01*
X148804684Y-96228803D01*
X148801174Y-96205142D01*
X148800000Y-96181250D01*
X148800000Y-95693750D01*
X148801174Y-95669858D01*
X148804684Y-95646197D01*
X148810496Y-95622993D01*
X148818554Y-95600471D01*
X148828782Y-95578847D01*
X148841079Y-95558330D01*
X148855329Y-95539117D01*
X148871393Y-95521393D01*
X148889117Y-95505329D01*
X148908330Y-95491079D01*
X148928847Y-95478782D01*
X148950471Y-95468554D01*
X148972993Y-95460496D01*
X148996197Y-95454684D01*
X149019858Y-95451174D01*
X149043750Y-95450000D01*
X149956250Y-95450000D01*
X149980142Y-95451174D01*
X149980142Y-95451174D01*
G37*
D12*
G04 #@! TD*
G04 #@! TO.P,L2,2*
G04 #@! TO.N,Net-(L2-Pad2)*
X149500000Y-95937500D03*
D11*
G04 #@! TO.N,/LED*
G04 #@! TO.C,R1*
G36*
X139830142Y-87301174D02*
X139853803Y-87304684D01*
X139877007Y-87310496D01*
X139899529Y-87318554D01*
X139921153Y-87328782D01*
X139941670Y-87341079D01*
X139960883Y-87355329D01*
X139978607Y-87371393D01*
X139994671Y-87389117D01*
X140008921Y-87408330D01*
X140021218Y-87428847D01*
X140031446Y-87450471D01*
X140039504Y-87472993D01*
X140045316Y-87496197D01*
X140048826Y-87519858D01*
X140050000Y-87543750D01*
X140050000Y-88456250D01*
X140048826Y-88480142D01*
X140045316Y-88503803D01*
X140039504Y-88527007D01*
X140031446Y-88549529D01*
X140021218Y-88571153D01*
X140008921Y-88591670D01*
X139994671Y-88610883D01*
X139978607Y-88628607D01*
X139960883Y-88644671D01*
X139941670Y-88658921D01*
X139921153Y-88671218D01*
X139899529Y-88681446D01*
X139877007Y-88689504D01*
X139853803Y-88695316D01*
X139830142Y-88698826D01*
X139806250Y-88700000D01*
X139318750Y-88700000D01*
X139294858Y-88698826D01*
X139271197Y-88695316D01*
X139247993Y-88689504D01*
X139225471Y-88681446D01*
X139203847Y-88671218D01*
X139183330Y-88658921D01*
X139164117Y-88644671D01*
X139146393Y-88628607D01*
X139130329Y-88610883D01*
X139116079Y-88591670D01*
X139103782Y-88571153D01*
X139093554Y-88549529D01*
X139085496Y-88527007D01*
X139079684Y-88503803D01*
X139076174Y-88480142D01*
X139075000Y-88456250D01*
X139075000Y-87543750D01*
X139076174Y-87519858D01*
X139079684Y-87496197D01*
X139085496Y-87472993D01*
X139093554Y-87450471D01*
X139103782Y-87428847D01*
X139116079Y-87408330D01*
X139130329Y-87389117D01*
X139146393Y-87371393D01*
X139164117Y-87355329D01*
X139183330Y-87341079D01*
X139203847Y-87328782D01*
X139225471Y-87318554D01*
X139247993Y-87310496D01*
X139271197Y-87304684D01*
X139294858Y-87301174D01*
X139318750Y-87300000D01*
X139806250Y-87300000D01*
X139830142Y-87301174D01*
X139830142Y-87301174D01*
G37*
D12*
G04 #@! TD*
G04 #@! TO.P,R1,1*
G04 #@! TO.N,/LED*
X139562500Y-88000000D03*
D11*
G04 #@! TO.N,Net-(D1-Pad2)*
G04 #@! TO.C,R1*
G36*
X141705142Y-87301174D02*
X141728803Y-87304684D01*
X141752007Y-87310496D01*
X141774529Y-87318554D01*
X141796153Y-87328782D01*
X141816670Y-87341079D01*
X141835883Y-87355329D01*
X141853607Y-87371393D01*
X141869671Y-87389117D01*
X141883921Y-87408330D01*
X141896218Y-87428847D01*
X141906446Y-87450471D01*
X141914504Y-87472993D01*
X141920316Y-87496197D01*
X141923826Y-87519858D01*
X141925000Y-87543750D01*
X141925000Y-88456250D01*
X141923826Y-88480142D01*
X141920316Y-88503803D01*
X141914504Y-88527007D01*
X141906446Y-88549529D01*
X141896218Y-88571153D01*
X141883921Y-88591670D01*
X141869671Y-88610883D01*
X141853607Y-88628607D01*
X141835883Y-88644671D01*
X141816670Y-88658921D01*
X141796153Y-88671218D01*
X141774529Y-88681446D01*
X141752007Y-88689504D01*
X141728803Y-88695316D01*
X141705142Y-88698826D01*
X141681250Y-88700000D01*
X141193750Y-88700000D01*
X141169858Y-88698826D01*
X141146197Y-88695316D01*
X141122993Y-88689504D01*
X141100471Y-88681446D01*
X141078847Y-88671218D01*
X141058330Y-88658921D01*
X141039117Y-88644671D01*
X141021393Y-88628607D01*
X141005329Y-88610883D01*
X140991079Y-88591670D01*
X140978782Y-88571153D01*
X140968554Y-88549529D01*
X140960496Y-88527007D01*
X140954684Y-88503803D01*
X140951174Y-88480142D01*
X140950000Y-88456250D01*
X140950000Y-87543750D01*
X140951174Y-87519858D01*
X140954684Y-87496197D01*
X140960496Y-87472993D01*
X140968554Y-87450471D01*
X140978782Y-87428847D01*
X140991079Y-87408330D01*
X141005329Y-87389117D01*
X141021393Y-87371393D01*
X141039117Y-87355329D01*
X141058330Y-87341079D01*
X141078847Y-87328782D01*
X141100471Y-87318554D01*
X141122993Y-87310496D01*
X141146197Y-87304684D01*
X141169858Y-87301174D01*
X141193750Y-87300000D01*
X141681250Y-87300000D01*
X141705142Y-87301174D01*
X141705142Y-87301174D01*
G37*
D12*
G04 #@! TD*
G04 #@! TO.P,R1,2*
G04 #@! TO.N,Net-(D1-Pad2)*
X141437500Y-88000000D03*
D10*
G04 #@! TO.P,TP1,1*
G04 #@! TO.N,GND*
X136500000Y-99000000D03*
D16*
G04 #@! TO.P,TP1,2*
G04 #@! TO.N,/RF_DATA*
X136500000Y-96460000D03*
G04 #@! TD*
D17*
G04 #@! TO.P,U1,1*
G04 #@! TO.N,GND*
X140800000Y-92095000D03*
G04 #@! TO.P,U1,2*
G04 #@! TO.N,+3V3*
X140800000Y-93365000D03*
G04 #@! TO.P,U1,3*
G04 #@! TO.N,/RF_DATA*
X140800000Y-94635000D03*
G04 #@! TO.P,U1,4*
G04 #@! TO.N,N/C*
X140800000Y-95905000D03*
G04 #@! TO.P,U1,5*
G04 #@! TO.N,Net-(C3-Pad1)*
X146200000Y-95905000D03*
G04 #@! TO.P,U1,6*
G04 #@! TO.N,Net-(L2-Pad2)*
X146200000Y-94635000D03*
G04 #@! TO.P,U1,7*
G04 #@! TO.N,Net-(L2-Pad1)*
X146200000Y-93365000D03*
G04 #@! TO.P,U1,8*
G04 #@! TO.N,Net-(C1-Pad1)*
X146200000Y-92095000D03*
G04 #@! TD*
D18*
G04 #@! TO.P,U2,1*
G04 #@! TO.N,+5V*
X117400000Y-97550000D03*
G04 #@! TO.P,U2,2*
G04 #@! TO.N,GND*
X117400000Y-98500000D03*
G04 #@! TO.P,U2,3*
G04 #@! TO.N,+5V*
X117400000Y-99450000D03*
G04 #@! TO.P,U2,4*
G04 #@! TO.N,Net-(C6-Pad1)*
X119600000Y-99450000D03*
G04 #@! TO.P,U2,5*
G04 #@! TO.N,+3V3*
X119600000Y-97550000D03*
G04 #@! TD*
D19*
G04 #@! TO.P,U3,1*
G04 #@! TO.N,/LED*
X126800000Y-88190000D03*
G04 #@! TO.P,U3,2*
G04 #@! TO.N,/26MHZ*
X126800000Y-89460000D03*
G04 #@! TO.P,U3,3*
G04 #@! TO.N,/OSC_EN*
X126800000Y-90730000D03*
G04 #@! TO.P,U3,4*
G04 #@! TO.N,N/C*
X126800000Y-92000000D03*
G04 #@! TO.P,U3,5*
X126800000Y-93270000D03*
G04 #@! TO.P,U3,6*
G04 #@! TO.N,Net-(C5-Pad1)*
X126800000Y-94540000D03*
G04 #@! TO.P,U3,7*
G04 #@! TO.N,/SWCLK*
X126800000Y-95810000D03*
G04 #@! TO.P,U3,8*
G04 #@! TO.N,/SWDIO*
X132200000Y-95810000D03*
G04 #@! TO.P,U3,9*
G04 #@! TO.N,/USB_DM*
X132200000Y-94540000D03*
G04 #@! TO.P,U3,10*
G04 #@! TO.N,/USB_DP*
X132200000Y-93270000D03*
G04 #@! TO.P,U3,11*
G04 #@! TO.N,GND*
X132200000Y-92000000D03*
G04 #@! TO.P,U3,12*
G04 #@! TO.N,+3V3*
X132200000Y-90730000D03*
G04 #@! TO.P,U3,13*
G04 #@! TO.N,/RF_DATA*
X132200000Y-89460000D03*
G04 #@! TO.P,U3,14*
G04 #@! TO.N,N/C*
X132200000Y-88190000D03*
G04 #@! TD*
D20*
G04 #@! TO.P,X1,1*
G04 #@! TO.N,/SWDIO*
X132040000Y-99000000D03*
G04 #@! TO.P,X1,2*
G04 #@! TO.N,GND*
X129500000Y-99000000D03*
G04 #@! TO.P,X1,3*
G04 #@! TO.N,/SWCLK*
X126960000Y-99000000D03*
G04 #@! TD*
D21*
G04 #@! TO.P,X2,1*
G04 #@! TO.N,/OSC_EN*
X123650000Y-89850000D03*
G04 #@! TO.P,X2,2*
G04 #@! TO.N,GND*
X123650000Y-88150000D03*
G04 #@! TO.P,X2,3*
G04 #@! TO.N,/26MHZ*
X122350000Y-88150000D03*
G04 #@! TO.P,X2,4*
G04 #@! TO.N,+3V3*
X122350000Y-89850000D03*
G04 #@! TD*
D22*
G04 #@! TO.N,GND*
X148500000Y-88125000D03*
X145437500Y-88000000D03*
X137500000Y-90125000D03*
X135000000Y-92000000D03*
X120000000Y-88062500D03*
X122062500Y-94500000D03*
X122062500Y-97000000D03*
X123937500Y-99500000D03*
X113000000Y-90050300D03*
X113000000Y-92801120D03*
X113000000Y-95198880D03*
X113000000Y-97949700D03*
X125000000Y-89500000D03*
X116012822Y-98499975D03*
G04 #@! TO.N,+3V3*
X117500000Y-91000000D03*
X120000000Y-94500000D03*
G04 #@! TO.N,/26MHZ*
X142562500Y-91062500D03*
X142562500Y-99000000D03*
G04 #@! TO.N,+5V*
X118530236Y-98500000D03*
G04 #@! TO.N,/USB_DP*
X129500000Y-93500000D03*
X130500000Y-92000000D03*
G04 #@! TO.N,/RF_DATA*
X134000000Y-93500000D03*
X130000000Y-90000000D03*
G04 #@! TD*
D23*
G04 #@! TO.N,Net-(AE1-Pad1)*
X151087500Y-92000000D02*
X150500000Y-92000000D01*
X152600000Y-92000000D02*
X151087500Y-92000000D01*
X153500000Y-92900000D02*
X152600000Y-92000000D01*
X153500000Y-94000000D02*
X153500000Y-92900000D01*
G04 #@! TO.N,Net-(C1-Pad1)*
X148530000Y-92095000D02*
X148625000Y-92000000D01*
X146200000Y-92095000D02*
X148530000Y-92095000D01*
X148500000Y-91875000D02*
X148625000Y-92000000D01*
X148500000Y-90000000D02*
X148500000Y-91875000D01*
G04 #@! TO.N,GND*
X115743200Y-95300480D02*
X115146300Y-95897380D01*
X116000000Y-95300480D02*
X115743200Y-95300480D01*
X123650000Y-88150000D02*
X125000000Y-89500000D01*
X139470000Y-92095000D02*
X137500000Y-90125000D01*
X140800000Y-92095000D02*
X139470000Y-92095000D01*
X132200000Y-92000000D02*
X135000000Y-92000000D01*
X116012847Y-98500000D02*
X116012822Y-98499975D01*
X117400000Y-98500000D02*
X116012847Y-98500000D01*
G04 #@! TO.N,+3V3*
X138865000Y-93365000D02*
X137500000Y-92000000D01*
X140800000Y-93365000D02*
X138865000Y-93365000D01*
X134395000Y-90730000D02*
X135000000Y-90125000D01*
X132200000Y-90730000D02*
X134395000Y-90730000D01*
X136875000Y-92000000D02*
X137500000Y-92000000D01*
X120000000Y-89937500D02*
X118562500Y-89937500D01*
X118562500Y-89937500D02*
X117500000Y-91000000D01*
X120000000Y-97150000D02*
X119600000Y-97550000D01*
X120000000Y-94500000D02*
X120000000Y-97150000D01*
X135000000Y-90125000D02*
X136875000Y-92000000D01*
G04 #@! TO.N,/26MHZ*
X124360001Y-87274999D02*
X126545002Y-89460000D01*
X122425001Y-87274999D02*
X124360001Y-87274999D01*
X126545002Y-89460000D02*
X126800000Y-89460000D01*
X122350000Y-87350000D02*
X122425001Y-87274999D01*
X122350000Y-88150000D02*
X122350000Y-87350000D01*
X141500000Y-90000000D02*
X142562500Y-91062500D01*
X139500000Y-90000000D02*
X141500000Y-90000000D01*
X126800000Y-89460000D02*
X127800000Y-89460000D01*
X138334999Y-88834999D02*
X139500000Y-90000000D01*
X127800000Y-89460000D02*
X128425001Y-88834999D01*
X128425001Y-88834999D02*
X138334999Y-88834999D01*
G04 #@! TO.N,Net-(C3-Pad1)*
X146200000Y-97237500D02*
X146200000Y-95905000D01*
X144437500Y-99000000D02*
X146200000Y-97237500D01*
G04 #@! TO.N,Net-(C5-Pad1)*
X126760000Y-94500000D02*
X126800000Y-94540000D01*
X123937500Y-94500000D02*
X126760000Y-94500000D01*
G04 #@! TO.N,Net-(C6-Pad1)*
X119650000Y-99500000D02*
X119600000Y-99450000D01*
X122062500Y-99500000D02*
X119650000Y-99500000D01*
G04 #@! TO.N,Net-(D1-Pad2)*
X143562500Y-88000000D02*
X141437500Y-88000000D01*
G04 #@! TO.N,+5V*
X115748280Y-92699520D02*
X115148840Y-92100080D01*
X116000000Y-92699520D02*
X115748280Y-92699520D01*
X118255001Y-99374999D02*
X118180000Y-99450000D01*
X118255001Y-97625001D02*
X118255001Y-99374999D01*
X118180000Y-97550000D02*
X118255001Y-97625001D01*
X118180000Y-99450000D02*
X117400000Y-99450000D01*
X117400000Y-97550000D02*
X118180000Y-97550000D01*
X118530236Y-98500000D02*
X118255001Y-98500000D01*
G04 #@! TO.N,/USB_DM*
X128584999Y-91374999D02*
X131750000Y-94540000D01*
X119227301Y-91374999D02*
X128584999Y-91374999D01*
X131750000Y-94540000D02*
X132200000Y-94540000D01*
X117250000Y-93352300D02*
X119227301Y-91374999D01*
X116000000Y-93352300D02*
X117250000Y-93352300D01*
G04 #@! TO.N,/USB_DP*
X131770000Y-93270000D02*
X132200000Y-93270000D01*
X130500000Y-92000000D02*
X131770000Y-93270000D01*
X128625001Y-92625001D02*
X129500000Y-93500000D01*
X118874999Y-92625001D02*
X128625001Y-92625001D01*
X117500000Y-94000000D02*
X118874999Y-92625001D01*
X116000000Y-94000000D02*
X117500000Y-94000000D01*
G04 #@! TO.N,Net-(L2-Pad1)*
X148802500Y-93365000D02*
X149500000Y-94062500D01*
X146200000Y-93365000D02*
X148802500Y-93365000D01*
G04 #@! TO.N,Net-(L2-Pad2)*
X148197500Y-94635000D02*
X149500000Y-95937500D01*
X146200000Y-94635000D02*
X148197500Y-94635000D01*
G04 #@! TO.N,/LED*
X139006263Y-87443763D02*
X139562500Y-88000000D01*
X128546237Y-87443763D02*
X139006263Y-87443763D01*
X127800000Y-88190000D02*
X128546237Y-87443763D01*
X126800000Y-88190000D02*
X127800000Y-88190000D01*
G04 #@! TO.N,/RF_DATA*
X135135000Y-94635000D02*
X134000000Y-93500000D01*
X130540000Y-89460000D02*
X132200000Y-89460000D01*
X130000000Y-90000000D02*
X130540000Y-89460000D01*
X136500000Y-96460000D02*
X136500000Y-94635000D01*
X136500000Y-94635000D02*
X135135000Y-94635000D01*
X140800000Y-94635000D02*
X136500000Y-94635000D01*
G04 #@! TO.N,/OSC_EN*
X125800000Y-90730000D02*
X126800000Y-90730000D01*
X124430000Y-90730000D02*
X125800000Y-90730000D01*
X123650000Y-89850000D02*
X123650000Y-89950000D01*
X123650000Y-89950000D02*
X124430000Y-90730000D01*
G04 #@! TO.N,/SWCLK*
X126800000Y-98840000D02*
X126960000Y-99000000D01*
X126800000Y-95810000D02*
X126800000Y-98840000D01*
G04 #@! TO.N,/SWDIO*
X132200000Y-98840000D02*
X132040000Y-99000000D01*
X132200000Y-95810000D02*
X132200000Y-98840000D01*
G04 #@! TD*
D24*
G04 #@! TO.N,+3V3*
G36*
X154367116Y-86744564D02*
X154704719Y-86898063D01*
X154985669Y-87140146D01*
X155187383Y-87451352D01*
X155300431Y-87829357D01*
X155315001Y-88025425D01*
X155315000Y-99951197D01*
X155255436Y-100367117D01*
X155101937Y-100704719D01*
X154859855Y-100985668D01*
X154548648Y-101187383D01*
X154170642Y-101300431D01*
X153974589Y-101315000D01*
X113048803Y-101315000D01*
X112632883Y-101255436D01*
X112295281Y-101101937D01*
X112014332Y-100859855D01*
X111812617Y-100548648D01*
X111699569Y-100170642D01*
X111685000Y-99974589D01*
X111685000Y-99417337D01*
X111803545Y-99496547D01*
X112051310Y-99545830D01*
X113948690Y-99545830D01*
X114196455Y-99496547D01*
X114406499Y-99356199D01*
X114546847Y-99146155D01*
X114596130Y-98898390D01*
X114596130Y-97001010D01*
X114548502Y-96761567D01*
X114560711Y-96773776D01*
X114940668Y-96931160D01*
X115351932Y-96931160D01*
X115731889Y-96773776D01*
X116022696Y-96482969D01*
X116161731Y-96147310D01*
X117000000Y-96147310D01*
X117247765Y-96098027D01*
X117457809Y-95957679D01*
X117598157Y-95747635D01*
X117647440Y-95499870D01*
X117647440Y-95101090D01*
X117622178Y-94974090D01*
X117647440Y-94847090D01*
X117647440Y-94745561D01*
X117796537Y-94715904D01*
X118047929Y-94547929D01*
X118090331Y-94484470D01*
X119189801Y-93385001D01*
X121231361Y-93385001D01*
X121188584Y-93413584D01*
X120995398Y-93702706D01*
X120927560Y-94043750D01*
X120927560Y-94956250D01*
X120995398Y-95297294D01*
X121188584Y-95586416D01*
X121433404Y-95750000D01*
X121188584Y-95913584D01*
X120995398Y-96202706D01*
X120927560Y-96543750D01*
X120927560Y-97456250D01*
X120995398Y-97797294D01*
X121188584Y-98086416D01*
X121433404Y-98250000D01*
X121188584Y-98413584D01*
X120995398Y-98702706D01*
X120987980Y-98740000D01*
X120636459Y-98740000D01*
X120587809Y-98667191D01*
X120377765Y-98526843D01*
X120268241Y-98505058D01*
X120489698Y-98413327D01*
X120668327Y-98234699D01*
X120765000Y-98001310D01*
X120765000Y-97835750D01*
X120606250Y-97677000D01*
X119727000Y-97677000D01*
X119727000Y-97697000D01*
X119473000Y-97697000D01*
X119473000Y-97677000D01*
X119453000Y-97677000D01*
X119453000Y-97423000D01*
X119473000Y-97423000D01*
X119473000Y-96748750D01*
X119727000Y-96748750D01*
X119727000Y-97423000D01*
X120606250Y-97423000D01*
X120765000Y-97264250D01*
X120765000Y-97098690D01*
X120668327Y-96865301D01*
X120489698Y-96686673D01*
X120256309Y-96590000D01*
X119885750Y-96590000D01*
X119727000Y-96748750D01*
X119473000Y-96748750D01*
X119314250Y-96590000D01*
X118943691Y-96590000D01*
X118710302Y-96686673D01*
X118531673Y-96865301D01*
X118529845Y-96869715D01*
X118476537Y-96834096D01*
X118425766Y-96823997D01*
X118387809Y-96767191D01*
X118177765Y-96626843D01*
X117930000Y-96577560D01*
X116870000Y-96577560D01*
X116622235Y-96626843D01*
X116412191Y-96767191D01*
X116271843Y-96977235D01*
X116222560Y-97225000D01*
X116222560Y-97466576D01*
X116218696Y-97464975D01*
X115806948Y-97464975D01*
X115426542Y-97622544D01*
X115135391Y-97913695D01*
X114977822Y-98294101D01*
X114977822Y-98705849D01*
X115135391Y-99086255D01*
X115426542Y-99377406D01*
X115806948Y-99534975D01*
X116218696Y-99534975D01*
X116222560Y-99533374D01*
X116222560Y-99775000D01*
X116271843Y-100022765D01*
X116412191Y-100232809D01*
X116622235Y-100373157D01*
X116870000Y-100422440D01*
X117930000Y-100422440D01*
X118177765Y-100373157D01*
X118387809Y-100232809D01*
X118425766Y-100176003D01*
X118476537Y-100165904D01*
X118539414Y-100123891D01*
X118612191Y-100232809D01*
X118822235Y-100373157D01*
X119070000Y-100422440D01*
X120130000Y-100422440D01*
X120377765Y-100373157D01*
X120547115Y-100260000D01*
X120987980Y-100260000D01*
X120995398Y-100297294D01*
X121188584Y-100586416D01*
X121477706Y-100779602D01*
X121818750Y-100847440D01*
X122306250Y-100847440D01*
X122647294Y-100779602D01*
X122936416Y-100586416D01*
X123000000Y-100491256D01*
X123063584Y-100586416D01*
X123352706Y-100779602D01*
X123693750Y-100847440D01*
X124181250Y-100847440D01*
X124522294Y-100779602D01*
X124811416Y-100586416D01*
X125004602Y-100297294D01*
X125072440Y-99956250D01*
X125072440Y-99043750D01*
X125004602Y-98702706D01*
X124811416Y-98413584D01*
X124639276Y-98298563D01*
X124784698Y-98238327D01*
X124963327Y-98059699D01*
X125060000Y-97826310D01*
X125060000Y-97285750D01*
X124901250Y-97127000D01*
X124064500Y-97127000D01*
X124064500Y-97147000D01*
X123810500Y-97147000D01*
X123810500Y-97127000D01*
X123790500Y-97127000D01*
X123790500Y-96873000D01*
X123810500Y-96873000D01*
X123810500Y-96853000D01*
X124064500Y-96853000D01*
X124064500Y-96873000D01*
X124901250Y-96873000D01*
X125060000Y-96714250D01*
X125060000Y-96173690D01*
X124963327Y-95940301D01*
X124784698Y-95761673D01*
X124639276Y-95701437D01*
X124811416Y-95586416D01*
X125004602Y-95297294D01*
X125012020Y-95260000D01*
X125453336Y-95260000D01*
X125451843Y-95262235D01*
X125402560Y-95510000D01*
X125402560Y-96110000D01*
X125451843Y-96357765D01*
X125592191Y-96567809D01*
X125802235Y-96708157D01*
X126040000Y-96755451D01*
X126040001Y-97944342D01*
X125775680Y-98208663D01*
X125563000Y-98722119D01*
X125563000Y-99277881D01*
X125775680Y-99791337D01*
X126168663Y-100184320D01*
X126682119Y-100397000D01*
X127237881Y-100397000D01*
X127751337Y-100184320D01*
X128144320Y-99791337D01*
X128230000Y-99584487D01*
X128315680Y-99791337D01*
X128708663Y-100184320D01*
X129222119Y-100397000D01*
X129777881Y-100397000D01*
X130291337Y-100184320D01*
X130684320Y-99791337D01*
X130770000Y-99584487D01*
X130855680Y-99791337D01*
X131248663Y-100184320D01*
X131762119Y-100397000D01*
X132317881Y-100397000D01*
X132831337Y-100184320D01*
X133224320Y-99791337D01*
X133437000Y-99277881D01*
X133437000Y-98722119D01*
X133224320Y-98208663D01*
X132960000Y-97944343D01*
X132960000Y-96755451D01*
X133197765Y-96708157D01*
X133407809Y-96567809D01*
X133548157Y-96357765D01*
X133597440Y-96110000D01*
X133597440Y-95510000D01*
X133548157Y-95262235D01*
X133489868Y-95175000D01*
X133548157Y-95087765D01*
X133597440Y-94840000D01*
X133597440Y-94453530D01*
X133794126Y-94535000D01*
X133960198Y-94535000D01*
X134544673Y-95119475D01*
X134587071Y-95182929D01*
X134650524Y-95225327D01*
X134650526Y-95225329D01*
X134758230Y-95297294D01*
X134838463Y-95350904D01*
X135060148Y-95395000D01*
X135060152Y-95395000D01*
X135134999Y-95409888D01*
X135209846Y-95395000D01*
X135425616Y-95395000D01*
X135101161Y-95880582D01*
X134985908Y-96460000D01*
X135101161Y-97039418D01*
X135429375Y-97530625D01*
X135447619Y-97542816D01*
X135402235Y-97551843D01*
X135192191Y-97692191D01*
X135051843Y-97902235D01*
X135002560Y-98150000D01*
X135002560Y-99850000D01*
X135051843Y-100097765D01*
X135192191Y-100307809D01*
X135402235Y-100448157D01*
X135650000Y-100497440D01*
X137350000Y-100497440D01*
X137597765Y-100448157D01*
X137807809Y-100307809D01*
X137948157Y-100097765D01*
X137997440Y-99850000D01*
X137997440Y-98543750D01*
X141427560Y-98543750D01*
X141427560Y-99456250D01*
X141495398Y-99797294D01*
X141688584Y-100086416D01*
X141977706Y-100279602D01*
X142318750Y-100347440D01*
X142806250Y-100347440D01*
X143147294Y-100279602D01*
X143436416Y-100086416D01*
X143500000Y-99991256D01*
X143563584Y-100086416D01*
X143852706Y-100279602D01*
X144193750Y-100347440D01*
X144681250Y-100347440D01*
X145022294Y-100279602D01*
X145311416Y-100086416D01*
X145504602Y-99797294D01*
X145572440Y-99456250D01*
X145572440Y-98939862D01*
X146684476Y-97827827D01*
X146747929Y-97785429D01*
X146790327Y-97721976D01*
X146790329Y-97721974D01*
X146904006Y-97551843D01*
X146915904Y-97534037D01*
X146960000Y-97312352D01*
X146960000Y-97312348D01*
X146974888Y-97237501D01*
X146960000Y-97162654D01*
X146960000Y-96852440D01*
X146975000Y-96852440D01*
X147222765Y-96803157D01*
X147432809Y-96662809D01*
X147573157Y-96452765D01*
X147622440Y-96205000D01*
X147622440Y-95605000D01*
X147580669Y-95395000D01*
X147882699Y-95395000D01*
X148157353Y-95669654D01*
X148152560Y-95693750D01*
X148152560Y-96181250D01*
X148220398Y-96522294D01*
X148413584Y-96811416D01*
X148702706Y-97004602D01*
X149043750Y-97072440D01*
X149956250Y-97072440D01*
X150297294Y-97004602D01*
X150586416Y-96811416D01*
X150779602Y-96522294D01*
X150847440Y-96181250D01*
X150847440Y-95693750D01*
X150779602Y-95352706D01*
X150586416Y-95063584D01*
X150491256Y-95000000D01*
X150586416Y-94936416D01*
X150779602Y-94647294D01*
X150847440Y-94306250D01*
X150847440Y-93818750D01*
X150779602Y-93477706D01*
X150692561Y-93347440D01*
X150743750Y-93347440D01*
X151084794Y-93279602D01*
X151373916Y-93086416D01*
X151567102Y-92797294D01*
X151574520Y-92760000D01*
X152146882Y-92760000D01*
X152051843Y-92902235D01*
X152002560Y-93150000D01*
X152002560Y-94850000D01*
X152051843Y-95097765D01*
X152192191Y-95307809D01*
X152402235Y-95448157D01*
X152650000Y-95497440D01*
X154350000Y-95497440D01*
X154597765Y-95448157D01*
X154807809Y-95307809D01*
X154948157Y-95097765D01*
X154997440Y-94850000D01*
X154997440Y-93150000D01*
X154948157Y-92902235D01*
X154807809Y-92692191D01*
X154597765Y-92551843D01*
X154350000Y-92502560D01*
X154148483Y-92502560D01*
X154047929Y-92352071D01*
X153984473Y-92309671D01*
X153190331Y-91515530D01*
X153147929Y-91452071D01*
X152896537Y-91284096D01*
X152674852Y-91240000D01*
X152674847Y-91240000D01*
X152600000Y-91225112D01*
X152525153Y-91240000D01*
X151574520Y-91240000D01*
X151567102Y-91202706D01*
X151373916Y-90913584D01*
X151084794Y-90720398D01*
X150743750Y-90652560D01*
X150256250Y-90652560D01*
X149915206Y-90720398D01*
X149626084Y-90913584D01*
X149562500Y-91008744D01*
X149507600Y-90926580D01*
X149586416Y-90873916D01*
X149779602Y-90584794D01*
X149847440Y-90243750D01*
X149847440Y-89756250D01*
X149779602Y-89415206D01*
X149586416Y-89126084D01*
X149491256Y-89062500D01*
X149586416Y-88998916D01*
X149779602Y-88709794D01*
X149847440Y-88368750D01*
X149847440Y-87881250D01*
X149779602Y-87540206D01*
X149586416Y-87251084D01*
X149297294Y-87057898D01*
X148956250Y-86990060D01*
X148043750Y-86990060D01*
X147702706Y-87057898D01*
X147413584Y-87251084D01*
X147220398Y-87540206D01*
X147152560Y-87881250D01*
X147152560Y-88368750D01*
X147220398Y-88709794D01*
X147413584Y-88998916D01*
X147508744Y-89062500D01*
X147413584Y-89126084D01*
X147220398Y-89415206D01*
X147152560Y-89756250D01*
X147152560Y-90243750D01*
X147220398Y-90584794D01*
X147413584Y-90873916D01*
X147665235Y-91042065D01*
X147557898Y-91202706D01*
X147531583Y-91335000D01*
X147429530Y-91335000D01*
X147222765Y-91196843D01*
X146975000Y-91147560D01*
X145425000Y-91147560D01*
X145177235Y-91196843D01*
X144967191Y-91337191D01*
X144826843Y-91547235D01*
X144777560Y-91795000D01*
X144777560Y-92395000D01*
X144826843Y-92642765D01*
X144885132Y-92730000D01*
X144826843Y-92817235D01*
X144777560Y-93065000D01*
X144777560Y-93665000D01*
X144826843Y-93912765D01*
X144885132Y-94000000D01*
X144826843Y-94087235D01*
X144777560Y-94335000D01*
X144777560Y-94935000D01*
X144826843Y-95182765D01*
X144885132Y-95270000D01*
X144826843Y-95357235D01*
X144777560Y-95605000D01*
X144777560Y-96205000D01*
X144826843Y-96452765D01*
X144967191Y-96662809D01*
X145177235Y-96803157D01*
X145425000Y-96852440D01*
X145440000Y-96852440D01*
X145440000Y-96922697D01*
X144705345Y-97657353D01*
X144681250Y-97652560D01*
X144193750Y-97652560D01*
X143852706Y-97720398D01*
X143563584Y-97913584D01*
X143500000Y-98008744D01*
X143436416Y-97913584D01*
X143147294Y-97720398D01*
X142806250Y-97652560D01*
X142318750Y-97652560D01*
X141977706Y-97720398D01*
X141688584Y-97913584D01*
X141495398Y-98202706D01*
X141427560Y-98543750D01*
X137997440Y-98543750D01*
X137997440Y-98150000D01*
X137948157Y-97902235D01*
X137807809Y-97692191D01*
X137597765Y-97551843D01*
X137552381Y-97542816D01*
X137570625Y-97530625D01*
X137898839Y-97039418D01*
X138014092Y-96460000D01*
X137898839Y-95880582D01*
X137574384Y-95395000D01*
X139419331Y-95395000D01*
X139377560Y-95605000D01*
X139377560Y-96205000D01*
X139426843Y-96452765D01*
X139567191Y-96662809D01*
X139777235Y-96803157D01*
X140025000Y-96852440D01*
X141575000Y-96852440D01*
X141822765Y-96803157D01*
X142032809Y-96662809D01*
X142173157Y-96452765D01*
X142222440Y-96205000D01*
X142222440Y-95605000D01*
X142173157Y-95357235D01*
X142114868Y-95270000D01*
X142173157Y-95182765D01*
X142222440Y-94935000D01*
X142222440Y-94335000D01*
X142173157Y-94087235D01*
X142120232Y-94008028D01*
X142210000Y-93791310D01*
X142210000Y-93650750D01*
X142051250Y-93492000D01*
X140927000Y-93492000D01*
X140927000Y-93512000D01*
X140673000Y-93512000D01*
X140673000Y-93492000D01*
X139548750Y-93492000D01*
X139390000Y-93650750D01*
X139390000Y-93791310D01*
X139424666Y-93875000D01*
X136574852Y-93875000D01*
X136500000Y-93860111D01*
X136425148Y-93875000D01*
X135449803Y-93875000D01*
X135035000Y-93460198D01*
X135035000Y-93294126D01*
X134969063Y-93134940D01*
X135456250Y-93134940D01*
X135797294Y-93067102D01*
X136086416Y-92873916D01*
X136201437Y-92701776D01*
X136261673Y-92847198D01*
X136440301Y-93025827D01*
X136673690Y-93122500D01*
X137214250Y-93122500D01*
X137373000Y-92963750D01*
X137373000Y-92127000D01*
X137353000Y-92127000D01*
X137353000Y-91873000D01*
X137373000Y-91873000D01*
X137373000Y-91853000D01*
X137627000Y-91853000D01*
X137627000Y-91873000D01*
X137647000Y-91873000D01*
X137647000Y-92127000D01*
X137627000Y-92127000D01*
X137627000Y-92963750D01*
X137785750Y-93122500D01*
X138326310Y-93122500D01*
X138559699Y-93025827D01*
X138738327Y-92847198D01*
X138835000Y-92613809D01*
X138835000Y-92534802D01*
X138879671Y-92579473D01*
X138922071Y-92642929D01*
X138985527Y-92685329D01*
X139173462Y-92810904D01*
X139205291Y-92817235D01*
X139395148Y-92855000D01*
X139395152Y-92855000D01*
X139422419Y-92860424D01*
X139390000Y-92938690D01*
X139390000Y-93079250D01*
X139548750Y-93238000D01*
X140673000Y-93238000D01*
X140673000Y-93218000D01*
X140927000Y-93218000D01*
X140927000Y-93238000D01*
X142051250Y-93238000D01*
X142210000Y-93079250D01*
X142210000Y-92938690D01*
X142120232Y-92721972D01*
X142173157Y-92642765D01*
X142222440Y-92395000D01*
X142222440Y-92041918D01*
X142356626Y-92097500D01*
X142768374Y-92097500D01*
X143148780Y-91939931D01*
X143439931Y-91648780D01*
X143597500Y-91268374D01*
X143597500Y-90856626D01*
X143439931Y-90476220D01*
X143148780Y-90185069D01*
X142768374Y-90027500D01*
X142602302Y-90027500D01*
X142090331Y-89515530D01*
X142047929Y-89452071D01*
X141843143Y-89315237D01*
X142022294Y-89279602D01*
X142311416Y-89086416D01*
X142500000Y-88804181D01*
X142688584Y-89086416D01*
X142977706Y-89279602D01*
X143318750Y-89347440D01*
X143806250Y-89347440D01*
X144147294Y-89279602D01*
X144436416Y-89086416D01*
X144500000Y-88991256D01*
X144563584Y-89086416D01*
X144852706Y-89279602D01*
X145193750Y-89347440D01*
X145681250Y-89347440D01*
X146022294Y-89279602D01*
X146311416Y-89086416D01*
X146504602Y-88797294D01*
X146572440Y-88456250D01*
X146572440Y-87543750D01*
X146504602Y-87202706D01*
X146311416Y-86913584D01*
X146022294Y-86720398D01*
X145844337Y-86685000D01*
X153951197Y-86685000D01*
X154367116Y-86744564D01*
X154367116Y-86744564D01*
G37*
X154367116Y-86744564D02*
X154704719Y-86898063D01*
X154985669Y-87140146D01*
X155187383Y-87451352D01*
X155300431Y-87829357D01*
X155315001Y-88025425D01*
X155315000Y-99951197D01*
X155255436Y-100367117D01*
X155101937Y-100704719D01*
X154859855Y-100985668D01*
X154548648Y-101187383D01*
X154170642Y-101300431D01*
X153974589Y-101315000D01*
X113048803Y-101315000D01*
X112632883Y-101255436D01*
X112295281Y-101101937D01*
X112014332Y-100859855D01*
X111812617Y-100548648D01*
X111699569Y-100170642D01*
X111685000Y-99974589D01*
X111685000Y-99417337D01*
X111803545Y-99496547D01*
X112051310Y-99545830D01*
X113948690Y-99545830D01*
X114196455Y-99496547D01*
X114406499Y-99356199D01*
X114546847Y-99146155D01*
X114596130Y-98898390D01*
X114596130Y-97001010D01*
X114548502Y-96761567D01*
X114560711Y-96773776D01*
X114940668Y-96931160D01*
X115351932Y-96931160D01*
X115731889Y-96773776D01*
X116022696Y-96482969D01*
X116161731Y-96147310D01*
X117000000Y-96147310D01*
X117247765Y-96098027D01*
X117457809Y-95957679D01*
X117598157Y-95747635D01*
X117647440Y-95499870D01*
X117647440Y-95101090D01*
X117622178Y-94974090D01*
X117647440Y-94847090D01*
X117647440Y-94745561D01*
X117796537Y-94715904D01*
X118047929Y-94547929D01*
X118090331Y-94484470D01*
X119189801Y-93385001D01*
X121231361Y-93385001D01*
X121188584Y-93413584D01*
X120995398Y-93702706D01*
X120927560Y-94043750D01*
X120927560Y-94956250D01*
X120995398Y-95297294D01*
X121188584Y-95586416D01*
X121433404Y-95750000D01*
X121188584Y-95913584D01*
X120995398Y-96202706D01*
X120927560Y-96543750D01*
X120927560Y-97456250D01*
X120995398Y-97797294D01*
X121188584Y-98086416D01*
X121433404Y-98250000D01*
X121188584Y-98413584D01*
X120995398Y-98702706D01*
X120987980Y-98740000D01*
X120636459Y-98740000D01*
X120587809Y-98667191D01*
X120377765Y-98526843D01*
X120268241Y-98505058D01*
X120489698Y-98413327D01*
X120668327Y-98234699D01*
X120765000Y-98001310D01*
X120765000Y-97835750D01*
X120606250Y-97677000D01*
X119727000Y-97677000D01*
X119727000Y-97697000D01*
X119473000Y-97697000D01*
X119473000Y-97677000D01*
X119453000Y-97677000D01*
X119453000Y-97423000D01*
X119473000Y-97423000D01*
X119473000Y-96748750D01*
X119727000Y-96748750D01*
X119727000Y-97423000D01*
X120606250Y-97423000D01*
X120765000Y-97264250D01*
X120765000Y-97098690D01*
X120668327Y-96865301D01*
X120489698Y-96686673D01*
X120256309Y-96590000D01*
X119885750Y-96590000D01*
X119727000Y-96748750D01*
X119473000Y-96748750D01*
X119314250Y-96590000D01*
X118943691Y-96590000D01*
X118710302Y-96686673D01*
X118531673Y-96865301D01*
X118529845Y-96869715D01*
X118476537Y-96834096D01*
X118425766Y-96823997D01*
X118387809Y-96767191D01*
X118177765Y-96626843D01*
X117930000Y-96577560D01*
X116870000Y-96577560D01*
X116622235Y-96626843D01*
X116412191Y-96767191D01*
X116271843Y-96977235D01*
X116222560Y-97225000D01*
X116222560Y-97466576D01*
X116218696Y-97464975D01*
X115806948Y-97464975D01*
X115426542Y-97622544D01*
X115135391Y-97913695D01*
X114977822Y-98294101D01*
X114977822Y-98705849D01*
X115135391Y-99086255D01*
X115426542Y-99377406D01*
X115806948Y-99534975D01*
X116218696Y-99534975D01*
X116222560Y-99533374D01*
X116222560Y-99775000D01*
X116271843Y-100022765D01*
X116412191Y-100232809D01*
X116622235Y-100373157D01*
X116870000Y-100422440D01*
X117930000Y-100422440D01*
X118177765Y-100373157D01*
X118387809Y-100232809D01*
X118425766Y-100176003D01*
X118476537Y-100165904D01*
X118539414Y-100123891D01*
X118612191Y-100232809D01*
X118822235Y-100373157D01*
X119070000Y-100422440D01*
X120130000Y-100422440D01*
X120377765Y-100373157D01*
X120547115Y-100260000D01*
X120987980Y-100260000D01*
X120995398Y-100297294D01*
X121188584Y-100586416D01*
X121477706Y-100779602D01*
X121818750Y-100847440D01*
X122306250Y-100847440D01*
X122647294Y-100779602D01*
X122936416Y-100586416D01*
X123000000Y-100491256D01*
X123063584Y-100586416D01*
X123352706Y-100779602D01*
X123693750Y-100847440D01*
X124181250Y-100847440D01*
X124522294Y-100779602D01*
X124811416Y-100586416D01*
X125004602Y-100297294D01*
X125072440Y-99956250D01*
X125072440Y-99043750D01*
X125004602Y-98702706D01*
X124811416Y-98413584D01*
X124639276Y-98298563D01*
X124784698Y-98238327D01*
X124963327Y-98059699D01*
X125060000Y-97826310D01*
X125060000Y-97285750D01*
X124901250Y-97127000D01*
X124064500Y-97127000D01*
X124064500Y-97147000D01*
X123810500Y-97147000D01*
X123810500Y-97127000D01*
X123790500Y-97127000D01*
X123790500Y-96873000D01*
X123810500Y-96873000D01*
X123810500Y-96853000D01*
X124064500Y-96853000D01*
X124064500Y-96873000D01*
X124901250Y-96873000D01*
X125060000Y-96714250D01*
X125060000Y-96173690D01*
X124963327Y-95940301D01*
X124784698Y-95761673D01*
X124639276Y-95701437D01*
X124811416Y-95586416D01*
X125004602Y-95297294D01*
X125012020Y-95260000D01*
X125453336Y-95260000D01*
X125451843Y-95262235D01*
X125402560Y-95510000D01*
X125402560Y-96110000D01*
X125451843Y-96357765D01*
X125592191Y-96567809D01*
X125802235Y-96708157D01*
X126040000Y-96755451D01*
X126040001Y-97944342D01*
X125775680Y-98208663D01*
X125563000Y-98722119D01*
X125563000Y-99277881D01*
X125775680Y-99791337D01*
X126168663Y-100184320D01*
X126682119Y-100397000D01*
X127237881Y-100397000D01*
X127751337Y-100184320D01*
X128144320Y-99791337D01*
X128230000Y-99584487D01*
X128315680Y-99791337D01*
X128708663Y-100184320D01*
X129222119Y-100397000D01*
X129777881Y-100397000D01*
X130291337Y-100184320D01*
X130684320Y-99791337D01*
X130770000Y-99584487D01*
X130855680Y-99791337D01*
X131248663Y-100184320D01*
X131762119Y-100397000D01*
X132317881Y-100397000D01*
X132831337Y-100184320D01*
X133224320Y-99791337D01*
X133437000Y-99277881D01*
X133437000Y-98722119D01*
X133224320Y-98208663D01*
X132960000Y-97944343D01*
X132960000Y-96755451D01*
X133197765Y-96708157D01*
X133407809Y-96567809D01*
X133548157Y-96357765D01*
X133597440Y-96110000D01*
X133597440Y-95510000D01*
X133548157Y-95262235D01*
X133489868Y-95175000D01*
X133548157Y-95087765D01*
X133597440Y-94840000D01*
X133597440Y-94453530D01*
X133794126Y-94535000D01*
X133960198Y-94535000D01*
X134544673Y-95119475D01*
X134587071Y-95182929D01*
X134650524Y-95225327D01*
X134650526Y-95225329D01*
X134758230Y-95297294D01*
X134838463Y-95350904D01*
X135060148Y-95395000D01*
X135060152Y-95395000D01*
X135134999Y-95409888D01*
X135209846Y-95395000D01*
X135425616Y-95395000D01*
X135101161Y-95880582D01*
X134985908Y-96460000D01*
X135101161Y-97039418D01*
X135429375Y-97530625D01*
X135447619Y-97542816D01*
X135402235Y-97551843D01*
X135192191Y-97692191D01*
X135051843Y-97902235D01*
X135002560Y-98150000D01*
X135002560Y-99850000D01*
X135051843Y-100097765D01*
X135192191Y-100307809D01*
X135402235Y-100448157D01*
X135650000Y-100497440D01*
X137350000Y-100497440D01*
X137597765Y-100448157D01*
X137807809Y-100307809D01*
X137948157Y-100097765D01*
X137997440Y-99850000D01*
X137997440Y-98543750D01*
X141427560Y-98543750D01*
X141427560Y-99456250D01*
X141495398Y-99797294D01*
X141688584Y-100086416D01*
X141977706Y-100279602D01*
X142318750Y-100347440D01*
X142806250Y-100347440D01*
X143147294Y-100279602D01*
X143436416Y-100086416D01*
X143500000Y-99991256D01*
X143563584Y-100086416D01*
X143852706Y-100279602D01*
X144193750Y-100347440D01*
X144681250Y-100347440D01*
X145022294Y-100279602D01*
X145311416Y-100086416D01*
X145504602Y-99797294D01*
X145572440Y-99456250D01*
X145572440Y-98939862D01*
X146684476Y-97827827D01*
X146747929Y-97785429D01*
X146790327Y-97721976D01*
X146790329Y-97721974D01*
X146904006Y-97551843D01*
X146915904Y-97534037D01*
X146960000Y-97312352D01*
X146960000Y-97312348D01*
X146974888Y-97237501D01*
X146960000Y-97162654D01*
X146960000Y-96852440D01*
X146975000Y-96852440D01*
X147222765Y-96803157D01*
X147432809Y-96662809D01*
X147573157Y-96452765D01*
X147622440Y-96205000D01*
X147622440Y-95605000D01*
X147580669Y-95395000D01*
X147882699Y-95395000D01*
X148157353Y-95669654D01*
X148152560Y-95693750D01*
X148152560Y-96181250D01*
X148220398Y-96522294D01*
X148413584Y-96811416D01*
X148702706Y-97004602D01*
X149043750Y-97072440D01*
X149956250Y-97072440D01*
X150297294Y-97004602D01*
X150586416Y-96811416D01*
X150779602Y-96522294D01*
X150847440Y-96181250D01*
X150847440Y-95693750D01*
X150779602Y-95352706D01*
X150586416Y-95063584D01*
X150491256Y-95000000D01*
X150586416Y-94936416D01*
X150779602Y-94647294D01*
X150847440Y-94306250D01*
X150847440Y-93818750D01*
X150779602Y-93477706D01*
X150692561Y-93347440D01*
X150743750Y-93347440D01*
X151084794Y-93279602D01*
X151373916Y-93086416D01*
X151567102Y-92797294D01*
X151574520Y-92760000D01*
X152146882Y-92760000D01*
X152051843Y-92902235D01*
X152002560Y-93150000D01*
X152002560Y-94850000D01*
X152051843Y-95097765D01*
X152192191Y-95307809D01*
X152402235Y-95448157D01*
X152650000Y-95497440D01*
X154350000Y-95497440D01*
X154597765Y-95448157D01*
X154807809Y-95307809D01*
X154948157Y-95097765D01*
X154997440Y-94850000D01*
X154997440Y-93150000D01*
X154948157Y-92902235D01*
X154807809Y-92692191D01*
X154597765Y-92551843D01*
X154350000Y-92502560D01*
X154148483Y-92502560D01*
X154047929Y-92352071D01*
X153984473Y-92309671D01*
X153190331Y-91515530D01*
X153147929Y-91452071D01*
X152896537Y-91284096D01*
X152674852Y-91240000D01*
X152674847Y-91240000D01*
X152600000Y-91225112D01*
X152525153Y-91240000D01*
X151574520Y-91240000D01*
X151567102Y-91202706D01*
X151373916Y-90913584D01*
X151084794Y-90720398D01*
X150743750Y-90652560D01*
X150256250Y-90652560D01*
X149915206Y-90720398D01*
X149626084Y-90913584D01*
X149562500Y-91008744D01*
X149507600Y-90926580D01*
X149586416Y-90873916D01*
X149779602Y-90584794D01*
X149847440Y-90243750D01*
X149847440Y-89756250D01*
X149779602Y-89415206D01*
X149586416Y-89126084D01*
X149491256Y-89062500D01*
X149586416Y-88998916D01*
X149779602Y-88709794D01*
X149847440Y-88368750D01*
X149847440Y-87881250D01*
X149779602Y-87540206D01*
X149586416Y-87251084D01*
X149297294Y-87057898D01*
X148956250Y-86990060D01*
X148043750Y-86990060D01*
X147702706Y-87057898D01*
X147413584Y-87251084D01*
X147220398Y-87540206D01*
X147152560Y-87881250D01*
X147152560Y-88368750D01*
X147220398Y-88709794D01*
X147413584Y-88998916D01*
X147508744Y-89062500D01*
X147413584Y-89126084D01*
X147220398Y-89415206D01*
X147152560Y-89756250D01*
X147152560Y-90243750D01*
X147220398Y-90584794D01*
X147413584Y-90873916D01*
X147665235Y-91042065D01*
X147557898Y-91202706D01*
X147531583Y-91335000D01*
X147429530Y-91335000D01*
X147222765Y-91196843D01*
X146975000Y-91147560D01*
X145425000Y-91147560D01*
X145177235Y-91196843D01*
X144967191Y-91337191D01*
X144826843Y-91547235D01*
X144777560Y-91795000D01*
X144777560Y-92395000D01*
X144826843Y-92642765D01*
X144885132Y-92730000D01*
X144826843Y-92817235D01*
X144777560Y-93065000D01*
X144777560Y-93665000D01*
X144826843Y-93912765D01*
X144885132Y-94000000D01*
X144826843Y-94087235D01*
X144777560Y-94335000D01*
X144777560Y-94935000D01*
X144826843Y-95182765D01*
X144885132Y-95270000D01*
X144826843Y-95357235D01*
X144777560Y-95605000D01*
X144777560Y-96205000D01*
X144826843Y-96452765D01*
X144967191Y-96662809D01*
X145177235Y-96803157D01*
X145425000Y-96852440D01*
X145440000Y-96852440D01*
X145440000Y-96922697D01*
X144705345Y-97657353D01*
X144681250Y-97652560D01*
X144193750Y-97652560D01*
X143852706Y-97720398D01*
X143563584Y-97913584D01*
X143500000Y-98008744D01*
X143436416Y-97913584D01*
X143147294Y-97720398D01*
X142806250Y-97652560D01*
X142318750Y-97652560D01*
X141977706Y-97720398D01*
X141688584Y-97913584D01*
X141495398Y-98202706D01*
X141427560Y-98543750D01*
X137997440Y-98543750D01*
X137997440Y-98150000D01*
X137948157Y-97902235D01*
X137807809Y-97692191D01*
X137597765Y-97551843D01*
X137552381Y-97542816D01*
X137570625Y-97530625D01*
X137898839Y-97039418D01*
X138014092Y-96460000D01*
X137898839Y-95880582D01*
X137574384Y-95395000D01*
X139419331Y-95395000D01*
X139377560Y-95605000D01*
X139377560Y-96205000D01*
X139426843Y-96452765D01*
X139567191Y-96662809D01*
X139777235Y-96803157D01*
X140025000Y-96852440D01*
X141575000Y-96852440D01*
X141822765Y-96803157D01*
X142032809Y-96662809D01*
X142173157Y-96452765D01*
X142222440Y-96205000D01*
X142222440Y-95605000D01*
X142173157Y-95357235D01*
X142114868Y-95270000D01*
X142173157Y-95182765D01*
X142222440Y-94935000D01*
X142222440Y-94335000D01*
X142173157Y-94087235D01*
X142120232Y-94008028D01*
X142210000Y-93791310D01*
X142210000Y-93650750D01*
X142051250Y-93492000D01*
X140927000Y-93492000D01*
X140927000Y-93512000D01*
X140673000Y-93512000D01*
X140673000Y-93492000D01*
X139548750Y-93492000D01*
X139390000Y-93650750D01*
X139390000Y-93791310D01*
X139424666Y-93875000D01*
X136574852Y-93875000D01*
X136500000Y-93860111D01*
X136425148Y-93875000D01*
X135449803Y-93875000D01*
X135035000Y-93460198D01*
X135035000Y-93294126D01*
X134969063Y-93134940D01*
X135456250Y-93134940D01*
X135797294Y-93067102D01*
X136086416Y-92873916D01*
X136201437Y-92701776D01*
X136261673Y-92847198D01*
X136440301Y-93025827D01*
X136673690Y-93122500D01*
X137214250Y-93122500D01*
X137373000Y-92963750D01*
X137373000Y-92127000D01*
X137353000Y-92127000D01*
X137353000Y-91873000D01*
X137373000Y-91873000D01*
X137373000Y-91853000D01*
X137627000Y-91853000D01*
X137627000Y-91873000D01*
X137647000Y-91873000D01*
X137647000Y-92127000D01*
X137627000Y-92127000D01*
X137627000Y-92963750D01*
X137785750Y-93122500D01*
X138326310Y-93122500D01*
X138559699Y-93025827D01*
X138738327Y-92847198D01*
X138835000Y-92613809D01*
X138835000Y-92534802D01*
X138879671Y-92579473D01*
X138922071Y-92642929D01*
X138985527Y-92685329D01*
X139173462Y-92810904D01*
X139205291Y-92817235D01*
X139395148Y-92855000D01*
X139395152Y-92855000D01*
X139422419Y-92860424D01*
X139390000Y-92938690D01*
X139390000Y-93079250D01*
X139548750Y-93238000D01*
X140673000Y-93238000D01*
X140673000Y-93218000D01*
X140927000Y-93218000D01*
X140927000Y-93238000D01*
X142051250Y-93238000D01*
X142210000Y-93079250D01*
X142210000Y-92938690D01*
X142120232Y-92721972D01*
X142173157Y-92642765D01*
X142222440Y-92395000D01*
X142222440Y-92041918D01*
X142356626Y-92097500D01*
X142768374Y-92097500D01*
X143148780Y-91939931D01*
X143439931Y-91648780D01*
X143597500Y-91268374D01*
X143597500Y-90856626D01*
X143439931Y-90476220D01*
X143148780Y-90185069D01*
X142768374Y-90027500D01*
X142602302Y-90027500D01*
X142090331Y-89515530D01*
X142047929Y-89452071D01*
X141843143Y-89315237D01*
X142022294Y-89279602D01*
X142311416Y-89086416D01*
X142500000Y-88804181D01*
X142688584Y-89086416D01*
X142977706Y-89279602D01*
X143318750Y-89347440D01*
X143806250Y-89347440D01*
X144147294Y-89279602D01*
X144436416Y-89086416D01*
X144500000Y-88991256D01*
X144563584Y-89086416D01*
X144852706Y-89279602D01*
X145193750Y-89347440D01*
X145681250Y-89347440D01*
X146022294Y-89279602D01*
X146311416Y-89086416D01*
X146504602Y-88797294D01*
X146572440Y-88456250D01*
X146572440Y-87543750D01*
X146504602Y-87202706D01*
X146311416Y-86913584D01*
X146022294Y-86720398D01*
X145844337Y-86685000D01*
X153951197Y-86685000D01*
X154367116Y-86744564D01*
G36*
X121877072Y-86727070D02*
X121847030Y-86772031D01*
X121802072Y-86802071D01*
X121759672Y-86865527D01*
X121759671Y-86865528D01*
X121675482Y-86991526D01*
X121671095Y-86998092D01*
X121652235Y-87001843D01*
X121442191Y-87142191D01*
X121301843Y-87352235D01*
X121277509Y-87474573D01*
X121086416Y-87188584D01*
X120797294Y-86995398D01*
X120456250Y-86927560D01*
X119543750Y-86927560D01*
X119202706Y-86995398D01*
X118913584Y-87188584D01*
X118720398Y-87477706D01*
X118652560Y-87818750D01*
X118652560Y-88306250D01*
X118720398Y-88647294D01*
X118913584Y-88936416D01*
X118914767Y-88937207D01*
X118761673Y-89090302D01*
X118665000Y-89323691D01*
X118665000Y-89651750D01*
X118823750Y-89810500D01*
X119873000Y-89810500D01*
X119873000Y-89790500D01*
X120127000Y-89790500D01*
X120127000Y-89810500D01*
X121176250Y-89810500D01*
X121335000Y-89651750D01*
X121335000Y-89634250D01*
X121423750Y-89723000D01*
X122223000Y-89723000D01*
X122223000Y-89703000D01*
X122477000Y-89703000D01*
X122477000Y-89723000D01*
X122497000Y-89723000D01*
X122497000Y-89977000D01*
X122477000Y-89977000D01*
X122477000Y-89997000D01*
X122223000Y-89997000D01*
X122223000Y-89977000D01*
X121423750Y-89977000D01*
X121265000Y-90135750D01*
X121265000Y-90153250D01*
X121176250Y-90064500D01*
X120127000Y-90064500D01*
X120127000Y-90084500D01*
X119873000Y-90084500D01*
X119873000Y-90064500D01*
X118823750Y-90064500D01*
X118665000Y-90223250D01*
X118665000Y-90551309D01*
X118757579Y-90774814D01*
X118679372Y-90827070D01*
X118636972Y-90890526D01*
X117468771Y-92058727D01*
X117457809Y-92042321D01*
X117247765Y-91901973D01*
X117000000Y-91852690D01*
X116165323Y-91852690D01*
X116025236Y-91514491D01*
X115734429Y-91223684D01*
X115354472Y-91066300D01*
X114943208Y-91066300D01*
X114563251Y-91223684D01*
X114548502Y-91238433D01*
X114596130Y-90998990D01*
X114596130Y-89101610D01*
X114546847Y-88853845D01*
X114406499Y-88643801D01*
X114196455Y-88503453D01*
X113948690Y-88454170D01*
X112051310Y-88454170D01*
X111803545Y-88503453D01*
X111685000Y-88582663D01*
X111685000Y-88048803D01*
X111744564Y-87632884D01*
X111898063Y-87295281D01*
X112140146Y-87014331D01*
X112451352Y-86812617D01*
X112829357Y-86699569D01*
X113025411Y-86685000D01*
X121940034Y-86685000D01*
X121877072Y-86727070D01*
X121877072Y-86727070D01*
G37*
X121877072Y-86727070D02*
X121847030Y-86772031D01*
X121802072Y-86802071D01*
X121759672Y-86865527D01*
X121759671Y-86865528D01*
X121675482Y-86991526D01*
X121671095Y-86998092D01*
X121652235Y-87001843D01*
X121442191Y-87142191D01*
X121301843Y-87352235D01*
X121277509Y-87474573D01*
X121086416Y-87188584D01*
X120797294Y-86995398D01*
X120456250Y-86927560D01*
X119543750Y-86927560D01*
X119202706Y-86995398D01*
X118913584Y-87188584D01*
X118720398Y-87477706D01*
X118652560Y-87818750D01*
X118652560Y-88306250D01*
X118720398Y-88647294D01*
X118913584Y-88936416D01*
X118914767Y-88937207D01*
X118761673Y-89090302D01*
X118665000Y-89323691D01*
X118665000Y-89651750D01*
X118823750Y-89810500D01*
X119873000Y-89810500D01*
X119873000Y-89790500D01*
X120127000Y-89790500D01*
X120127000Y-89810500D01*
X121176250Y-89810500D01*
X121335000Y-89651750D01*
X121335000Y-89634250D01*
X121423750Y-89723000D01*
X122223000Y-89723000D01*
X122223000Y-89703000D01*
X122477000Y-89703000D01*
X122477000Y-89723000D01*
X122497000Y-89723000D01*
X122497000Y-89977000D01*
X122477000Y-89977000D01*
X122477000Y-89997000D01*
X122223000Y-89997000D01*
X122223000Y-89977000D01*
X121423750Y-89977000D01*
X121265000Y-90135750D01*
X121265000Y-90153250D01*
X121176250Y-90064500D01*
X120127000Y-90064500D01*
X120127000Y-90084500D01*
X119873000Y-90084500D01*
X119873000Y-90064500D01*
X118823750Y-90064500D01*
X118665000Y-90223250D01*
X118665000Y-90551309D01*
X118757579Y-90774814D01*
X118679372Y-90827070D01*
X118636972Y-90890526D01*
X117468771Y-92058727D01*
X117457809Y-92042321D01*
X117247765Y-91901973D01*
X117000000Y-91852690D01*
X116165323Y-91852690D01*
X116025236Y-91514491D01*
X115734429Y-91223684D01*
X115354472Y-91066300D01*
X114943208Y-91066300D01*
X114563251Y-91223684D01*
X114548502Y-91238433D01*
X114596130Y-90998990D01*
X114596130Y-89101610D01*
X114546847Y-88853845D01*
X114406499Y-88643801D01*
X114196455Y-88503453D01*
X113948690Y-88454170D01*
X112051310Y-88454170D01*
X111803545Y-88503453D01*
X111685000Y-88582663D01*
X111685000Y-88048803D01*
X111744564Y-87632884D01*
X111898063Y-87295281D01*
X112140146Y-87014331D01*
X112451352Y-86812617D01*
X112829357Y-86699569D01*
X113025411Y-86685000D01*
X121940034Y-86685000D01*
X121877072Y-86727070D01*
G36*
X133665000Y-89839250D02*
X133823750Y-89998000D01*
X134873000Y-89998000D01*
X134873000Y-89978000D01*
X135127000Y-89978000D01*
X135127000Y-89998000D01*
X135147000Y-89998000D01*
X135147000Y-90252000D01*
X135127000Y-90252000D01*
X135127000Y-90272000D01*
X134873000Y-90272000D01*
X134873000Y-90252000D01*
X133823750Y-90252000D01*
X133665000Y-90410750D01*
X133665000Y-90738809D01*
X133761673Y-90972198D01*
X133914767Y-91125293D01*
X133913584Y-91126084D01*
X133837467Y-91240000D01*
X133550334Y-91240000D01*
X133585000Y-91156310D01*
X133585000Y-91015750D01*
X133426250Y-90857000D01*
X132327000Y-90857000D01*
X132327000Y-90877000D01*
X132073000Y-90877000D01*
X132073000Y-90857000D01*
X130973750Y-90857000D01*
X130818923Y-91011827D01*
X130705874Y-90965000D01*
X130374869Y-90965000D01*
X130586280Y-90877431D01*
X130877431Y-90586280D01*
X130900745Y-90529995D01*
X130973750Y-90603000D01*
X132073000Y-90603000D01*
X132073000Y-90583000D01*
X132327000Y-90583000D01*
X132327000Y-90603000D01*
X133426250Y-90603000D01*
X133585000Y-90444250D01*
X133585000Y-90303690D01*
X133495232Y-90086972D01*
X133548157Y-90007765D01*
X133597440Y-89760000D01*
X133597440Y-89594999D01*
X133665000Y-89594999D01*
X133665000Y-89839250D01*
X133665000Y-89839250D01*
G37*
X133665000Y-89839250D02*
X133823750Y-89998000D01*
X134873000Y-89998000D01*
X134873000Y-89978000D01*
X135127000Y-89978000D01*
X135127000Y-89998000D01*
X135147000Y-89998000D01*
X135147000Y-90252000D01*
X135127000Y-90252000D01*
X135127000Y-90272000D01*
X134873000Y-90272000D01*
X134873000Y-90252000D01*
X133823750Y-90252000D01*
X133665000Y-90410750D01*
X133665000Y-90738809D01*
X133761673Y-90972198D01*
X133914767Y-91125293D01*
X133913584Y-91126084D01*
X133837467Y-91240000D01*
X133550334Y-91240000D01*
X133585000Y-91156310D01*
X133585000Y-91015750D01*
X133426250Y-90857000D01*
X132327000Y-90857000D01*
X132327000Y-90877000D01*
X132073000Y-90877000D01*
X132073000Y-90857000D01*
X130973750Y-90857000D01*
X130818923Y-91011827D01*
X130705874Y-90965000D01*
X130374869Y-90965000D01*
X130586280Y-90877431D01*
X130877431Y-90586280D01*
X130900745Y-90529995D01*
X130973750Y-90603000D01*
X132073000Y-90603000D01*
X132073000Y-90583000D01*
X132327000Y-90583000D01*
X132327000Y-90603000D01*
X133426250Y-90603000D01*
X133585000Y-90444250D01*
X133585000Y-90303690D01*
X133495232Y-90086972D01*
X133548157Y-90007765D01*
X133597440Y-89760000D01*
X133597440Y-89594999D01*
X133665000Y-89594999D01*
X133665000Y-89839250D01*
G04 #@! TD*
M02*
