G04 #@! TF.GenerationSoftware,KiCad,Pcbnew,5.0.2-bee76a0~70~ubuntu16.04.1*
G04 #@! TF.CreationDate,2019-09-11T01:23:10+02:00*
G04 #@! TF.ProjectId,hw-USB-RF,68772d55-5342-42d5-9246-2e6b69636164,rev?*
G04 #@! TF.SameCoordinates,Original*
G04 #@! TF.FileFunction,Legend,Top*
G04 #@! TF.FilePolarity,Positive*
%FSLAX46Y46*%
G04 Gerber Fmt 4.6, Leading zero omitted, Abs format (unit mm)*
G04 Created by KiCad (PCBNEW 5.0.2-bee76a0~70~ubuntu16.04.1) date Wed 11 Sep 2019 01:23:10 AM CEST*
%MOMM*%
%LPD*%
G01*
G04 APERTURE LIST*
%ADD10C,0.250000*%
%ADD11C,0.225000*%
%ADD12C,0.120000*%
%ADD13C,0.200660*%
%ADD14C,0.150000*%
G04 APERTURE END LIST*
D10*
X148087500Y-96535714D02*
X148325595Y-97202380D01*
X148563690Y-96535714D01*
X149468452Y-97202380D02*
X148897023Y-97202380D01*
X149182738Y-97202380D02*
X149182738Y-96202380D01*
X149087500Y-96345238D01*
X148992261Y-96440476D01*
X148897023Y-96488095D01*
X149897023Y-97107142D02*
X149944642Y-97154761D01*
X149897023Y-97202380D01*
X149849404Y-97154761D01*
X149897023Y-97107142D01*
X149897023Y-97202380D01*
X150277976Y-96202380D02*
X150897023Y-96202380D01*
X150563690Y-96583333D01*
X150706547Y-96583333D01*
X150801785Y-96630952D01*
X150849404Y-96678571D01*
X150897023Y-96773809D01*
X150897023Y-97011904D01*
X150849404Y-97107142D01*
X150801785Y-97154761D01*
X150706547Y-97202380D01*
X150420833Y-97202380D01*
X150325595Y-97154761D01*
X150277976Y-97107142D01*
X145230357Y-98202380D02*
X145230357Y-99011904D01*
X145277976Y-99107142D01*
X145325595Y-99154761D01*
X145420833Y-99202380D01*
X145611309Y-99202380D01*
X145706547Y-99154761D01*
X145754166Y-99107142D01*
X145801785Y-99011904D01*
X145801785Y-98202380D01*
X146230357Y-99154761D02*
X146373214Y-99202380D01*
X146611309Y-99202380D01*
X146706547Y-99154761D01*
X146754166Y-99107142D01*
X146801785Y-99011904D01*
X146801785Y-98916666D01*
X146754166Y-98821428D01*
X146706547Y-98773809D01*
X146611309Y-98726190D01*
X146420833Y-98678571D01*
X146325595Y-98630952D01*
X146277976Y-98583333D01*
X146230357Y-98488095D01*
X146230357Y-98392857D01*
X146277976Y-98297619D01*
X146325595Y-98250000D01*
X146420833Y-98202380D01*
X146658928Y-98202380D01*
X146801785Y-98250000D01*
X147563690Y-98678571D02*
X147706547Y-98726190D01*
X147754166Y-98773809D01*
X147801785Y-98869047D01*
X147801785Y-99011904D01*
X147754166Y-99107142D01*
X147706547Y-99154761D01*
X147611309Y-99202380D01*
X147230357Y-99202380D01*
X147230357Y-98202380D01*
X147563690Y-98202380D01*
X147658928Y-98250000D01*
X147706547Y-98297619D01*
X147754166Y-98392857D01*
X147754166Y-98488095D01*
X147706547Y-98583333D01*
X147658928Y-98630952D01*
X147563690Y-98678571D01*
X147230357Y-98678571D01*
X148230357Y-98821428D02*
X148992261Y-98821428D01*
X150039880Y-99202380D02*
X149706547Y-98726190D01*
X149468452Y-99202380D02*
X149468452Y-98202380D01*
X149849404Y-98202380D01*
X149944642Y-98250000D01*
X149992261Y-98297619D01*
X150039880Y-98392857D01*
X150039880Y-98535714D01*
X149992261Y-98630952D01*
X149944642Y-98678571D01*
X149849404Y-98726190D01*
X149468452Y-98726190D01*
X150801785Y-98678571D02*
X150468452Y-98678571D01*
X150468452Y-99202380D02*
X150468452Y-98202380D01*
X150944642Y-98202380D01*
X141849404Y-101202380D02*
X141849404Y-100202380D01*
X142087500Y-100202380D01*
X142230357Y-100250000D01*
X142325595Y-100345238D01*
X142373214Y-100440476D01*
X142420833Y-100630952D01*
X142420833Y-100773809D01*
X142373214Y-100964285D01*
X142325595Y-101059523D01*
X142230357Y-101154761D01*
X142087500Y-101202380D01*
X141849404Y-101202380D01*
X142849404Y-100678571D02*
X143182738Y-100678571D01*
X143325595Y-101202380D02*
X142849404Y-101202380D01*
X142849404Y-100202380D01*
X143325595Y-100202380D01*
X143611309Y-100202380D02*
X143944642Y-101202380D01*
X144277976Y-100202380D01*
X144611309Y-101202380D02*
X144611309Y-100202380D01*
X145658928Y-101107142D02*
X145611309Y-101154761D01*
X145468452Y-101202380D01*
X145373214Y-101202380D01*
X145230357Y-101154761D01*
X145135119Y-101059523D01*
X145087500Y-100964285D01*
X145039880Y-100773809D01*
X145039880Y-100630952D01*
X145087500Y-100440476D01*
X145135119Y-100345238D01*
X145230357Y-100250000D01*
X145373214Y-100202380D01*
X145468452Y-100202380D01*
X145611309Y-100250000D01*
X145658928Y-100297619D01*
X146087500Y-100678571D02*
X146420833Y-100678571D01*
X146563690Y-101202380D02*
X146087500Y-101202380D01*
X146087500Y-100202380D01*
X146563690Y-100202380D01*
X146992261Y-101107142D02*
X147039880Y-101154761D01*
X146992261Y-101202380D01*
X146944642Y-101154761D01*
X146992261Y-101107142D01*
X146992261Y-101202380D01*
X147801785Y-100678571D02*
X147468452Y-100678571D01*
X147468452Y-101202380D02*
X147468452Y-100202380D01*
X147944642Y-100202380D01*
X148277976Y-100916666D02*
X148754166Y-100916666D01*
X148182738Y-101202380D02*
X148516071Y-100202380D01*
X148849404Y-101202380D01*
X149754166Y-101202380D02*
X149420833Y-100726190D01*
X149182738Y-101202380D02*
X149182738Y-100202380D01*
X149563690Y-100202380D01*
X149658928Y-100250000D01*
X149706547Y-100297619D01*
X149754166Y-100392857D01*
X149754166Y-100535714D01*
X149706547Y-100630952D01*
X149658928Y-100678571D01*
X149563690Y-100726190D01*
X149182738Y-100726190D01*
X150182738Y-101202380D02*
X150182738Y-100202380D01*
X150516071Y-100916666D01*
X150849404Y-100202380D01*
X150849404Y-101202380D01*
D11*
X141442857Y-91157142D02*
X141142857Y-90728571D01*
X140928571Y-91157142D02*
X140928571Y-90257142D01*
X141271428Y-90257142D01*
X141357142Y-90300000D01*
X141400000Y-90342857D01*
X141442857Y-90428571D01*
X141442857Y-90557142D01*
X141400000Y-90642857D01*
X141357142Y-90685714D01*
X141271428Y-90728571D01*
X140928571Y-90728571D01*
X142128571Y-90685714D02*
X141828571Y-90685714D01*
X141828571Y-91157142D02*
X141828571Y-90257142D01*
X142257142Y-90257142D01*
X142600000Y-91157142D02*
X142600000Y-90257142D01*
X142814285Y-90257142D01*
X142942857Y-90300000D01*
X143028571Y-90385714D01*
X143071428Y-90471428D01*
X143114285Y-90642857D01*
X143114285Y-90771428D01*
X143071428Y-90942857D01*
X143028571Y-91028571D01*
X142942857Y-91114285D01*
X142814285Y-91157142D01*
X142600000Y-91157142D01*
D10*
X133642857Y-99404761D02*
X133785714Y-99452380D01*
X134023809Y-99452380D01*
X134119047Y-99404761D01*
X134166666Y-99357142D01*
X134214285Y-99261904D01*
X134214285Y-99166666D01*
X134166666Y-99071428D01*
X134119047Y-99023809D01*
X134023809Y-98976190D01*
X133833333Y-98928571D01*
X133738095Y-98880952D01*
X133690476Y-98833333D01*
X133642857Y-98738095D01*
X133642857Y-98642857D01*
X133690476Y-98547619D01*
X133738095Y-98500000D01*
X133833333Y-98452380D01*
X134071428Y-98452380D01*
X134214285Y-98500000D01*
X134547619Y-98452380D02*
X134785714Y-99452380D01*
X134976190Y-98738095D01*
X135166666Y-99452380D01*
X135404761Y-98452380D01*
X135785714Y-99452380D02*
X135785714Y-98452380D01*
X136023809Y-98452380D01*
X136166666Y-98500000D01*
X136261904Y-98595238D01*
X136309523Y-98690476D01*
X136357142Y-98880952D01*
X136357142Y-99023809D01*
X136309523Y-99214285D01*
X136261904Y-99309523D01*
X136166666Y-99404761D01*
X136023809Y-99452380D01*
X135785714Y-99452380D01*
D12*
G04 #@! TO.C,C9*
X122741422Y-96290000D02*
X123258578Y-96290000D01*
X122741422Y-97710000D02*
X123258578Y-97710000D01*
G04 #@! TO.C,Y1*
X119350000Y-91000000D02*
X122650000Y-91000000D01*
X122650000Y-91000000D02*
X122650000Y-87000000D01*
G04 #@! TO.C,AE1*
X148670000Y-95330000D02*
X151330000Y-95330000D01*
X148670000Y-95270000D02*
X148670000Y-95330000D01*
X151330000Y-95270000D02*
X151330000Y-95330000D01*
X148670000Y-95270000D02*
X151330000Y-95270000D01*
X148670000Y-94000000D02*
X148670000Y-92670000D01*
X148670000Y-92670000D02*
X150000000Y-92670000D01*
G04 #@! TO.C,C1*
X149241422Y-91210000D02*
X149758578Y-91210000D01*
X149241422Y-89790000D02*
X149758578Y-89790000D01*
G04 #@! TO.C,C2*
X138710000Y-91258578D02*
X138710000Y-90741422D01*
X137290000Y-91258578D02*
X137290000Y-90741422D01*
G04 #@! TO.C,C3*
X141758578Y-97790000D02*
X141241422Y-97790000D01*
X141758578Y-99210000D02*
X141241422Y-99210000D01*
G04 #@! TO.C,C4*
X117290000Y-88741422D02*
X117290000Y-89258578D01*
X118710000Y-88741422D02*
X118710000Y-89258578D01*
G04 #@! TO.C,C5*
X123290000Y-89258578D02*
X123290000Y-88741422D01*
X124710000Y-89258578D02*
X124710000Y-88741422D01*
G04 #@! TO.C,C6*
X135710000Y-90741422D02*
X135710000Y-91258578D01*
X134290000Y-90741422D02*
X134290000Y-91258578D01*
G04 #@! TO.C,C7*
X123258578Y-95210000D02*
X122741422Y-95210000D01*
X123258578Y-93790000D02*
X122741422Y-93790000D01*
G04 #@! TO.C,C8*
X122741422Y-98790000D02*
X123258578Y-98790000D01*
X122741422Y-100210000D02*
X123258578Y-100210000D01*
G04 #@! TO.C,D1*
X137750000Y-93040000D02*
X135065000Y-93040000D01*
X135065000Y-93040000D02*
X135065000Y-94960000D01*
X135065000Y-94960000D02*
X137750000Y-94960000D01*
D13*
G04 #@! TO.C,J1*
X111001020Y-89798840D02*
X111001020Y-98201160D01*
X110899420Y-89798840D02*
X110899420Y-98201160D01*
X110899420Y-98201160D02*
X111100080Y-98201160D01*
X111100080Y-98201160D02*
X111100080Y-89798840D01*
X111100080Y-89798840D02*
X110899420Y-89798840D01*
X110899420Y-90101100D02*
X115900680Y-90101100D01*
X115900680Y-90101100D02*
X115900680Y-97898900D01*
X115900680Y-97898900D02*
X110899420Y-97898900D01*
D12*
G04 #@! TO.C,L1*
X147741422Y-88710000D02*
X148258578Y-88710000D01*
X147741422Y-87290000D02*
X148258578Y-87290000D01*
G04 #@! TO.C,R1*
X136491422Y-95790000D02*
X137008578Y-95790000D01*
X136491422Y-97210000D02*
X137008578Y-97210000D01*
G04 #@! TO.C,TP1*
X140630000Y-87170000D02*
X140630000Y-89830000D01*
X143230000Y-87170000D02*
X140630000Y-87170000D01*
X143230000Y-89830000D02*
X140630000Y-89830000D01*
X143230000Y-87170000D02*
X143230000Y-89830000D01*
X144500000Y-87170000D02*
X145830000Y-87170000D01*
X145830000Y-87170000D02*
X145830000Y-88500000D01*
D14*
G04 #@! TO.C,U1*
X141425000Y-91425000D02*
X141425000Y-91475000D01*
X145575000Y-91425000D02*
X145575000Y-91570000D01*
X145575000Y-96575000D02*
X145575000Y-96430000D01*
X141425000Y-96575000D02*
X141425000Y-96430000D01*
X141425000Y-91425000D02*
X145575000Y-91425000D01*
X141425000Y-96575000D02*
X145575000Y-96575000D01*
X141425000Y-91475000D02*
X140025000Y-91475000D01*
D12*
G04 #@! TO.C,U2*
X117600000Y-100110000D02*
X119400000Y-100110000D01*
X119400000Y-96890000D02*
X116950000Y-96890000D01*
D14*
G04 #@! TO.C,U3*
X127425000Y-87550000D02*
X127425000Y-87575000D01*
X131575000Y-87550000D02*
X131575000Y-87665000D01*
X131575000Y-96450000D02*
X131575000Y-96335000D01*
X127425000Y-96450000D02*
X127425000Y-96335000D01*
X127425000Y-87550000D02*
X131575000Y-87550000D01*
X127425000Y-96450000D02*
X131575000Y-96450000D01*
X127425000Y-87575000D02*
X126050000Y-87575000D01*
G04 #@! TO.C,X1*
X130770000Y-100270000D02*
X130770000Y-97730000D01*
X133310000Y-100270000D02*
X125690000Y-100270000D01*
X125690000Y-100270000D02*
X125690000Y-97730000D01*
X125690000Y-97730000D02*
X133310000Y-97730000D01*
X133310000Y-97730000D02*
X133310000Y-100270000D01*
G04 #@! TO.C,C9*
X119833333Y-96107142D02*
X119785714Y-96154761D01*
X119642857Y-96202380D01*
X119547619Y-96202380D01*
X119404761Y-96154761D01*
X119309523Y-96059523D01*
X119261904Y-95964285D01*
X119214285Y-95773809D01*
X119214285Y-95630952D01*
X119261904Y-95440476D01*
X119309523Y-95345238D01*
X119404761Y-95250000D01*
X119547619Y-95202380D01*
X119642857Y-95202380D01*
X119785714Y-95250000D01*
X119833333Y-95297619D01*
X120309523Y-96202380D02*
X120500000Y-96202380D01*
X120595238Y-96154761D01*
X120642857Y-96107142D01*
X120738095Y-95964285D01*
X120785714Y-95773809D01*
X120785714Y-95392857D01*
X120738095Y-95297619D01*
X120690476Y-95250000D01*
X120595238Y-95202380D01*
X120404761Y-95202380D01*
X120309523Y-95250000D01*
X120261904Y-95297619D01*
X120214285Y-95392857D01*
X120214285Y-95630952D01*
X120261904Y-95726190D01*
X120309523Y-95773809D01*
X120404761Y-95821428D01*
X120595238Y-95821428D01*
X120690476Y-95773809D01*
X120738095Y-95726190D01*
X120785714Y-95630952D01*
G04 #@! TO.C,Y1*
X120976190Y-92476190D02*
X121452380Y-92476190D01*
X120452380Y-92809523D02*
X120976190Y-92476190D01*
X120452380Y-92142857D01*
X121452380Y-91285714D02*
X121452380Y-91857142D01*
X121452380Y-91571428D02*
X120452380Y-91571428D01*
X120595238Y-91666666D01*
X120690476Y-91761904D01*
X120738095Y-91857142D01*
G04 #@! TO.C,C1*
X146583333Y-90857142D02*
X146535714Y-90904761D01*
X146392857Y-90952380D01*
X146297619Y-90952380D01*
X146154761Y-90904761D01*
X146059523Y-90809523D01*
X146011904Y-90714285D01*
X145964285Y-90523809D01*
X145964285Y-90380952D01*
X146011904Y-90190476D01*
X146059523Y-90095238D01*
X146154761Y-90000000D01*
X146297619Y-89952380D01*
X146392857Y-89952380D01*
X146535714Y-90000000D01*
X146583333Y-90047619D01*
X147535714Y-90952380D02*
X146964285Y-90952380D01*
X147250000Y-90952380D02*
X147250000Y-89952380D01*
X147154761Y-90095238D01*
X147059523Y-90190476D01*
X146964285Y-90238095D01*
G04 #@! TO.C,C2*
X138357142Y-88416666D02*
X138404761Y-88464285D01*
X138452380Y-88607142D01*
X138452380Y-88702380D01*
X138404761Y-88845238D01*
X138309523Y-88940476D01*
X138214285Y-88988095D01*
X138023809Y-89035714D01*
X137880952Y-89035714D01*
X137690476Y-88988095D01*
X137595238Y-88940476D01*
X137500000Y-88845238D01*
X137452380Y-88702380D01*
X137452380Y-88607142D01*
X137500000Y-88464285D01*
X137547619Y-88416666D01*
X137547619Y-88035714D02*
X137500000Y-87988095D01*
X137452380Y-87892857D01*
X137452380Y-87654761D01*
X137500000Y-87559523D01*
X137547619Y-87511904D01*
X137642857Y-87464285D01*
X137738095Y-87464285D01*
X137880952Y-87511904D01*
X138452380Y-88083333D01*
X138452380Y-87464285D01*
G04 #@! TO.C,C3*
X138583333Y-98857142D02*
X138535714Y-98904761D01*
X138392857Y-98952380D01*
X138297619Y-98952380D01*
X138154761Y-98904761D01*
X138059523Y-98809523D01*
X138011904Y-98714285D01*
X137964285Y-98523809D01*
X137964285Y-98380952D01*
X138011904Y-98190476D01*
X138059523Y-98095238D01*
X138154761Y-98000000D01*
X138297619Y-97952380D01*
X138392857Y-97952380D01*
X138535714Y-98000000D01*
X138583333Y-98047619D01*
X138916666Y-97952380D02*
X139535714Y-97952380D01*
X139202380Y-98333333D01*
X139345238Y-98333333D01*
X139440476Y-98380952D01*
X139488095Y-98428571D01*
X139535714Y-98523809D01*
X139535714Y-98761904D01*
X139488095Y-98857142D01*
X139440476Y-98904761D01*
X139345238Y-98952380D01*
X139059523Y-98952380D01*
X138964285Y-98904761D01*
X138916666Y-98857142D01*
G04 #@! TO.C,C4*
X118357142Y-91916666D02*
X118404761Y-91964285D01*
X118452380Y-92107142D01*
X118452380Y-92202380D01*
X118404761Y-92345238D01*
X118309523Y-92440476D01*
X118214285Y-92488095D01*
X118023809Y-92535714D01*
X117880952Y-92535714D01*
X117690476Y-92488095D01*
X117595238Y-92440476D01*
X117500000Y-92345238D01*
X117452380Y-92202380D01*
X117452380Y-92107142D01*
X117500000Y-91964285D01*
X117547619Y-91916666D01*
X117785714Y-91059523D02*
X118452380Y-91059523D01*
X117404761Y-91297619D02*
X118119047Y-91535714D01*
X118119047Y-90916666D01*
G04 #@! TO.C,C5*
X124357142Y-91916666D02*
X124404761Y-91964285D01*
X124452380Y-92107142D01*
X124452380Y-92202380D01*
X124404761Y-92345238D01*
X124309523Y-92440476D01*
X124214285Y-92488095D01*
X124023809Y-92535714D01*
X123880952Y-92535714D01*
X123690476Y-92488095D01*
X123595238Y-92440476D01*
X123500000Y-92345238D01*
X123452380Y-92202380D01*
X123452380Y-92107142D01*
X123500000Y-91964285D01*
X123547619Y-91916666D01*
X123452380Y-91011904D02*
X123452380Y-91488095D01*
X123928571Y-91535714D01*
X123880952Y-91488095D01*
X123833333Y-91392857D01*
X123833333Y-91154761D01*
X123880952Y-91059523D01*
X123928571Y-91011904D01*
X124023809Y-90964285D01*
X124261904Y-90964285D01*
X124357142Y-91011904D01*
X124404761Y-91059523D01*
X124452380Y-91154761D01*
X124452380Y-91392857D01*
X124404761Y-91488095D01*
X124357142Y-91535714D01*
G04 #@! TO.C,C6*
X135357142Y-88416666D02*
X135404761Y-88464285D01*
X135452380Y-88607142D01*
X135452380Y-88702380D01*
X135404761Y-88845238D01*
X135309523Y-88940476D01*
X135214285Y-88988095D01*
X135023809Y-89035714D01*
X134880952Y-89035714D01*
X134690476Y-88988095D01*
X134595238Y-88940476D01*
X134500000Y-88845238D01*
X134452380Y-88702380D01*
X134452380Y-88607142D01*
X134500000Y-88464285D01*
X134547619Y-88416666D01*
X134452380Y-87559523D02*
X134452380Y-87750000D01*
X134500000Y-87845238D01*
X134547619Y-87892857D01*
X134690476Y-87988095D01*
X134880952Y-88035714D01*
X135261904Y-88035714D01*
X135357142Y-87988095D01*
X135404761Y-87940476D01*
X135452380Y-87845238D01*
X135452380Y-87654761D01*
X135404761Y-87559523D01*
X135357142Y-87511904D01*
X135261904Y-87464285D01*
X135023809Y-87464285D01*
X134928571Y-87511904D01*
X134880952Y-87559523D01*
X134833333Y-87654761D01*
X134833333Y-87845238D01*
X134880952Y-87940476D01*
X134928571Y-87988095D01*
X135023809Y-88035714D01*
G04 #@! TO.C,C7*
X119833333Y-94607142D02*
X119785714Y-94654761D01*
X119642857Y-94702380D01*
X119547619Y-94702380D01*
X119404761Y-94654761D01*
X119309523Y-94559523D01*
X119261904Y-94464285D01*
X119214285Y-94273809D01*
X119214285Y-94130952D01*
X119261904Y-93940476D01*
X119309523Y-93845238D01*
X119404761Y-93750000D01*
X119547619Y-93702380D01*
X119642857Y-93702380D01*
X119785714Y-93750000D01*
X119833333Y-93797619D01*
X120166666Y-93702380D02*
X120833333Y-93702380D01*
X120404761Y-94702380D01*
G04 #@! TO.C,C8*
X122833333Y-101607142D02*
X122785714Y-101654761D01*
X122642857Y-101702380D01*
X122547619Y-101702380D01*
X122404761Y-101654761D01*
X122309523Y-101559523D01*
X122261904Y-101464285D01*
X122214285Y-101273809D01*
X122214285Y-101130952D01*
X122261904Y-100940476D01*
X122309523Y-100845238D01*
X122404761Y-100750000D01*
X122547619Y-100702380D01*
X122642857Y-100702380D01*
X122785714Y-100750000D01*
X122833333Y-100797619D01*
X123404761Y-101130952D02*
X123309523Y-101083333D01*
X123261904Y-101035714D01*
X123214285Y-100940476D01*
X123214285Y-100892857D01*
X123261904Y-100797619D01*
X123309523Y-100750000D01*
X123404761Y-100702380D01*
X123595238Y-100702380D01*
X123690476Y-100750000D01*
X123738095Y-100797619D01*
X123785714Y-100892857D01*
X123785714Y-100940476D01*
X123738095Y-101035714D01*
X123690476Y-101083333D01*
X123595238Y-101130952D01*
X123404761Y-101130952D01*
X123309523Y-101178571D01*
X123261904Y-101226190D01*
X123214285Y-101321428D01*
X123214285Y-101511904D01*
X123261904Y-101607142D01*
X123309523Y-101654761D01*
X123404761Y-101702380D01*
X123595238Y-101702380D01*
X123690476Y-101654761D01*
X123738095Y-101607142D01*
X123785714Y-101511904D01*
X123785714Y-101321428D01*
X123738095Y-101226190D01*
X123690476Y-101178571D01*
X123595238Y-101130952D01*
G04 #@! TO.C,D1*
X133511904Y-94452380D02*
X133511904Y-93452380D01*
X133750000Y-93452380D01*
X133892857Y-93500000D01*
X133988095Y-93595238D01*
X134035714Y-93690476D01*
X134083333Y-93880952D01*
X134083333Y-94023809D01*
X134035714Y-94214285D01*
X133988095Y-94309523D01*
X133892857Y-94404761D01*
X133750000Y-94452380D01*
X133511904Y-94452380D01*
X135035714Y-94452380D02*
X134464285Y-94452380D01*
X134750000Y-94452380D02*
X134750000Y-93452380D01*
X134654761Y-93595238D01*
X134559523Y-93690476D01*
X134464285Y-93738095D01*
G04 #@! TO.C,L1*
X150583333Y-88452380D02*
X150107142Y-88452380D01*
X150107142Y-87452380D01*
X151440476Y-88452380D02*
X150869047Y-88452380D01*
X151154761Y-88452380D02*
X151154761Y-87452380D01*
X151059523Y-87595238D01*
X150964285Y-87690476D01*
X150869047Y-87738095D01*
G04 #@! TO.C,R1*
X134083333Y-96952380D02*
X133750000Y-96476190D01*
X133511904Y-96952380D02*
X133511904Y-95952380D01*
X133892857Y-95952380D01*
X133988095Y-96000000D01*
X134035714Y-96047619D01*
X134083333Y-96142857D01*
X134083333Y-96285714D01*
X134035714Y-96380952D01*
X133988095Y-96428571D01*
X133892857Y-96476190D01*
X133511904Y-96476190D01*
X135035714Y-96952380D02*
X134464285Y-96952380D01*
X134750000Y-96952380D02*
X134750000Y-95952380D01*
X134654761Y-96095238D01*
X134559523Y-96190476D01*
X134464285Y-96238095D01*
G04 #@! TO.C,U1*
X142738095Y-93452380D02*
X142738095Y-94261904D01*
X142785714Y-94357142D01*
X142833333Y-94404761D01*
X142928571Y-94452380D01*
X143119047Y-94452380D01*
X143214285Y-94404761D01*
X143261904Y-94357142D01*
X143309523Y-94261904D01*
X143309523Y-93452380D01*
X144309523Y-94452380D02*
X143738095Y-94452380D01*
X144023809Y-94452380D02*
X144023809Y-93452380D01*
X143928571Y-93595238D01*
X143833333Y-93690476D01*
X143738095Y-93738095D01*
G04 #@! TO.C,U2*
X117738095Y-100452380D02*
X117738095Y-101261904D01*
X117785714Y-101357142D01*
X117833333Y-101404761D01*
X117928571Y-101452380D01*
X118119047Y-101452380D01*
X118214285Y-101404761D01*
X118261904Y-101357142D01*
X118309523Y-101261904D01*
X118309523Y-100452380D01*
X118738095Y-100547619D02*
X118785714Y-100500000D01*
X118880952Y-100452380D01*
X119119047Y-100452380D01*
X119214285Y-100500000D01*
X119261904Y-100547619D01*
X119309523Y-100642857D01*
X119309523Y-100738095D01*
X119261904Y-100880952D01*
X118690476Y-101452380D01*
X119309523Y-101452380D01*
G04 #@! TO.C,U3*
X128238095Y-87952380D02*
X128238095Y-88761904D01*
X128285714Y-88857142D01*
X128333333Y-88904761D01*
X128428571Y-88952380D01*
X128619047Y-88952380D01*
X128714285Y-88904761D01*
X128761904Y-88857142D01*
X128809523Y-88761904D01*
X128809523Y-87952380D01*
X129190476Y-87952380D02*
X129809523Y-87952380D01*
X129476190Y-88333333D01*
X129619047Y-88333333D01*
X129714285Y-88380952D01*
X129761904Y-88428571D01*
X129809523Y-88523809D01*
X129809523Y-88761904D01*
X129761904Y-88857142D01*
X129714285Y-88904761D01*
X129619047Y-88952380D01*
X129333333Y-88952380D01*
X129238095Y-88904761D01*
X129190476Y-88857142D01*
G04 #@! TD*
M02*
