M48
;DRILL file {KiCad 5.0.2-bee76a0~70~ubuntu16.04.1} date Tue 30 Jul 2019 03:31:52 PM CEST
;FORMAT={-:-/ absolute / inch / decimal}
FMAT,2
INCH,TZ
T1C0.0157
T2C0.0314
T3C0.0394
T4C0.0400
%
G90
G05
T1
X4.3307Y-2.8937
X4.3307Y-3.3268
X4.4882Y-3.2087
X4.4882Y-3.248
X4.4882Y-3.2874
X4.55Y-3.15
X4.6181Y-2.9114
X4.6247Y-3.1656
X4.6654Y-3.0217
X4.675Y-3.075
X4.7149Y-3.0789
X4.725Y-3.225
X4.9Y-3.0179
X4.9017Y-3.0821
X4.975Y-3.125
X4.975Y-3.175
X5.Y-2.874
X5.Y-2.9528
X5.15Y-3.
X5.15Y-3.4
X5.4724Y-3.3071
X5.525Y-3.125
X5.675Y-3.125
X5.7Y-3.4
X5.8957Y-3.2874
X5.9843Y-2.9724
X5.9843Y-3.1299
X6.2795Y-2.8937
T2
X4.4152Y-3.1849
X4.4153Y-3.0354
T3
X5.5693Y-2.9134
X5.6693Y-2.9134
X6.2598Y-3.2283
T4
X4.3094Y-3.4252
X4.4094Y-3.4252
X4.5094Y-3.4252
T0
M30
